<svg width="393" height="101" viewBox="0 0 393 101" fill="none" xmlns="http://www.w3.org/2000/svg">
<g filter="url(#filter0_d_702_633)">
<rect x="149" y="20" width="96" height="76" fill="#433531"/>
<rect x="147.5" y="18.5" width="99" height="79" stroke="#382C28" stroke-width="3" stroke-linejoin="round"/>
</g>
<path d="M0 3C0 1.34314 1.34315 0 3 0H146C147.657 0 149 1.34315 149 3V101H0V3Z" fill="#382C28"/>
<path d="M2 5C2 3.34315 3.34315 2 5 2H71C72.6569 2 74 3.34315 74 5V84C74 85.6569 72.6569 87 71 87H5C3.34315 87 2 85.6569 2 84V5Z" fill="#8D726B"/>
<path d="M2 9C2 7.34315 3.34315 6 5 6H71C72.6569 6 74 7.34315 74 9V88C74 89.6569 72.6569 91 71 91H5C3.34315 91 2 89.6569 2 88V9Z" fill="url(#paint0_linear_702_633)"/>
<path d="M75 5C75 3.34315 76.3431 2 78 2H144C145.657 2 147 3.34315 147 5V84C147 85.6569 145.657 87 144 87H78C76.3431 87 75 85.6569 75 84V5Z" fill="#8D726B"/>
<path d="M75 9C75 7.34315 76.3431 6 78 6H144C145.657 6 147 7.34315 147 9V88C147 89.6569 145.657 91 144 91H78C76.3431 91 75 89.6569 75 88V9Z" fill="url(#paint1_linear_702_633)"/>
<path d="M244 3C244 1.34314 245.343 0 247 0H390C391.657 0 393 1.34315 393 3V101H244V3Z" fill="#382C28"/>
<path d="M246 5C246 3.34315 247.343 2 249 2H315C316.657 2 318 3.34315 318 5V84C318 85.6569 316.657 87 315 87H249C247.343 87 246 85.6569 246 84V5Z" fill="#8D726B"/>
<path d="M246 9C246 7.34315 247.343 6 249 6H315C316.657 6 318 7.34315 318 9V88C318 89.6569 316.657 91 315 91H249C247.343 91 246 89.6569 246 88V9Z" fill="url(#paint2_linear_702_633)"/>
<path d="M319 5C319 3.34315 320.343 2 322 2H388C389.657 2 391 3.34315 391 5V84C391 85.6569 389.657 87 388 87H322C320.343 87 319 85.6569 319 84V5Z" fill="#8D726B"/>
<path d="M319 9C319 7.34315 320.343 6 322 6H388C389.657 6 391 7.34315 391 9V88C391 89.6569 389.657 91 388 91H322C320.343 91 319 89.6569 319 88V9Z" fill="url(#paint3_linear_702_633)"/>
<defs>
<filter id="filter0_d_702_633" x="146" y="17" width="102" height="86" filterUnits="userSpaceOnUse" color-interpolation-filters="sRGB">
<feFlood flood-opacity="0" result="BackgroundImageFix"/>
<feColorMatrix in="SourceAlpha" type="matrix" values="0 0 0 0 0 0 0 0 0 0 0 0 0 0 0 0 0 0 127 0" result="hardAlpha"/>
<feOffset dy="4"/>
<feComposite in2="hardAlpha" operator="out"/>
<feColorMatrix type="matrix" values="0 0 0 0 0.219608 0 0 0 0 0.172549 0 0 0 0 0.156863 0 0 0 1 0"/>
<feBlend mode="normal" in2="BackgroundImageFix" result="effect1_dropShadow_702_633"/>
<feBlend mode="normal" in="SourceGraphic" in2="effect1_dropShadow_702_633" result="shape"/>
</filter>
<linearGradient id="paint0_linear_702_633" x1="38" y1="6" x2="38" y2="91" gradientUnits="userSpaceOnUse">
<stop stop-color="#5C4D49"/>
<stop offset="1" stop-color="#463733"/>
</linearGradient>
<linearGradient id="paint1_linear_702_633" x1="111" y1="6" x2="111" y2="91" gradientUnits="userSpaceOnUse">
<stop stop-color="#5C4D49"/>
<stop offset="1" stop-color="#463733"/>
</linearGradient>
<linearGradient id="paint2_linear_702_633" x1="282" y1="6" x2="282" y2="91" gradientUnits="userSpaceOnUse">
<stop stop-color="#5C4D49"/>
<stop offset="1" stop-color="#463733"/>
</linearGradient>
<linearGradient id="paint3_linear_702_633" x1="355" y1="6" x2="355" y2="91" gradientUnits="userSpaceOnUse">
<stop stop-color="#5C4D49"/>
<stop offset="1" stop-color="#463733"/>
</linearGradient>
</defs>
</svg>
