<svg width="304" height="414" viewBox="0 0 304 414" fill="none" xmlns="http://www.w3.org/2000/svg">
<g filter="url(#filter0_d_561_1449)">
<g filter="url(#filter1_d_561_1449)">
<rect x="6" y="2" width="292" height="402" rx="3" fill="#382C28"/>
<rect x="5" y="1" width="294" height="404" rx="4" stroke="#382C28" stroke-width="2"/>
</g>
<path d="M8 365C8 363.343 9.34315 362 11 362H294C295.657 362 297 363.343 297 365V401C297 402.657 295.657 404 294 404H11C9.34315 404 8 402.657 8 401V365Z" fill="url(#paint0_linear_561_1449)"/>
<g filter="url(#filter2_d_561_1449)">
<mask id="path-4-outside-1_561_1449" maskUnits="userSpaceOnUse" x="136" y="372.943" width="31" height="20" fill="black">
<rect fill="white" x="136" y="372.943" width="31" height="20"/>
<path d="M144.654 382.999V383.607C145.502 383.575 146.334 383.543 147.15 383.511C147.598 383.495 147.886 383.767 147.902 384.311C147.87 385.079 147.454 385.095 146.99 385.175C144.654 385.463 142.126 385.703 139.598 385.767C139.022 385.783 138.638 385.623 138.638 384.855C138.638 384.151 139.006 383.911 139.566 383.879C140.414 383.831 141.23 383.799 142.03 383.751L141.998 383.175C140.11 382.967 139.134 381.943 139.134 380.663C139.134 380.071 139.47 379.447 139.966 379.047L139.006 379.063C138.526 379.063 138.222 379.015 138.206 378.215C138.19 377.495 138.414 377.047 138.958 377.015C139.678 376.983 140.494 376.935 141.342 376.903C141.342 376.759 141.326 376.631 141.326 376.503C141.294 375.799 141.662 375.383 142.718 375.303C143.886 375.223 144.238 375.575 144.238 376.183V376.791C145.15 376.759 146.078 376.743 146.942 376.711C147.454 376.695 147.694 377.047 147.726 377.719C147.758 378.503 147.454 378.567 146.958 378.615C146.878 378.631 146.19 378.631 146.11 378.647C146.67 378.983 147.054 379.543 147.086 380.231C147.15 381.463 146.35 382.535 144.654 382.999ZM147.854 387.879C146.27 387.927 143.15 388.151 141.486 388.103C141.198 388.087 140.958 387.927 140.846 387.591C140.75 387.303 140.75 386.855 140.894 386.535C140.99 386.327 141.198 386.167 141.486 386.151C143.598 386.039 147.918 385.751 149.902 385.751C150.318 385.751 150.446 385.927 150.446 386.359C150.446 387.655 150.334 388.535 150.206 389.783C150.126 390.423 149.854 390.695 149.07 390.759C148.286 390.823 147.95 390.519 147.918 390.087C147.87 389.335 147.886 388.823 147.854 387.879ZM150.686 381.943C150.67 382.871 150.638 383.735 150.606 384.359C150.574 384.823 150.366 385.079 149.95 385.239C149.71 385.335 149.054 385.383 148.75 385.239C148.478 385.111 148.238 384.839 148.238 384.423C148.206 382.631 148.158 379.415 148.19 377.303C148.19 376.871 148.35 376.631 148.686 376.503C149.198 376.311 149.79 376.327 150.27 376.519C150.606 376.647 150.702 376.871 150.702 377.287C150.702 377.959 150.718 378.807 150.718 379.671C151.038 379.671 151.342 379.671 151.55 379.687C152.158 379.751 152.382 380.103 152.382 380.759C152.382 381.543 152.078 381.799 151.566 381.879C151.358 381.911 151.038 381.943 150.686 381.943ZM143.118 381.335C144.11 381.287 144.67 380.727 144.59 379.831C144.51 378.983 143.934 378.599 143.102 378.631C142.19 378.663 141.614 379.223 141.63 380.039C141.646 380.823 142.19 381.383 143.118 381.335ZM161.172 380.631C161.172 382.935 159.444 384.711 156.788 384.711C153.844 384.711 152.436 383.047 152.436 380.647C152.436 378.359 154.132 376.423 157.092 376.423C159.844 376.423 161.172 378.391 161.172 380.631ZM156.74 382.535C157.892 382.535 158.628 381.767 158.628 380.567C158.628 379.351 157.924 378.599 156.9 378.599C155.684 378.599 154.98 379.431 154.98 380.631C154.98 381.815 155.716 382.535 156.74 382.535ZM164.164 385.607C163.924 385.703 163.108 385.751 162.804 385.607C162.532 385.479 162.292 385.207 162.292 384.791C162.26 382.999 162.212 379.415 162.244 377.303C162.244 376.871 162.404 376.631 162.74 376.503C163.252 376.311 164.004 376.327 164.484 376.519C164.82 376.647 164.916 376.871 164.916 377.287C164.948 379.287 164.932 383.015 164.82 384.727C164.788 385.191 164.58 385.447 164.164 385.607ZM164.388 390.199C162.868 390.359 159.156 390.471 156.916 390.519C156.18 390.535 155.748 390.151 155.668 389.431C155.588 388.679 155.492 387.655 155.492 386.567C155.492 386.039 155.668 385.751 156.02 385.655C156.484 385.527 157.236 385.511 157.62 385.543C158.164 385.591 158.308 385.815 158.324 386.359C158.34 387.047 158.356 387.367 158.372 388.087C158.372 388.279 158.436 388.375 158.612 388.375C159.924 388.375 162.98 388.311 164.292 388.295C164.676 388.295 164.9 388.551 164.932 389.127C164.98 389.847 164.724 390.167 164.388 390.199Z"/>
</mask>
<path d="M144.654 382.999V383.607C145.502 383.575 146.334 383.543 147.15 383.511C147.598 383.495 147.886 383.767 147.902 384.311C147.87 385.079 147.454 385.095 146.99 385.175C144.654 385.463 142.126 385.703 139.598 385.767C139.022 385.783 138.638 385.623 138.638 384.855C138.638 384.151 139.006 383.911 139.566 383.879C140.414 383.831 141.23 383.799 142.03 383.751L141.998 383.175C140.11 382.967 139.134 381.943 139.134 380.663C139.134 380.071 139.47 379.447 139.966 379.047L139.006 379.063C138.526 379.063 138.222 379.015 138.206 378.215C138.19 377.495 138.414 377.047 138.958 377.015C139.678 376.983 140.494 376.935 141.342 376.903C141.342 376.759 141.326 376.631 141.326 376.503C141.294 375.799 141.662 375.383 142.718 375.303C143.886 375.223 144.238 375.575 144.238 376.183V376.791C145.15 376.759 146.078 376.743 146.942 376.711C147.454 376.695 147.694 377.047 147.726 377.719C147.758 378.503 147.454 378.567 146.958 378.615C146.878 378.631 146.19 378.631 146.11 378.647C146.67 378.983 147.054 379.543 147.086 380.231C147.15 381.463 146.35 382.535 144.654 382.999ZM147.854 387.879C146.27 387.927 143.15 388.151 141.486 388.103C141.198 388.087 140.958 387.927 140.846 387.591C140.75 387.303 140.75 386.855 140.894 386.535C140.99 386.327 141.198 386.167 141.486 386.151C143.598 386.039 147.918 385.751 149.902 385.751C150.318 385.751 150.446 385.927 150.446 386.359C150.446 387.655 150.334 388.535 150.206 389.783C150.126 390.423 149.854 390.695 149.07 390.759C148.286 390.823 147.95 390.519 147.918 390.087C147.87 389.335 147.886 388.823 147.854 387.879ZM150.686 381.943C150.67 382.871 150.638 383.735 150.606 384.359C150.574 384.823 150.366 385.079 149.95 385.239C149.71 385.335 149.054 385.383 148.75 385.239C148.478 385.111 148.238 384.839 148.238 384.423C148.206 382.631 148.158 379.415 148.19 377.303C148.19 376.871 148.35 376.631 148.686 376.503C149.198 376.311 149.79 376.327 150.27 376.519C150.606 376.647 150.702 376.871 150.702 377.287C150.702 377.959 150.718 378.807 150.718 379.671C151.038 379.671 151.342 379.671 151.55 379.687C152.158 379.751 152.382 380.103 152.382 380.759C152.382 381.543 152.078 381.799 151.566 381.879C151.358 381.911 151.038 381.943 150.686 381.943ZM143.118 381.335C144.11 381.287 144.67 380.727 144.59 379.831C144.51 378.983 143.934 378.599 143.102 378.631C142.19 378.663 141.614 379.223 141.63 380.039C141.646 380.823 142.19 381.383 143.118 381.335ZM161.172 380.631C161.172 382.935 159.444 384.711 156.788 384.711C153.844 384.711 152.436 383.047 152.436 380.647C152.436 378.359 154.132 376.423 157.092 376.423C159.844 376.423 161.172 378.391 161.172 380.631ZM156.74 382.535C157.892 382.535 158.628 381.767 158.628 380.567C158.628 379.351 157.924 378.599 156.9 378.599C155.684 378.599 154.98 379.431 154.98 380.631C154.98 381.815 155.716 382.535 156.74 382.535ZM164.164 385.607C163.924 385.703 163.108 385.751 162.804 385.607C162.532 385.479 162.292 385.207 162.292 384.791C162.26 382.999 162.212 379.415 162.244 377.303C162.244 376.871 162.404 376.631 162.74 376.503C163.252 376.311 164.004 376.327 164.484 376.519C164.82 376.647 164.916 376.871 164.916 377.287C164.948 379.287 164.932 383.015 164.82 384.727C164.788 385.191 164.58 385.447 164.164 385.607ZM164.388 390.199C162.868 390.359 159.156 390.471 156.916 390.519C156.18 390.535 155.748 390.151 155.668 389.431C155.588 388.679 155.492 387.655 155.492 386.567C155.492 386.039 155.668 385.751 156.02 385.655C156.484 385.527 157.236 385.511 157.62 385.543C158.164 385.591 158.308 385.815 158.324 386.359C158.34 387.047 158.356 387.367 158.372 388.087C158.372 388.279 158.436 388.375 158.612 388.375C159.924 388.375 162.98 388.311 164.292 388.295C164.676 388.295 164.9 388.551 164.932 389.127C164.98 389.847 164.724 390.167 164.388 390.199Z" fill="url(#paint1_linear_561_1449)"/>
<path d="M144.654 382.999L144.126 381.07L142.654 381.473V382.999H144.654ZM144.654 383.607H142.654V385.684L144.729 385.606L144.654 383.607ZM147.15 383.511L147.078 381.513L147.072 381.513L147.15 383.511ZM147.902 384.311L149.9 384.395L149.903 384.324L149.901 384.253L147.902 384.311ZM146.99 385.175L147.235 387.16L147.282 387.154L147.33 387.146L146.99 385.175ZM139.598 385.767L139.547 383.768L139.542 383.768L139.598 385.767ZM139.566 383.879L139.453 381.883L139.452 381.883L139.566 383.879ZM142.03 383.751L142.15 385.748L144.137 385.629L144.027 383.64L142.03 383.751ZM141.998 383.175L143.995 383.064L143.901 381.373L142.217 381.187L141.998 383.175ZM139.966 379.047L141.221 380.604L145.752 376.951L139.933 377.048L139.966 379.047ZM139.006 379.063V381.063H139.023L139.039 381.063L139.006 379.063ZM138.206 378.215L140.205 378.175L140.205 378.171L138.206 378.215ZM138.958 377.015L138.869 375.017L138.855 375.018L138.84 375.019L138.958 377.015ZM141.342 376.903L141.417 378.902L143.342 378.829V376.903H141.342ZM141.326 376.503H143.326V376.458L143.324 376.413L141.326 376.503ZM142.718 375.303L142.581 373.308L142.574 373.309L142.567 373.309L142.718 375.303ZM144.238 376.791H142.238V378.863L144.308 378.79L144.238 376.791ZM146.942 376.711L146.879 374.712L146.868 374.713L146.942 376.711ZM147.726 377.719L149.724 377.638L149.724 377.624L147.726 377.719ZM146.958 378.615L146.765 376.625L146.665 376.634L146.566 376.654L146.958 378.615ZM146.11 378.647L145.718 376.686L140.645 377.701L145.081 380.362L146.11 378.647ZM147.086 380.231L145.088 380.324L145.089 380.335L147.086 380.231ZM147.854 387.879L149.853 387.812L149.785 385.82L147.793 385.88L147.854 387.879ZM141.486 388.103L141.375 390.1L141.402 390.102L141.428 390.103L141.486 388.103ZM140.846 387.591L138.949 388.224L140.846 387.591ZM140.894 386.535L139.078 385.697L139.074 385.706L139.07 385.715L140.894 386.535ZM141.486 386.151L141.38 384.154L141.375 384.154L141.486 386.151ZM150.206 389.783L152.19 390.031L152.193 390.009L152.195 389.987L150.206 389.783ZM149.07 390.759L149.233 392.753L149.07 390.759ZM147.918 390.087L145.922 390.215L145.923 390.225L145.923 390.235L147.918 390.087ZM150.686 381.943V379.943H148.72L148.686 381.909L150.686 381.943ZM150.606 384.359L152.601 384.497L152.602 384.479L152.603 384.462L150.606 384.359ZM149.95 385.239L149.232 383.373L149.219 383.377L149.207 383.382L149.95 385.239ZM148.75 385.239L149.606 383.432L149.601 383.43L148.75 385.239ZM148.238 384.423H150.238V384.406L150.238 384.388L148.238 384.423ZM148.19 377.303L150.19 377.334L150.19 377.319V377.303H148.19ZM148.686 376.503L147.984 374.631L147.974 374.634L148.686 376.503ZM150.27 376.519L149.527 378.376L149.542 378.382L149.558 378.388L150.27 376.519ZM150.718 379.671H148.718V381.671H150.718V379.671ZM151.55 379.687L151.759 377.698L151.731 377.695L151.703 377.693L151.55 379.687ZM151.566 381.879L151.87 383.856L151.875 383.855L151.566 381.879ZM143.118 381.335L143.021 379.338L143.015 379.338L143.118 381.335ZM144.59 379.831L146.582 379.653L146.581 379.644L144.59 379.831ZM143.102 378.631L143.172 380.63L143.179 380.63L143.102 378.631ZM141.63 380.039L139.63 380.079L139.63 380.08L141.63 380.039ZM144.654 382.999H142.654V383.607H144.654H146.654V382.999H144.654ZM144.654 383.607L144.729 385.606C145.578 385.574 146.411 385.542 147.228 385.51L147.15 383.511L147.072 381.513C146.257 381.545 145.426 381.577 144.578 381.609L144.654 383.607ZM147.15 383.511L147.221 385.51C147.015 385.517 146.602 385.454 146.252 385.094C145.928 384.76 145.904 384.421 145.903 384.37L147.902 384.311L149.901 384.253C149.884 383.658 149.707 382.911 149.123 382.309C148.514 381.681 147.733 381.489 147.078 381.513L147.15 383.511ZM147.902 384.311L145.904 384.228C145.903 384.253 145.903 384.123 145.993 383.926C146.098 383.697 146.276 383.485 146.503 383.334C146.698 383.205 146.858 383.169 146.864 383.168C146.87 383.167 146.863 383.169 146.822 383.176C146.803 383.179 146.782 383.183 146.751 383.187C146.724 383.192 146.688 383.198 146.65 383.204L146.99 385.175L147.33 387.146C147.362 387.141 147.599 387.105 147.784 387.061C147.998 387.01 148.351 386.908 148.713 386.669C149.605 386.077 149.869 385.148 149.9 384.395L147.902 384.311ZM146.99 385.175L146.745 383.19C144.445 383.474 141.987 383.706 139.547 383.768L139.598 385.767L139.648 387.767C142.265 387.7 144.862 387.453 147.235 387.16L146.99 385.175ZM139.598 385.767L139.542 383.768C139.484 383.77 139.524 383.763 139.619 383.783C139.723 383.805 139.931 383.868 140.149 384.042C140.659 384.449 140.638 384.948 140.638 384.855H138.638H136.638C136.638 385.531 136.809 386.494 137.655 387.169C138.405 387.768 139.268 387.777 139.653 387.767L139.598 385.767ZM138.638 384.855H140.638C140.638 384.843 140.634 385.223 140.26 385.574C139.931 385.883 139.612 385.88 139.68 385.876L139.566 383.879L139.452 381.883C138.96 381.911 138.177 382.043 137.523 382.657C136.826 383.311 136.638 384.164 136.638 384.855H138.638ZM139.566 383.879L139.679 385.876C140.433 385.833 141.393 385.793 142.15 385.748L142.03 383.751L141.91 381.755C141.067 381.806 140.395 381.829 139.453 381.883L139.566 383.879ZM142.03 383.751L144.027 383.64L143.995 383.064L141.998 383.175L140.001 383.286L140.033 383.862L142.03 383.751ZM141.998 383.175L142.217 381.187C141.577 381.117 141.3 380.931 141.213 380.85C141.153 380.795 141.134 380.757 141.134 380.663H139.134H137.134C137.134 381.849 137.602 382.963 138.503 383.793C139.375 384.596 140.531 385.026 141.779 385.163L141.998 383.175ZM139.134 380.663H141.134C141.134 380.704 141.128 380.726 141.127 380.73C141.126 380.734 141.128 380.725 141.137 380.708C141.146 380.691 141.159 380.671 141.176 380.65C141.192 380.63 141.209 380.615 141.221 380.604L139.966 379.047L138.71 377.491C137.826 378.204 137.134 379.368 137.134 380.663H139.134ZM139.966 379.047L139.933 377.048L138.973 377.064L139.006 379.063L139.039 381.063L139.999 381.047L139.966 379.047ZM139.006 379.063V377.063C138.892 377.063 138.937 377.058 139.028 377.074C139.143 377.094 139.414 377.161 139.692 377.386C139.982 377.622 140.116 377.896 140.171 378.064C140.217 378.205 140.207 378.268 140.205 378.175L138.206 378.215L136.206 378.255C136.217 378.777 136.308 379.792 137.172 380.492C137.944 381.119 138.884 381.063 139.006 381.063V379.063ZM138.206 378.215L140.205 378.171C140.201 377.971 140.247 378.116 140.093 378.377C140.001 378.531 139.85 378.704 139.63 378.835C139.413 378.964 139.209 379.004 139.075 379.012L138.958 377.015L138.84 375.019C137.94 375.072 137.129 375.53 136.651 376.338C136.253 377.01 136.195 377.74 136.206 378.26L138.206 378.215ZM138.958 377.015L139.047 379.013C139.817 378.979 140.566 378.934 141.417 378.902L141.342 376.903L141.266 374.905C140.422 374.937 139.538 374.988 138.869 375.017L138.958 377.015ZM141.342 376.903H143.342C143.342 376.763 143.334 376.639 143.33 376.576C143.325 376.496 143.326 376.495 143.326 376.503H141.326H139.326C139.326 376.639 139.334 376.767 139.338 376.818C139.34 376.852 139.341 376.87 139.341 376.886C139.342 376.899 139.342 376.904 139.342 376.903H141.342ZM141.326 376.503L143.324 376.413C143.324 376.413 143.329 376.512 143.278 376.664C143.222 376.832 143.116 377.005 142.967 377.143C142.827 377.271 142.709 377.314 142.687 377.322C142.67 377.327 142.718 377.309 142.869 377.298L142.718 375.303L142.567 373.309C141.861 373.363 140.967 373.548 140.261 374.196C139.467 374.925 139.295 375.869 139.328 376.594L141.326 376.503ZM142.718 375.303L142.855 377.299C142.948 377.292 143.018 377.291 143.067 377.293C143.116 377.294 143.137 377.297 143.135 377.297C143.134 377.297 143.101 377.292 143.046 377.272C142.991 377.253 142.91 377.217 142.816 377.156C142.608 377.019 142.435 376.814 142.332 376.579C142.241 376.37 142.238 376.214 142.238 376.183H144.238H146.238C146.238 375.474 146.004 374.465 145.015 373.815C144.217 373.289 143.281 373.26 142.581 373.308L142.718 375.303ZM144.238 376.183H142.238V376.791H144.238H146.238V376.183H144.238ZM144.238 376.791L144.308 378.79C145.069 378.763 146.252 378.738 147.016 378.71L146.942 376.711L146.868 374.713C145.904 374.748 145.231 374.755 144.168 374.793L144.238 376.791ZM146.942 376.711L147.004 378.71C146.899 378.714 146.707 378.701 146.479 378.602C146.241 378.499 146.049 378.337 145.916 378.16C145.688 377.858 145.72 377.635 145.728 377.814L147.726 377.719L149.724 377.624C149.7 377.132 149.595 376.397 149.112 375.754C148.527 374.978 147.669 374.688 146.879 374.712L146.942 376.711ZM147.726 377.719L145.728 377.801C145.731 377.886 145.717 377.813 145.759 377.66C145.809 377.475 145.935 377.196 146.206 376.953C146.459 376.727 146.708 376.65 146.796 376.628C146.865 376.61 146.894 376.612 146.765 376.625L146.958 378.615L147.151 380.606C147.256 380.596 148.168 380.566 148.874 379.933C149.706 379.188 149.746 378.174 149.724 377.638L147.726 377.719ZM146.958 378.615L146.566 376.654C146.667 376.634 146.744 376.627 146.75 376.627C146.762 376.626 146.771 376.625 146.776 376.625C146.781 376.624 146.784 376.624 146.785 376.624C146.786 376.624 146.782 376.624 146.773 376.625C146.764 376.625 146.753 376.625 146.738 376.626C146.675 376.628 146.592 376.63 146.492 376.632C146.4 376.634 146.291 376.636 146.2 376.639C146.155 376.64 146.101 376.642 146.049 376.645C146.023 376.647 145.987 376.649 145.946 376.653C145.921 376.656 145.829 376.664 145.718 376.686L146.11 378.647L146.502 380.609C146.401 380.629 146.324 380.635 146.318 380.636C146.306 380.637 146.297 380.638 146.292 380.638C146.287 380.638 146.284 380.639 146.283 380.639C146.282 380.639 146.286 380.638 146.295 380.638C146.304 380.638 146.315 380.637 146.33 380.637C146.393 380.635 146.476 380.633 146.576 380.631C146.668 380.629 146.777 380.627 146.868 380.624C146.913 380.622 146.967 380.62 147.019 380.617C147.045 380.616 147.081 380.613 147.122 380.61C147.147 380.607 147.239 380.599 147.35 380.577L146.958 378.615ZM146.11 378.647L145.081 380.362C145.114 380.382 145.116 380.393 145.107 380.379C145.102 380.371 145.097 380.361 145.093 380.348C145.089 380.335 145.088 380.326 145.088 380.324L147.086 380.231L149.084 380.138C149.017 378.703 148.202 377.57 147.139 376.932L146.11 378.647ZM147.086 380.231L145.089 380.335C145.095 380.462 145.067 380.536 145 380.615C144.916 380.715 144.681 380.918 144.126 381.07L144.654 382.999L145.182 384.928C146.323 384.616 147.336 384.052 148.06 383.191C148.801 382.311 149.141 381.233 149.083 380.128L147.086 380.231ZM147.854 387.879L147.793 385.88C146.028 385.934 143.142 386.15 141.544 386.104L141.486 388.103L141.428 390.103C143.158 390.152 146.512 389.921 147.914 389.878L147.854 387.879ZM141.486 388.103L141.597 386.106C141.797 386.118 142.064 386.187 142.314 386.378C142.566 386.57 142.691 386.802 142.743 386.959L140.846 387.591L138.949 388.224C139.113 388.717 139.414 389.196 139.886 389.557C140.356 389.916 140.887 390.073 141.375 390.1L141.486 388.103ZM140.846 387.591L142.743 386.959C142.767 387.029 142.774 387.076 142.776 387.095C142.779 387.116 142.779 387.13 142.779 387.139C142.779 387.149 142.777 387.167 142.771 387.196C142.766 387.224 142.752 387.28 142.718 387.356L140.894 386.535L139.07 385.715C138.699 386.54 138.711 387.511 138.949 388.224L140.846 387.591ZM140.894 386.535L142.71 387.373C142.496 387.837 142.048 388.123 141.597 388.148L141.486 386.151L141.375 384.154C140.347 384.212 139.484 384.818 139.078 385.697L140.894 386.535ZM141.486 386.151L141.592 388.149C143.78 388.033 147.988 387.751 149.902 387.751V385.751V383.751C147.847 383.751 143.416 384.046 141.38 384.154L141.486 386.151ZM149.902 385.751V387.751C149.896 387.751 149.296 387.76 148.811 387.195C148.595 386.942 148.509 386.691 148.474 386.548C148.443 386.416 148.446 386.336 148.446 386.359H150.446H152.446C152.446 386.059 152.428 385.268 151.848 384.592C151.196 383.831 150.324 383.751 149.902 383.751V385.751ZM150.446 386.359H148.446C148.446 387.53 148.348 388.294 148.216 389.579L150.206 389.783L152.195 389.987C152.32 388.777 152.446 387.781 152.446 386.359H150.446ZM150.206 389.783L148.221 389.535C148.207 389.646 148.224 389.302 148.575 388.991C148.886 388.716 149.151 388.746 148.907 388.766L149.07 390.759L149.233 392.753C149.773 392.709 150.566 392.571 151.228 391.984C151.932 391.361 152.124 390.56 152.19 390.031L150.206 389.783ZM149.07 390.759L148.907 388.766C148.752 388.779 148.98 388.721 149.309 388.937C149.485 389.053 149.644 389.219 149.756 389.424C149.864 389.623 149.903 389.808 149.912 389.94L147.918 390.087L145.923 390.235C145.978 390.974 146.333 391.769 147.115 392.282C147.816 392.741 148.603 392.804 149.233 392.753L149.07 390.759ZM147.918 390.087L149.914 389.96C149.867 389.224 149.89 388.905 149.853 387.812L147.854 387.879L145.855 387.947C145.882 388.741 145.873 389.447 145.922 390.215L147.918 390.087ZM150.686 381.943L148.686 381.909C148.671 382.815 148.639 383.656 148.609 384.257L150.606 384.359L152.603 384.462C152.636 383.815 152.669 382.928 152.686 381.978L150.686 381.943ZM150.606 384.359L148.611 384.222C148.614 384.178 148.641 383.951 148.83 383.703C149.014 383.461 149.214 383.379 149.232 383.373L149.95 385.239L150.668 387.106C151.101 386.939 151.614 386.65 152.014 386.124C152.419 385.591 152.566 385.004 152.601 384.497L150.606 384.359ZM149.95 385.239L149.207 383.382C149.288 383.35 149.345 383.335 149.364 383.331C149.386 383.325 149.397 383.324 149.393 383.324C149.383 383.326 149.356 383.329 149.322 383.33C149.286 383.331 149.276 383.328 149.293 383.331C149.304 383.332 149.334 383.337 149.38 383.348C149.423 383.359 149.504 383.383 149.606 383.432L148.75 385.239L147.894 387.047C148.489 387.329 149.125 387.336 149.426 387.329C149.751 387.32 150.25 387.273 150.693 387.096L149.95 385.239ZM148.75 385.239L149.601 383.43C149.748 383.499 149.909 383.616 150.037 383.802C150.175 384.002 150.238 384.227 150.238 384.423H148.238H146.238C146.238 385.734 147.041 386.646 147.898 387.049L148.75 385.239ZM148.238 384.423L150.238 384.388C150.205 382.591 150.158 379.408 150.19 377.334L148.19 377.303L146.19 377.273C146.158 379.423 146.206 382.671 146.238 384.459L148.238 384.423ZM148.19 377.303H150.19C150.19 377.32 150.188 377.563 150.003 377.856C149.802 378.175 149.533 378.321 149.398 378.372L148.686 376.503L147.974 374.634C147.503 374.814 146.985 375.143 146.62 375.722C146.271 376.275 146.19 376.854 146.19 377.303H148.19ZM148.686 376.503L149.388 378.376C149.393 378.374 149.419 378.367 149.46 378.367C149.479 378.367 149.496 378.369 149.51 378.372C149.523 378.375 149.529 378.377 149.527 378.376L150.27 376.519L151.013 374.662C150.08 374.289 148.973 374.26 147.984 374.631L148.686 376.503ZM150.27 376.519L149.558 378.388C149.492 378.363 149.365 378.306 149.221 378.19C149.069 378.067 148.94 377.911 148.846 377.735C148.679 377.421 148.702 377.183 148.702 377.287H150.702H152.702C152.702 376.976 152.676 376.417 152.377 375.856C152.03 375.204 151.482 374.841 150.982 374.65L150.27 376.519ZM150.702 377.287H148.702C148.702 377.636 148.706 378.027 148.71 378.427C148.714 378.832 148.718 379.25 148.718 379.671H150.718H152.718C152.718 379.228 152.714 378.791 152.71 378.388C152.706 377.98 152.702 377.611 152.702 377.287H150.702ZM150.718 379.671V381.671C151.072 381.671 151.284 381.673 151.396 381.681L151.55 379.687L151.703 377.693C151.4 377.67 151.004 377.671 150.718 377.671V379.671ZM151.55 379.687L151.341 381.676C151.321 381.674 151.209 381.661 151.055 381.585C150.888 381.503 150.72 381.371 150.587 381.193C150.344 380.864 150.382 380.602 150.382 380.759H152.382H154.382C154.382 380.261 154.308 379.494 153.8 378.81C153.234 378.046 152.426 377.768 151.759 377.698L151.55 379.687ZM152.382 380.759H150.382C150.382 380.938 150.34 380.659 150.615 380.321C150.754 380.149 150.917 380.038 151.055 379.973C151.119 379.942 151.171 379.925 151.204 379.916C151.237 379.906 151.257 379.903 151.257 379.903L151.566 381.879L151.875 383.855C152.37 383.778 153.136 383.559 153.717 382.846C154.272 382.164 154.382 381.365 154.382 380.759H152.382ZM151.566 381.879L151.262 379.903C151.145 379.921 150.927 379.943 150.686 379.943V381.943V383.943C151.149 383.943 151.571 383.902 151.87 383.856L151.566 381.879ZM143.118 381.335L143.215 383.333C144.047 383.293 144.973 383.023 145.681 382.304C146.421 381.553 146.664 380.571 146.582 379.653L144.59 379.831L142.598 380.009C142.598 380.009 142.597 380.005 142.597 379.997C142.597 379.989 142.598 379.978 142.599 379.962C142.602 379.932 142.609 379.887 142.626 379.834C142.663 379.719 142.731 379.599 142.831 379.498C143.03 379.295 143.181 379.33 143.021 379.338L143.118 381.335ZM144.59 379.831L146.581 379.644C146.499 378.778 146.126 377.914 145.346 377.315C144.605 376.747 143.743 376.605 143.025 376.633L143.102 378.631L143.179 380.63C143.292 380.626 143.135 380.66 142.91 380.488C142.797 380.401 142.71 380.292 142.656 380.184C142.604 380.082 142.598 380.016 142.599 380.019L144.59 379.831ZM143.102 378.631L143.032 376.633C142.186 376.662 141.311 376.947 140.632 377.599C139.937 378.267 139.612 379.166 139.63 380.079L141.63 380.039L143.629 380C143.63 380.038 143.624 380.114 143.586 380.212C143.547 380.311 143.484 380.406 143.404 380.483C143.237 380.643 143.106 380.632 143.172 380.63L143.102 378.631ZM141.63 380.039L139.63 380.08C139.648 380.931 139.964 381.819 140.683 382.476C141.404 383.135 142.329 383.379 143.221 383.333L143.118 381.335L143.015 379.338C142.978 379.34 143.168 379.328 143.381 379.523C143.592 379.716 143.628 379.931 143.629 379.999L141.63 380.039ZM164.164 385.607L163.446 383.741L163.434 383.745L163.421 383.75L164.164 385.607ZM162.804 385.607L163.66 383.8L163.656 383.798L162.804 385.607ZM162.292 384.791H164.292V384.774L164.292 384.756L162.292 384.791ZM162.244 377.303L164.244 377.334L164.244 377.319V377.303H162.244ZM162.74 376.503L162.038 374.631L162.028 374.634L162.74 376.503ZM164.484 376.519L163.741 378.376L163.757 378.382L163.772 378.388L164.484 376.519ZM164.916 377.287H162.916V377.303L162.916 377.319L164.916 377.287ZM164.82 384.727L166.815 384.865L166.816 384.858L164.82 384.727ZM164.388 390.199L164.198 388.208L164.189 388.209L164.179 388.21L164.388 390.199ZM156.916 390.519L156.873 388.52L156.873 388.52L156.916 390.519ZM155.668 389.431L153.679 389.643L153.68 389.652L155.668 389.431ZM156.02 385.655L156.546 387.585L156.552 387.583L156.02 385.655ZM157.62 385.543L157.796 383.551L157.786 383.55L157.62 385.543ZM158.324 386.359L160.323 386.313L160.323 386.301L158.324 386.359ZM158.372 388.087H160.372V388.065L160.372 388.043L158.372 388.087ZM164.292 388.295V386.295H164.28L164.268 386.296L164.292 388.295ZM164.932 389.127L162.935 389.238L162.936 389.249L162.936 389.26L164.932 389.127ZM161.172 380.631H159.172C159.172 381.268 158.942 381.757 158.592 382.091C158.242 382.427 157.661 382.711 156.788 382.711V384.711V386.711C158.571 386.711 160.182 386.108 161.36 384.979C162.538 383.85 163.172 382.299 163.172 380.631H161.172ZM156.788 384.711V382.711C155.689 382.711 155.166 382.408 154.918 382.161C154.668 381.913 154.436 381.461 154.436 380.647H152.436H150.436C150.436 382.233 150.908 383.814 152.098 384.998C153.29 386.183 154.943 386.711 156.788 386.711V384.711ZM152.436 380.647H154.436C154.436 380.006 154.668 379.48 155.046 379.113C155.419 378.751 156.061 378.423 157.092 378.423V376.423V374.423C155.163 374.423 153.477 375.063 152.262 376.242C151.052 377.414 150.436 379.001 150.436 380.647H152.436ZM157.092 376.423V378.423C157.953 378.423 158.402 378.711 158.659 379.005C158.952 379.339 159.172 379.888 159.172 380.631H161.172H163.172C163.172 379.134 162.728 377.58 161.669 376.37C160.574 375.12 158.983 374.423 157.092 374.423V376.423ZM156.74 382.535V384.535C157.775 384.535 158.798 384.179 159.559 383.386C160.312 382.601 160.628 381.577 160.628 380.567H158.628H156.628C156.628 380.664 156.613 380.704 156.614 380.701C156.616 380.696 156.631 380.661 156.673 380.617C156.692 380.596 156.714 380.578 156.736 380.564C156.758 380.549 156.777 380.54 156.79 380.535C156.816 380.525 156.806 380.535 156.74 380.535V382.535ZM158.628 380.567H160.628C160.628 379.58 160.339 378.577 159.639 377.794C158.922 376.992 157.928 376.599 156.9 376.599V378.599V380.599C156.909 380.599 156.876 380.601 156.818 380.576C156.758 380.55 156.701 380.509 156.657 380.46C156.565 380.358 156.628 380.339 156.628 380.567H158.628ZM156.9 378.599V376.599C155.812 376.599 154.768 376.987 154.009 377.814C153.272 378.619 152.98 379.649 152.98 380.631H154.98H156.98C156.98 380.525 156.996 380.471 157 380.459C157.003 380.449 156.995 380.476 156.959 380.516C156.941 380.536 156.921 380.554 156.899 380.569C156.876 380.584 156.857 380.594 156.843 380.6C156.813 380.612 156.825 380.599 156.9 380.599V378.599ZM154.98 380.631H152.98C152.98 381.642 153.301 382.643 154.027 383.406C154.758 384.175 155.744 384.535 156.74 384.535V382.535V380.535C156.719 380.535 156.738 380.532 156.782 380.55C156.828 380.568 156.88 380.602 156.925 380.649C156.97 380.696 156.987 380.735 156.991 380.746C156.994 380.754 156.98 380.721 156.98 380.631H154.98ZM164.164 385.607L163.421 383.75C163.481 383.727 163.527 383.712 163.554 383.704C163.583 383.696 163.604 383.691 163.614 383.689C163.634 383.684 163.638 383.684 163.622 383.687C163.589 383.691 163.531 383.696 163.464 383.698C163.394 383.699 163.351 383.696 163.341 383.695C163.337 383.694 163.359 383.697 163.401 383.706C163.422 383.712 163.455 383.72 163.496 383.734C163.536 383.747 163.593 383.768 163.66 383.8L162.804 385.607L161.948 387.415C162.319 387.59 162.683 387.645 162.881 387.668C163.117 387.696 163.35 387.701 163.552 387.697C163.757 387.692 163.967 387.677 164.164 387.65C164.32 387.628 164.613 387.582 164.907 387.464L164.164 385.607ZM162.804 385.607L163.656 383.798C163.802 383.867 163.963 383.984 164.091 384.17C164.23 384.37 164.292 384.595 164.292 384.791H162.292H160.292C160.292 386.102 161.095 387.014 161.952 387.417L162.804 385.607ZM162.292 384.791L164.292 384.756C164.26 382.962 164.212 379.408 164.244 377.334L162.244 377.303L160.244 377.273C160.212 379.422 160.26 383.037 160.292 384.827L162.292 384.791ZM162.244 377.303H164.244C164.244 377.32 164.242 377.563 164.058 377.856C163.856 378.175 163.587 378.321 163.452 378.372L162.74 376.503L162.028 374.634C161.557 374.814 161.04 375.143 160.674 375.722C160.326 376.275 160.244 376.854 160.244 377.303H162.244ZM162.74 376.503L163.442 378.376C163.416 378.386 163.419 378.381 163.458 378.376C163.494 378.37 163.543 378.366 163.598 378.367C163.654 378.368 163.702 378.373 163.737 378.379C163.774 378.386 163.774 378.389 163.741 378.376L164.484 376.519L165.227 374.662C164.703 374.453 164.139 374.374 163.65 374.368C163.159 374.361 162.584 374.426 162.038 374.631L162.74 376.503ZM164.484 376.519L163.772 378.388C163.706 378.363 163.579 378.306 163.435 378.19C163.283 378.067 163.154 377.911 163.061 377.735C162.894 377.421 162.916 377.183 162.916 377.287H164.916H166.916C166.916 376.976 166.89 376.417 166.591 375.856C166.244 375.204 165.696 374.841 165.196 374.65L164.484 376.519ZM164.916 377.287L162.916 377.319C162.948 379.311 162.931 382.971 162.824 384.597L164.82 384.727L166.816 384.858C166.933 383.06 166.948 379.264 166.916 377.255L164.916 377.287ZM164.82 384.727L162.825 384.59C162.828 384.546 162.855 384.319 163.044 384.071C163.228 383.829 163.429 383.747 163.446 383.741L164.164 385.607L164.882 387.474C165.315 387.307 165.828 387.018 166.228 386.492C166.633 385.959 166.78 385.372 166.815 384.865L164.82 384.727ZM164.388 390.199L164.179 388.21C162.76 388.36 159.142 388.471 156.873 388.52L156.916 390.519L156.959 392.519C159.17 392.472 162.976 392.359 164.597 392.188L164.388 390.199ZM156.916 390.519L156.873 388.52C156.857 388.52 157.1 388.516 157.364 388.747C157.627 388.978 157.657 389.22 157.656 389.21L155.668 389.431L153.68 389.652C153.759 390.362 154.045 391.157 154.728 391.756C155.412 392.355 156.239 392.535 156.959 392.519L156.916 390.519ZM155.668 389.431L157.657 389.22C157.579 388.486 157.492 387.547 157.492 386.567H155.492H153.492C153.492 387.764 153.597 388.873 153.679 389.643L155.668 389.431ZM155.492 386.567H157.492C157.492 386.494 157.509 386.688 157.349 386.961C157.262 387.109 157.138 387.254 156.977 387.373C156.819 387.49 156.665 387.553 156.546 387.585L156.02 385.655L155.494 383.726C154.862 383.898 154.276 384.295 153.899 384.937C153.563 385.511 153.492 386.113 153.492 386.567H155.492ZM156.02 385.655L156.552 387.583C156.55 387.584 156.56 387.581 156.584 387.577C156.607 387.572 156.638 387.567 156.677 387.562C156.757 387.551 156.853 387.542 156.959 387.536C157.18 387.524 157.371 387.53 157.454 387.536L157.62 385.543L157.786 383.55C157.283 383.508 156.269 383.512 155.488 383.727L156.02 385.655ZM157.62 385.543L157.444 387.536C157.52 387.542 157.023 387.524 156.62 387.029C156.439 386.807 156.368 386.595 156.342 386.488C156.319 386.393 156.323 386.352 156.325 386.418L158.324 386.359L160.323 386.301C160.313 385.965 160.274 385.18 159.72 384.501C159.105 383.747 158.264 383.592 157.796 383.551L157.62 385.543ZM158.324 386.359L156.325 386.406C156.333 386.759 156.341 387.018 156.349 387.274C156.357 387.528 156.365 387.781 156.372 388.132L158.372 388.087L160.372 388.043C160.363 387.674 160.355 387.406 160.347 387.149C160.339 386.893 160.331 386.648 160.323 386.313L158.324 386.359ZM158.372 388.087H156.372C156.372 388.325 156.395 388.96 156.858 389.545C157.408 390.239 158.164 390.375 158.612 390.375V388.375V386.375C158.884 386.375 159.52 386.463 159.994 387.062C160.381 387.551 160.372 388.042 160.372 388.087H158.372ZM158.612 388.375V390.375C159.936 390.375 163.048 390.311 164.316 390.295L164.292 388.295L164.268 386.296C162.912 386.312 159.912 386.375 158.612 386.375V388.375ZM164.292 388.295V390.295C164.166 390.295 163.971 390.274 163.749 390.177C163.517 390.076 163.321 389.92 163.178 389.739C162.918 389.412 162.93 389.14 162.935 389.238L164.932 389.127L166.929 389.016C166.902 388.539 166.786 387.851 166.31 387.252C165.756 386.554 164.978 386.295 164.292 386.295V388.295ZM164.932 389.127L162.936 389.26C162.946 389.404 162.9 389.221 163.07 388.925C163.163 388.763 163.313 388.585 163.533 388.442C163.753 388.299 163.987 388.229 164.198 388.208L164.388 390.199L164.578 392.19C165.402 392.112 166.12 391.645 166.538 390.918C166.908 390.274 166.966 389.571 166.928 388.994L164.932 389.127Z" fill="#281900" mask="url(#path-4-outside-1_561_1449)"/>
</g>
<mask id="path-6-inside-2_561_1449" fill="white">
<path d="M8 53C8 51.3432 9.34315 50 11 50H294C295.657 50 297 51.3431 297 53V356C297 357.657 295.657 359 294 359H11C9.34315 359 8 357.657 8 356V53Z"/>
</mask>
<path d="M8 53C8 51.3432 9.34315 50 11 50H294C295.657 50 297 51.3431 297 53V356C297 357.657 295.657 359 294 359H11C9.34315 359 8 357.657 8 356V53Z" fill="url(#paint2_linear_561_1449)"/>
<path d="M7 52C7 49.7909 8.79086 48 11 48H294C296.209 48 298 49.7909 298 52L296 53C296 52.4477 295.105 52 294 52H11C9.89543 52 9 52.4477 9 53L7 52ZM298 356C298 358.209 296.209 360 294 360H11C8.79086 360 7 358.209 7 356H9C9 357.105 9.89543 358 11 358H294C295.105 358 296 357.105 296 356H298ZM11 360C8.79086 360 7 358.209 7 356V52C7 49.7909 8.79086 48 11 48V52C9.89543 52 9 52.4477 9 53V356C9 357.105 9.89543 358 11 358V360ZM294 48C296.209 48 298 49.7909 298 52V356C298 358.209 296.209 360 294 360V358C295.105 358 296 357.105 296 356V53C296 52.4477 295.105 52 294 52V48Z" fill="#B29E99" mask="url(#path-6-inside-2_561_1449)"/>
</g>
<rect x="8" y="4" width="289" height="42" rx="3" fill="url(#paint3_linear_561_1449)"/>
<path d="M121.196 22.12V24.24H117.936V22.12H121.196ZM123.456 17.72V29.86H120.796V17.72H123.456ZM109.196 26.8V19.36H111.856V26.8H109.196ZM118.136 27.58H109.196V25.4H118.136V27.58ZM117.656 20.88H109.196V18.74H117.656V20.88ZM116.996 24.18H109.316V22.14H116.996V24.18ZM111.196 33.9L115.356 30.88C115.689 30.6267 115.929 30.3933 116.076 30.18C116.236 29.9533 116.316 29.7667 116.316 29.62V28.8H118.756V29.62C118.756 30.1133 118.609 30.6467 118.316 31.22C118.023 31.78 117.516 32.32 116.796 32.84L112.636 35.86L111.196 33.9ZM122.616 35.86L118.456 32.84C117.736 32.32 117.223 31.78 116.916 31.22C116.623 30.6467 116.476 30.1133 116.476 29.62V28.8H118.936V29.62C118.936 29.7533 119.009 29.9333 119.156 30.16C119.316 30.3867 119.563 30.6267 119.896 30.88L124.056 33.9L122.616 35.86ZM128.212 28H139.572V29.86H130.852V34.54H128.212V28ZM128.212 33.66H139.572V35.52H128.212V33.66ZM130.032 30.86H139.572V32.64H130.032V30.86ZM131.732 24.56V22.72H128.672V24.56H131.732ZM126.032 18.6H128.672V20.74H131.732V18.6H134.352V26.64H126.032V18.6ZM136.852 17.72H139.492V27.3H136.852V17.72ZM138.432 21.38H141.832V23.52H138.432V21.38ZM160.569 17.68V35.08H157.909V17.68H160.569ZM163.049 24.52V26.7H159.889V24.52H163.049ZM147.229 19.26H155.709V21.42H147.229V19.26ZM146.729 28.44C147.955 28.1333 149.055 27.68 150.029 27.08C151.002 26.48 151.775 25.7067 152.349 24.76C152.922 23.8 153.209 22.6733 153.209 21.38V20.04H155.709V21.38C155.709 23.06 155.315 24.5533 154.529 25.86C153.742 27.1667 152.709 28.2333 151.429 29.06C150.162 29.8867 148.782 30.48 147.289 30.84L146.729 28.44ZM178.325 17.68V35.14H175.645V17.68H178.325ZM168.585 29.68C167.611 29.68 166.745 29.46 165.985 29.02C165.225 28.58 164.625 27.9667 164.185 27.18C163.758 26.38 163.545 25.4733 163.545 24.46C163.545 23.4333 163.758 22.5267 164.185 21.74C164.625 20.94 165.225 20.32 165.985 19.88C166.745 19.4267 167.611 19.2 168.585 19.2C169.558 19.2 170.425 19.4267 171.185 19.88C171.945 20.32 172.538 20.94 172.965 21.74C173.405 22.5267 173.625 23.4333 173.625 24.46C173.625 25.4733 173.405 26.38 172.965 27.18C172.538 27.9667 171.945 28.58 171.185 29.02C170.438 29.46 169.571 29.68 168.585 29.68ZM168.585 27.46C169.331 27.46 169.918 27.1867 170.345 26.64C170.785 26.0933 171.005 25.3667 171.005 24.46C171.005 23.8467 170.905 23.3133 170.705 22.86C170.505 22.3933 170.218 22.04 169.845 21.8C169.485 21.5467 169.065 21.42 168.585 21.42C168.105 21.42 167.685 21.5467 167.325 21.8C166.965 22.0533 166.678 22.4067 166.465 22.86C166.265 23.3133 166.165 23.8467 166.165 24.46C166.165 25.06 166.265 25.5867 166.465 26.04C166.678 26.4933 166.965 26.8467 167.325 27.1C167.685 27.34 168.105 27.46 168.585 27.46ZM182.48 19.1H194.58V21.26H185.1V26.78H182.48V19.1ZM180.34 30.8H196.62V32.96H180.34V30.8ZM182.48 25.92H194.58V28.02H182.48V25.92Z" fill="#FFECBF"/>
<defs>
<filter id="filter0_d_561_1449" x="0" y="0" width="304" height="414" filterUnits="userSpaceOnUse" color-interpolation-filters="sRGB">
<feFlood flood-opacity="0" result="BackgroundImageFix"/>
<feColorMatrix in="SourceAlpha" type="matrix" values="0 0 0 0 0 0 0 0 0 0 0 0 0 0 0 0 0 0 127 0" result="hardAlpha"/>
<feOffset dy="4"/>
<feGaussianBlur stdDeviation="2"/>
<feComposite in2="hardAlpha" operator="out"/>
<feColorMatrix type="matrix" values="0 0 0 0 0 0 0 0 0 0 0 0 0 0 0 0 0 0 1 0"/>
<feBlend mode="normal" in2="BackgroundImageFix" result="effect1_dropShadow_561_1449"/>
<feBlend mode="normal" in="SourceGraphic" in2="effect1_dropShadow_561_1449" result="shape"/>
</filter>
<filter id="filter1_d_561_1449" x="4" y="0" width="296" height="410" filterUnits="userSpaceOnUse" color-interpolation-filters="sRGB">
<feFlood flood-opacity="0" result="BackgroundImageFix"/>
<feColorMatrix in="SourceAlpha" type="matrix" values="0 0 0 0 0 0 0 0 0 0 0 0 0 0 0 0 0 0 127 0" result="hardAlpha"/>
<feOffset dy="4"/>
<feComposite in2="hardAlpha" operator="out"/>
<feColorMatrix type="matrix" values="0 0 0 0 0.219608 0 0 0 0 0.172549 0 0 0 0 0.156863 0 0 0 1 0"/>
<feBlend mode="normal" in2="BackgroundImageFix" result="effect1_dropShadow_561_1449"/>
<feBlend mode="normal" in="SourceGraphic" in2="effect1_dropShadow_561_1449" result="shape"/>
</filter>
<filter id="filter2_d_561_1449" x="136.205" y="373.292" width="30.7329" height="20.4756" filterUnits="userSpaceOnUse" color-interpolation-filters="sRGB">
<feFlood flood-opacity="0" result="BackgroundImageFix"/>
<feColorMatrix in="SourceAlpha" type="matrix" values="0 0 0 0 0 0 0 0 0 0 0 0 0 0 0 0 0 0 127 0" result="hardAlpha"/>
<feOffset dy="1"/>
<feComposite in2="hardAlpha" operator="out"/>
<feColorMatrix type="matrix" values="0 0 0 0 0.156863 0 0 0 0 0.0980392 0 0 0 0 0 0 0 0 1 0"/>
<feBlend mode="normal" in2="BackgroundImageFix" result="effect1_dropShadow_561_1449"/>
<feBlend mode="normal" in="SourceGraphic" in2="effect1_dropShadow_561_1449" result="shape"/>
</filter>
<linearGradient id="paint0_linear_561_1449" x1="152.5" y1="362" x2="152.5" y2="404" gradientUnits="userSpaceOnUse">
<stop stop-color="#5C4D49"/>
<stop offset="1" stop-color="#463733"/>
</linearGradient>
<linearGradient id="paint1_linear_561_1449" x1="152" y1="371.943" x2="152" y2="393.943" gradientUnits="userSpaceOnUse">
<stop stop-color="#FFE8B3"/>
<stop offset="1" stop-color="#FFC870"/>
</linearGradient>
<linearGradient id="paint2_linear_561_1449" x1="152.5" y1="50" x2="152.5" y2="359" gradientUnits="userSpaceOnUse">
<stop stop-color="#FFF8E8"/>
<stop offset="1" stop-color="#FFF8E8"/>
</linearGradient>
<linearGradient id="paint3_linear_561_1449" x1="152.5" y1="4" x2="152.5" y2="46" gradientUnits="userSpaceOnUse">
<stop stop-color="#5C4D49"/>
<stop offset="1" stop-color="#463733"/>
</linearGradient>
</defs>
</svg>
