<svg width="198" height="185" viewBox="0 0 198 185" fill="none" xmlns="http://www.w3.org/2000/svg">
<g filter="url(#filter0_d_618_3540)">
<rect x="2" y="2" width="194" height="177" rx="3" fill="#382C28"/>
<rect x="1" y="1" width="196" height="179" rx="4" stroke="#382C28" stroke-width="2"/>
</g>
<path d="M4 137C4 135.343 5.34315 134 7 134H192C193.657 134 195 135.343 195 137V172.887C195 174.544 193.657 175.887 192 175.887H6.99999C5.34314 175.887 4 174.544 4 172.887V137Z" fill="url(#paint0_linear_618_3540)"/>
<mask id="path-4-inside-1_618_3540" fill="white">
<path d="M4 7C4 5.34314 5.34315 4 7 4H192C193.657 4 195 5.34315 195 7V128C195 129.657 193.657 131 192 131H6.99999C5.34314 131 4 129.657 4 128V7Z"/>
</mask>
<path d="M4 7C4 5.34314 5.34315 4 7 4H192C193.657 4 195 5.34315 195 7V128C195 129.657 193.657 131 192 131H6.99999C5.34314 131 4 129.657 4 128V7Z" fill="url(#paint1_linear_618_3540)"/>
<path d="M3 6C3 3.79086 4.79086 2 7 2H192C194.209 2 196 3.79086 196 6L194 7C194 6.44772 193.105 6 192 6H7C5.89543 6 5 6.44772 5 7L3 6ZM196 128C196 130.209 194.209 132 192 132H7C4.79086 132 3 130.209 3 128H5C5 129.105 5.89543 130 7 130H192C193.105 130 194 129.105 194 128H196ZM7 132C4.79086 132 3 130.209 3 128V6C3 3.79086 4.79086 2 7 2V6C5.89543 6 5 6.44772 5 7V128C5 129.105 5.89543 130 7 130V132ZM192 2C194.209 2 196 3.79086 196 6V128C196 130.209 194.209 132 192 132V130C193.105 130 194 129.105 194 128V7C194 6.44772 193.105 6 192 6V2Z" fill="#B29E99" mask="url(#path-4-inside-1_618_3540)"/>
<g filter="url(#filter1_d_618_3540)">
<mask id="path-6-outside-2_618_3540" maskUnits="userSpaceOnUse" x="83" y="145" width="31" height="20" fill="black">
<rect fill="white" x="83" y="145" width="31" height="20"/>
<path d="M91.6539 155.056V155.664C92.5019 155.632 93.3339 155.6 94.1499 155.568C94.5979 155.552 94.8859 155.824 94.9019 156.368C94.8699 157.136 94.4539 157.152 93.9899 157.232C91.6539 157.52 89.1259 157.76 86.5979 157.824C86.0219 157.84 85.6379 157.68 85.6379 156.912C85.6379 156.208 86.0059 155.968 86.5659 155.936C87.4139 155.888 88.2299 155.856 89.0299 155.808L88.9979 155.232C87.1099 155.024 86.1339 154 86.1339 152.72C86.1339 152.128 86.4699 151.504 86.9659 151.104L86.0059 151.12C85.5259 151.12 85.2219 151.072 85.2059 150.272C85.1899 149.552 85.4139 149.104 85.9579 149.072C86.6779 149.04 87.4939 148.992 88.3419 148.96C88.3419 148.816 88.3259 148.688 88.3259 148.56C88.2939 147.856 88.6619 147.44 89.7179 147.36C90.8859 147.28 91.2379 147.632 91.2379 148.24V148.848C92.1499 148.816 93.0779 148.8 93.9419 148.768C94.4539 148.752 94.6939 149.104 94.7259 149.776C94.7579 150.56 94.4539 150.624 93.9579 150.672C93.8779 150.688 93.1899 150.688 93.1099 150.704C93.6699 151.04 94.0539 151.6 94.0859 152.288C94.1499 153.52 93.3499 154.592 91.6539 155.056ZM94.8539 159.936C93.2699 159.984 90.1499 160.208 88.4859 160.16C88.1979 160.144 87.9579 159.984 87.8459 159.648C87.7499 159.36 87.7499 158.912 87.8939 158.592C87.9899 158.384 88.1979 158.224 88.4859 158.208C90.5979 158.096 94.9179 157.808 96.9019 157.808C97.3179 157.808 97.4459 157.984 97.4459 158.416C97.4459 159.712 97.3339 160.592 97.2059 161.84C97.1259 162.48 96.8539 162.752 96.0699 162.816C95.2859 162.88 94.9499 162.576 94.9179 162.144C94.8699 161.392 94.8859 160.88 94.8539 159.936ZM97.6859 154C97.6699 154.928 97.6379 155.792 97.6059 156.416C97.5739 156.88 97.3659 157.136 96.9499 157.296C96.7099 157.392 96.0539 157.44 95.7499 157.296C95.4779 157.168 95.2379 156.896 95.2379 156.48C95.2059 154.688 95.1579 151.472 95.1899 149.36C95.1899 148.928 95.3499 148.688 95.6859 148.56C96.1979 148.368 96.7899 148.384 97.2699 148.576C97.6059 148.704 97.7019 148.928 97.7019 149.344C97.7019 150.016 97.7179 150.864 97.7179 151.728C98.0379 151.728 98.3419 151.728 98.5499 151.744C99.1579 151.808 99.3819 152.16 99.3819 152.816C99.3819 153.6 99.0779 153.856 98.5659 153.936C98.3579 153.968 98.0379 154 97.6859 154ZM90.1179 153.392C91.1099 153.344 91.6699 152.784 91.5899 151.888C91.5099 151.04 90.9339 150.656 90.1019 150.688C89.1899 150.72 88.6139 151.28 88.6299 152.096C88.6459 152.88 89.1899 153.44 90.1179 153.392ZM108.172 152.688C108.172 154.992 106.444 156.768 103.788 156.768C100.844 156.768 99.436 155.104 99.436 152.704C99.436 150.416 101.132 148.48 104.092 148.48C106.844 148.48 108.172 150.448 108.172 152.688ZM103.74 154.592C104.892 154.592 105.628 153.824 105.628 152.624C105.628 151.408 104.924 150.656 103.9 150.656C102.684 150.656 101.98 151.488 101.98 152.688C101.98 153.872 102.716 154.592 103.74 154.592ZM111.164 157.664C110.924 157.76 110.108 157.808 109.804 157.664C109.532 157.536 109.292 157.264 109.292 156.848C109.26 155.056 109.212 151.472 109.244 149.36C109.244 148.928 109.404 148.688 109.74 148.56C110.252 148.368 111.004 148.384 111.484 148.576C111.82 148.704 111.916 148.928 111.916 149.344C111.948 151.344 111.932 155.072 111.82 156.784C111.788 157.248 111.58 157.504 111.164 157.664ZM111.388 162.256C109.868 162.416 106.156 162.528 103.916 162.576C103.18 162.592 102.748 162.208 102.668 161.488C102.588 160.736 102.492 159.712 102.492 158.624C102.492 158.096 102.668 157.808 103.02 157.712C103.484 157.584 104.236 157.568 104.62 157.6C105.164 157.648 105.308 157.872 105.324 158.416C105.34 159.104 105.356 159.424 105.372 160.144C105.372 160.336 105.436 160.432 105.612 160.432C106.924 160.432 109.98 160.368 111.292 160.352C111.676 160.352 111.9 160.608 111.932 161.184C111.98 161.904 111.724 162.224 111.388 162.256Z"/>
</mask>
<path d="M91.6539 155.056V155.664C92.5019 155.632 93.3339 155.6 94.1499 155.568C94.5979 155.552 94.8859 155.824 94.9019 156.368C94.8699 157.136 94.4539 157.152 93.9899 157.232C91.6539 157.52 89.1259 157.76 86.5979 157.824C86.0219 157.84 85.6379 157.68 85.6379 156.912C85.6379 156.208 86.0059 155.968 86.5659 155.936C87.4139 155.888 88.2299 155.856 89.0299 155.808L88.9979 155.232C87.1099 155.024 86.1339 154 86.1339 152.72C86.1339 152.128 86.4699 151.504 86.9659 151.104L86.0059 151.12C85.5259 151.12 85.2219 151.072 85.2059 150.272C85.1899 149.552 85.4139 149.104 85.9579 149.072C86.6779 149.04 87.4939 148.992 88.3419 148.96C88.3419 148.816 88.3259 148.688 88.3259 148.56C88.2939 147.856 88.6619 147.44 89.7179 147.36C90.8859 147.28 91.2379 147.632 91.2379 148.24V148.848C92.1499 148.816 93.0779 148.8 93.9419 148.768C94.4539 148.752 94.6939 149.104 94.7259 149.776C94.7579 150.56 94.4539 150.624 93.9579 150.672C93.8779 150.688 93.1899 150.688 93.1099 150.704C93.6699 151.04 94.0539 151.6 94.0859 152.288C94.1499 153.52 93.3499 154.592 91.6539 155.056ZM94.8539 159.936C93.2699 159.984 90.1499 160.208 88.4859 160.16C88.1979 160.144 87.9579 159.984 87.8459 159.648C87.7499 159.36 87.7499 158.912 87.8939 158.592C87.9899 158.384 88.1979 158.224 88.4859 158.208C90.5979 158.096 94.9179 157.808 96.9019 157.808C97.3179 157.808 97.4459 157.984 97.4459 158.416C97.4459 159.712 97.3339 160.592 97.2059 161.84C97.1259 162.48 96.8539 162.752 96.0699 162.816C95.2859 162.88 94.9499 162.576 94.9179 162.144C94.8699 161.392 94.8859 160.88 94.8539 159.936ZM97.6859 154C97.6699 154.928 97.6379 155.792 97.6059 156.416C97.5739 156.88 97.3659 157.136 96.9499 157.296C96.7099 157.392 96.0539 157.44 95.7499 157.296C95.4779 157.168 95.2379 156.896 95.2379 156.48C95.2059 154.688 95.1579 151.472 95.1899 149.36C95.1899 148.928 95.3499 148.688 95.6859 148.56C96.1979 148.368 96.7899 148.384 97.2699 148.576C97.6059 148.704 97.7019 148.928 97.7019 149.344C97.7019 150.016 97.7179 150.864 97.7179 151.728C98.0379 151.728 98.3419 151.728 98.5499 151.744C99.1579 151.808 99.3819 152.16 99.3819 152.816C99.3819 153.6 99.0779 153.856 98.5659 153.936C98.3579 153.968 98.0379 154 97.6859 154ZM90.1179 153.392C91.1099 153.344 91.6699 152.784 91.5899 151.888C91.5099 151.04 90.9339 150.656 90.1019 150.688C89.1899 150.72 88.6139 151.28 88.6299 152.096C88.6459 152.88 89.1899 153.44 90.1179 153.392ZM108.172 152.688C108.172 154.992 106.444 156.768 103.788 156.768C100.844 156.768 99.436 155.104 99.436 152.704C99.436 150.416 101.132 148.48 104.092 148.48C106.844 148.48 108.172 150.448 108.172 152.688ZM103.74 154.592C104.892 154.592 105.628 153.824 105.628 152.624C105.628 151.408 104.924 150.656 103.9 150.656C102.684 150.656 101.98 151.488 101.98 152.688C101.98 153.872 102.716 154.592 103.74 154.592ZM111.164 157.664C110.924 157.76 110.108 157.808 109.804 157.664C109.532 157.536 109.292 157.264 109.292 156.848C109.26 155.056 109.212 151.472 109.244 149.36C109.244 148.928 109.404 148.688 109.74 148.56C110.252 148.368 111.004 148.384 111.484 148.576C111.82 148.704 111.916 148.928 111.916 149.344C111.948 151.344 111.932 155.072 111.82 156.784C111.788 157.248 111.58 157.504 111.164 157.664ZM111.388 162.256C109.868 162.416 106.156 162.528 103.916 162.576C103.18 162.592 102.748 162.208 102.668 161.488C102.588 160.736 102.492 159.712 102.492 158.624C102.492 158.096 102.668 157.808 103.02 157.712C103.484 157.584 104.236 157.568 104.62 157.6C105.164 157.648 105.308 157.872 105.324 158.416C105.34 159.104 105.356 159.424 105.372 160.144C105.372 160.336 105.436 160.432 105.612 160.432C106.924 160.432 109.98 160.368 111.292 160.352C111.676 160.352 111.9 160.608 111.932 161.184C111.98 161.904 111.724 162.224 111.388 162.256Z" fill="url(#paint2_linear_618_3540)"/>
<path d="M91.6539 155.056L91.1261 153.127L89.6539 153.53V155.056H91.6539ZM91.6539 155.664H89.6539V157.741L91.7293 157.663L91.6539 155.664ZM94.1499 155.568L94.0785 153.569L94.0715 153.57L94.1499 155.568ZM94.9019 156.368L96.9001 156.451L96.9031 156.38L96.901 156.309L94.9019 156.368ZM93.9899 157.232L94.2346 159.217L94.2823 159.211L94.3297 159.203L93.9899 157.232ZM86.5979 157.824L86.5473 155.825L86.5423 155.825L86.5979 157.824ZM86.5659 155.936L86.4528 153.939L86.4518 153.939L86.5659 155.936ZM89.0299 155.808L89.1497 157.804L91.1372 157.685L91.0268 155.697L89.0299 155.808ZM88.9979 155.232L90.9948 155.121L90.9008 153.43L89.2169 153.244L88.9979 155.232ZM86.9659 151.104L88.2214 152.661L92.7518 149.007L86.9325 149.104L86.9659 151.104ZM86.0059 151.12V153.12H86.0225L86.0392 153.12L86.0059 151.12ZM85.2059 150.272L87.2055 150.232L87.2054 150.228L85.2059 150.272ZM85.9579 149.072L85.8691 147.074L85.8547 147.075L85.8404 147.075L85.9579 149.072ZM88.3419 148.96L88.4173 150.959L90.3419 150.886V148.96H88.3419ZM88.3259 148.56H90.3259V148.515L90.3238 148.469L88.3259 148.56ZM89.7179 147.36L89.5812 145.365L89.574 145.365L89.5668 145.366L89.7179 147.36ZM91.2379 148.848H89.2379V150.919L91.308 150.847L91.2379 148.848ZM93.9419 148.768L93.8794 146.769L93.8679 146.769L93.9419 148.768ZM94.7259 149.776L96.7243 149.694L96.7236 149.681L94.7259 149.776ZM93.9579 150.672L93.7652 148.681L93.6647 148.691L93.5656 148.711L93.9579 150.672ZM93.1099 150.704L92.7176 148.743L87.6449 149.757L92.0809 152.419L93.1099 150.704ZM94.0859 152.288L92.088 152.381L92.0886 152.392L94.0859 152.288ZM94.8539 159.936L96.8527 159.868L96.7852 157.877L94.7933 157.937L94.8539 159.936ZM88.4859 160.16L88.3749 162.157L88.4016 162.158L88.4282 162.159L88.4859 160.16ZM87.8459 159.648L85.9485 160.28H85.9485L87.8459 159.648ZM87.8939 158.592L86.078 157.754L86.074 157.763L86.07 157.771L87.8939 158.592ZM88.4859 158.208L88.38 156.211L88.3749 156.211L88.4859 158.208ZM97.2059 161.84L99.1904 162.088L99.1932 162.066L99.1954 162.044L97.2059 161.84ZM96.0699 162.816L96.2326 164.809H96.2326L96.0699 162.816ZM94.9179 162.144L92.9219 162.271L92.9226 162.282L92.9233 162.292L94.9179 162.144ZM97.6859 154V152H95.7201L95.6862 153.966L97.6859 154ZM97.6059 156.416L99.6011 156.554L99.6023 156.536L99.6033 156.518L97.6059 156.416ZM96.9499 157.296L96.2319 155.429L96.2195 155.434L96.2071 155.439L96.9499 157.296ZM95.7499 157.296L96.6061 155.489L96.6015 155.486L95.7499 157.296ZM95.2379 156.48H97.2379V156.462L97.2376 156.444L95.2379 156.48ZM95.1899 149.36L97.1896 149.39L97.1899 149.375V149.36H95.1899ZM95.6859 148.56L94.9836 146.687L94.9739 146.691L95.6859 148.56ZM97.2699 148.576L96.5271 150.433L96.5424 150.439L96.5579 150.445L97.2699 148.576ZM97.7179 151.728H95.7179V153.728H97.7179V151.728ZM98.5499 151.744L98.7592 149.755L98.7313 149.752L98.7033 149.75L98.5499 151.744ZM98.5659 153.936L98.87 155.913L98.8746 155.912L98.5659 153.936ZM90.1179 153.392L90.0212 151.394L90.0146 151.395L90.1179 153.392ZM91.5899 151.888L93.582 151.71L93.581 151.7L91.5899 151.888ZM90.1019 150.688L90.172 152.687L90.1787 152.687L90.1019 150.688ZM88.6299 152.096L86.6303 152.135L86.6303 152.137L88.6299 152.096ZM91.6539 155.056H89.6539V155.664H91.6539H93.6539V155.056H91.6539ZM91.6539 155.664L91.7293 157.663C92.5782 157.631 93.4112 157.599 94.2282 157.566L94.1499 155.568L94.0715 153.57C93.2565 153.601 92.4255 153.633 91.5785 153.665L91.6539 155.664ZM94.1499 155.568L94.2213 157.567C94.0149 157.574 93.6016 157.511 93.2524 157.151C92.9284 156.817 92.9042 156.477 92.9027 156.427L94.9019 156.368L96.901 156.309C96.8835 155.715 96.7074 154.967 96.1234 154.365C95.5142 153.737 94.7328 153.546 94.0785 153.569L94.1499 155.568ZM94.9019 156.368L92.9036 156.285C92.9026 156.31 92.9028 156.179 92.9929 155.983C93.0977 155.754 93.2755 155.542 93.5031 155.391C93.6984 155.261 93.8584 155.226 93.8637 155.225C93.8705 155.223 93.8628 155.225 93.8223 155.232C93.8026 155.236 93.7815 155.239 93.7513 155.244C93.7235 155.249 93.6876 155.255 93.6501 155.261L93.9899 157.232L94.3297 159.203C94.362 159.197 94.5992 159.161 94.7835 159.118C94.9984 159.067 95.3514 158.965 95.7126 158.725C96.6052 158.134 96.8688 157.205 96.9001 156.451L94.9019 156.368ZM93.9899 157.232L93.7452 155.247C91.4454 155.531 88.9871 155.763 86.5473 155.825L86.5979 157.824L86.6485 159.823C89.2647 159.757 91.8624 159.509 94.2346 159.217L93.9899 157.232ZM86.5979 157.824L86.5423 155.825C86.4842 155.826 86.5243 155.82 86.6188 155.84C86.7227 155.862 86.9306 155.924 87.149 156.098C87.659 156.505 87.6379 157.004 87.6379 156.912H85.6379H83.6379C83.6379 157.588 83.8088 158.551 84.6548 159.226C85.4055 159.824 86.2677 159.834 86.6534 159.823L86.5979 157.824ZM85.6379 156.912H87.6379C87.6379 156.9 87.6339 157.28 87.2604 157.631C86.9306 157.94 86.6115 157.937 86.68 157.933L86.5659 155.936L86.4518 153.939C85.9602 153.967 85.1771 154.1 84.5234 154.713C83.8259 155.368 83.6379 156.22 83.6379 156.912H85.6379ZM86.5659 155.936L86.6789 157.933C87.433 157.89 88.393 157.85 89.1497 157.804L89.0299 155.808L88.9101 153.812C88.0667 153.862 87.3948 153.886 86.4528 153.939L86.5659 155.936ZM89.0299 155.808L91.0268 155.697L90.9948 155.121L88.9979 155.232L87.001 155.343L87.033 155.919L89.0299 155.808ZM88.9979 155.232L89.2169 153.244C88.5768 153.174 88.3003 152.987 88.2127 152.907C88.1533 152.852 88.1339 152.814 88.1339 152.72H86.1339H84.1339C84.1339 153.906 84.6025 155.02 85.5031 155.849C86.3754 156.653 87.531 157.082 88.7789 157.22L88.9979 155.232ZM86.1339 152.72H88.1339C88.1339 152.761 88.1283 152.783 88.1273 152.787C88.1263 152.79 88.1282 152.782 88.1373 152.765C88.1463 152.747 88.1592 152.727 88.1758 152.707C88.1924 152.687 88.2085 152.671 88.2214 152.661L86.9659 151.104L85.7104 149.547C84.826 150.26 84.1339 151.425 84.1339 152.72H86.1339ZM86.9659 151.104L86.9325 149.104L85.9725 149.12L86.0059 151.12L86.0392 153.12L86.9992 153.104L86.9659 151.104ZM86.0059 151.12V149.12C85.892 149.12 85.9369 149.114 86.0285 149.13C86.1426 149.151 86.4142 149.217 86.6922 149.443C86.9819 149.678 87.1164 149.953 87.1711 150.121C87.2172 150.261 87.2073 150.325 87.2055 150.232L85.2059 150.272L83.2063 150.312C83.2167 150.834 83.3084 151.848 84.1715 152.549C84.9439 153.176 85.8844 153.12 86.0059 153.12V151.12ZM85.2059 150.272L87.2054 150.228C87.2009 150.027 87.2467 150.173 87.0927 150.433C87.0012 150.588 86.8501 150.761 86.6298 150.891C86.4127 151.02 86.209 151.061 86.0753 151.069L85.9579 149.072L85.8404 147.075C84.94 147.128 84.1294 147.587 83.651 148.395C83.253 149.067 83.1948 149.797 83.2064 150.316L85.2059 150.272ZM85.9579 149.072L86.0467 151.07C86.8173 151.036 87.566 150.991 88.4173 150.959L88.3419 148.96L88.2665 146.961C87.4218 146.993 86.5384 147.044 85.8691 147.074L85.9579 149.072ZM88.3419 148.96H90.3419C90.3419 148.82 90.334 148.695 90.3302 148.633C90.3253 148.553 90.3259 148.552 90.3259 148.56H88.3259H86.3259C86.3259 148.696 86.3344 148.823 86.3375 148.875C86.3396 148.909 86.3406 148.927 86.3413 148.942C86.3419 148.956 86.3419 148.961 86.3419 148.96H88.3419ZM88.3259 148.56L90.3238 148.469C90.3238 148.469 90.3291 148.568 90.2784 148.72C90.222 148.889 90.1165 149.062 89.9665 149.199C89.8271 149.327 89.7086 149.371 89.6867 149.378C89.6696 149.384 89.7185 149.366 89.869 149.354L89.7179 147.36L89.5668 145.366C88.8607 145.419 87.9673 145.604 87.2612 146.253C86.4669 146.982 86.295 147.925 86.3279 148.651L88.3259 148.56ZM89.7179 147.36L89.8545 149.355C89.9483 149.349 90.0178 149.348 90.0666 149.349C90.1157 149.351 90.1367 149.354 90.1352 149.354C90.1337 149.353 90.101 149.348 90.0465 149.329C89.991 149.309 89.9096 149.274 89.8164 149.213C89.608 149.076 89.4349 148.871 89.332 148.636C89.2408 148.427 89.2379 148.27 89.2379 148.24H91.2379H93.2379C93.2379 147.531 93.0036 146.522 92.0154 145.871C91.2165 145.346 90.2808 145.317 89.5812 145.365L89.7179 147.36ZM91.2379 148.24H89.2379V148.848H91.2379H93.2379V148.24H91.2379ZM91.2379 148.848L91.308 150.847C92.0689 150.82 93.2517 150.795 94.0159 150.767L93.9419 148.768L93.8679 146.769C92.904 146.805 92.2309 146.812 91.1677 146.849L91.2379 148.848ZM93.9419 148.768L94.0043 150.767C93.8995 150.77 93.7067 150.758 93.4793 150.659C93.2408 150.555 93.0491 150.394 92.9161 150.217C92.6883 149.914 92.7196 149.691 92.7281 149.871L94.7259 149.776L96.7236 149.681C96.7002 149.189 96.5954 148.454 96.1116 147.811C95.5273 147.035 94.6689 146.744 93.8794 146.769L93.9419 148.768ZM94.7259 149.776L92.7275 149.858C92.731 149.943 92.7173 149.87 92.7589 149.716C92.8091 149.531 92.9345 149.253 93.2056 149.01C93.4591 148.783 93.7081 148.707 93.7961 148.684C93.865 148.667 93.8938 148.669 93.7652 148.681L93.9579 150.672L94.1505 152.663C94.2564 152.652 95.1679 152.622 95.8741 151.99C96.706 151.245 96.7461 150.23 96.7242 149.694L94.7259 149.776ZM93.9579 150.672L93.5656 148.711C93.6666 148.691 93.7439 148.684 93.7501 148.683C93.7621 148.682 93.771 148.682 93.7758 148.681C93.7808 148.681 93.7839 148.681 93.7846 148.681C93.7855 148.681 93.7821 148.681 93.773 148.681C93.7642 148.682 93.7527 148.682 93.738 148.683C93.6751 148.685 93.592 148.686 93.4922 148.688C93.4 148.69 93.2911 148.693 93.2 148.696C93.155 148.697 93.1012 148.699 93.0488 148.702C93.023 148.704 92.9865 148.706 92.9457 148.71C92.9206 148.712 92.8286 148.721 92.7176 148.743L93.1099 150.704L93.5021 152.665C93.4012 152.685 93.3239 152.692 93.3177 152.693C93.3056 152.694 93.2967 152.694 93.2919 152.695C93.2869 152.695 93.2838 152.695 93.2832 152.695C93.2822 152.695 93.2857 152.695 93.2948 152.695C93.3035 152.694 93.3151 152.694 93.3298 152.693C93.3927 152.691 93.4757 152.69 93.5755 152.688C93.6677 152.686 93.7767 152.683 93.8678 152.68C93.9127 152.679 93.9666 152.677 94.0189 152.674C94.0448 152.672 94.0812 152.67 94.122 152.666C94.1471 152.664 94.2392 152.655 94.3501 152.633L93.9579 150.672ZM93.1099 150.704L92.0809 152.419C92.1144 152.439 92.1162 152.45 92.107 152.435C92.1024 152.428 92.0971 152.418 92.0931 152.405C92.089 152.392 92.0881 152.383 92.088 152.381L94.0859 152.288L96.0837 152.195C96.0169 150.759 95.2016 149.627 94.1389 148.989L93.1099 150.704ZM94.0859 152.288L92.0886 152.392C92.0951 152.518 92.0665 152.593 91.9997 152.672C91.9158 152.772 91.681 152.975 91.1261 153.127L91.6539 155.056L92.1817 156.985C93.3228 156.673 94.336 156.108 95.06 155.248C95.8012 154.367 96.1406 153.29 96.0832 152.184L94.0859 152.288ZM94.8539 159.936L94.7933 157.937C93.0276 157.99 90.1416 158.207 88.5435 158.161L88.4859 160.16L88.4282 162.159C90.1582 162.209 93.5122 161.978 94.9145 161.935L94.8539 159.936ZM88.4859 160.16L88.5968 158.163C88.7972 158.174 89.0635 158.243 89.3137 158.434C89.5658 158.627 89.6909 158.859 89.7432 159.016L87.8459 159.648L85.9485 160.28C86.1128 160.773 86.4139 161.253 86.886 161.614C87.3562 161.973 87.8865 162.13 88.3749 162.157L88.4859 160.16ZM87.8459 159.648L89.7432 159.016C89.7667 159.086 89.7739 159.133 89.7763 159.151C89.779 159.173 89.7792 159.186 89.7789 159.196C89.7786 159.205 89.7774 159.224 89.7714 159.253C89.7657 159.281 89.7519 159.337 89.7177 159.413L87.8939 158.592L86.07 157.771C85.6986 158.597 85.711 159.568 85.9485 160.28L87.8459 159.648ZM87.8939 158.592L89.7098 159.43C89.496 159.893 89.0485 160.18 88.5968 160.205L88.4859 158.208L88.3749 156.211C87.3473 156.268 86.4838 156.875 86.078 157.754L87.8939 158.592ZM88.4859 158.208L88.5918 160.205C90.7797 160.089 94.9885 159.808 96.9019 159.808V157.808V155.808C94.8473 155.808 90.4161 156.103 88.38 156.211L88.4859 158.208ZM96.9019 157.808V159.808C96.896 159.808 96.2956 159.816 95.8114 159.252C95.5949 158.999 95.5086 158.747 95.4744 158.605C95.4427 158.472 95.4459 158.393 95.4459 158.416H97.4459H99.4459C99.4459 158.115 99.4277 157.324 98.8484 156.648C98.1962 155.888 97.3238 155.808 96.9019 155.808V157.808ZM97.4459 158.416H95.4459C95.4459 159.587 95.3481 160.351 95.2163 161.636L97.2059 161.84L99.1954 162.044C99.3196 160.833 99.4459 159.837 99.4459 158.416H97.4459ZM97.2059 161.84L95.2213 161.592C95.2074 161.703 95.2239 161.359 95.5753 161.047C95.8857 160.772 96.1509 160.803 95.9072 160.823L96.0699 162.816L96.2326 164.809C96.7728 164.765 97.5661 164.628 98.2285 164.041C98.9319 163.417 99.1243 162.617 99.1904 162.088L97.2059 161.84ZM96.0699 162.816L95.9072 160.823C95.7524 160.835 95.9798 160.778 96.3088 160.994C96.4849 161.109 96.6437 161.275 96.756 161.481C96.8645 161.679 96.9026 161.864 96.9124 161.996L94.9179 162.144L92.9233 162.292C92.9781 163.031 93.3326 163.825 94.115 164.338C94.8159 164.798 95.6034 164.861 96.2326 164.809L96.0699 162.816ZM94.9179 162.144L96.9138 162.017C96.8668 161.281 96.8898 160.962 96.8527 159.868L94.8539 159.936L92.855 160.004C92.8819 160.798 92.8729 161.503 92.9219 162.271L94.9179 162.144ZM97.6859 154L95.6862 153.966C95.6706 154.871 95.6393 155.712 95.6085 156.314L97.6059 156.416L99.6033 156.518C99.6364 155.872 99.6692 154.985 99.6856 154.034L97.6859 154ZM97.6059 156.416L95.6106 156.278C95.6136 156.235 95.6408 156.008 95.83 155.759C96.0141 155.517 96.2144 155.436 96.2319 155.429L96.9499 157.296L97.6678 159.163C98.1013 158.996 98.6136 158.707 99.0138 158.181C99.4189 157.648 99.5662 157.061 99.6011 156.554L97.6059 156.416ZM96.9499 157.296L96.2071 155.439C96.288 155.407 96.3455 155.392 96.3637 155.387C96.3865 155.382 96.3967 155.38 96.3927 155.381C96.3831 155.383 96.356 155.386 96.3222 155.387C96.2864 155.388 96.2759 155.385 96.2935 155.387C96.3038 155.389 96.3339 155.393 96.3795 155.405C96.4227 155.416 96.5037 155.44 96.606 155.489L95.7499 157.296L94.8937 159.103C95.489 159.385 96.1252 159.393 96.4256 159.385C96.7507 159.377 97.2499 159.33 97.6927 159.153L96.9499 157.296ZM95.7499 157.296L96.6015 155.486C96.748 155.555 96.9087 155.673 97.0371 155.859C97.1755 156.059 97.2379 156.284 97.2379 156.48H95.2379H93.2379C93.2379 157.791 94.0411 158.702 94.8983 159.106L95.7499 157.296ZM95.2379 156.48L97.2376 156.444C97.2055 154.648 97.1582 151.464 97.1896 149.39L95.1899 149.36L93.1901 149.33C93.1575 151.48 93.2063 154.728 93.2382 156.516L95.2379 156.48ZM95.1899 149.36H97.1899C97.1899 149.377 97.1883 149.62 97.0035 149.913C96.8023 150.232 96.5328 150.378 96.3979 150.429L95.6859 148.56L94.9739 146.691C94.503 146.87 93.9854 147.2 93.6203 147.779C93.2715 148.332 93.1899 148.911 93.1899 149.36H95.1899ZM95.6859 148.56L96.3881 150.433C96.3931 150.431 96.4191 150.423 96.4605 150.424C96.4794 150.424 96.4963 150.426 96.5097 150.429C96.5233 150.431 96.5291 150.434 96.5271 150.433L97.2699 148.576L98.0127 146.719C97.08 146.346 95.9727 146.316 94.9836 146.687L95.6859 148.56ZM97.2699 148.576L96.5579 150.445C96.4923 150.42 96.3648 150.363 96.2213 150.246C96.0692 150.123 95.9399 149.967 95.8464 149.792C95.6794 149.478 95.7019 149.239 95.7019 149.344H97.7019H99.7019C99.7019 149.033 99.6763 148.474 99.3774 147.912C99.0303 147.26 98.4818 146.897 97.9819 146.707L97.2699 148.576ZM97.7019 149.344H95.7019C95.7019 149.692 95.706 150.084 95.71 150.484C95.714 150.888 95.7179 151.307 95.7179 151.728H97.7179H99.7179C99.7179 151.285 99.7138 150.848 99.7098 150.444C99.7057 150.036 99.7019 149.668 99.7019 149.344H97.7019ZM97.7179 151.728V153.728C98.0721 153.728 98.2837 153.729 98.3965 153.738L98.5499 151.744L98.7033 149.75C98.4 149.727 98.0037 149.728 97.7179 149.728V151.728ZM98.5499 151.744L98.3405 153.733C98.3208 153.731 98.2091 153.717 98.0555 153.642C97.8882 153.56 97.7199 153.428 97.5874 153.249C97.3438 152.921 97.3819 152.658 97.3819 152.816H99.3819H101.382C101.382 152.318 101.308 151.551 100.8 150.867C100.234 150.103 99.4257 149.825 98.7592 149.755L98.5499 151.744ZM99.3819 152.816H97.3819C97.3819 152.994 97.3398 152.715 97.6148 152.377C97.7542 152.206 97.9169 152.094 98.0548 152.029C98.1187 151.999 98.1708 151.982 98.2043 151.972C98.2374 151.963 98.2568 151.96 98.2571 151.96L98.5659 153.936L98.8746 155.912C99.3703 155.835 100.136 155.616 100.717 154.903C101.272 154.221 101.382 153.422 101.382 152.816H99.3819ZM98.5659 153.936L98.2618 151.959C98.1449 151.977 97.9269 152 97.6859 152V154V156C98.1489 156 98.5708 155.959 98.87 155.913L98.5659 153.936ZM90.1179 153.392L90.2145 155.39C91.0469 155.349 91.9735 155.08 92.6811 154.361C93.4213 153.609 93.6639 152.628 93.582 151.71L91.5899 151.888L89.5978 152.066C89.5978 152.066 89.5974 152.062 89.5974 152.054C89.5974 152.046 89.5978 152.034 89.5992 152.019C89.6021 151.988 89.6095 151.944 89.6264 151.891C89.6627 151.776 89.7313 151.656 89.8307 151.555C90.0303 151.352 90.1809 151.387 90.0212 151.394L90.1179 153.392ZM91.5899 151.888L93.581 151.7C93.4993 150.834 93.1263 149.971 92.3455 149.371C91.6052 148.803 90.7434 148.662 90.025 148.689L90.1019 150.688L90.1787 152.687C90.2924 152.682 90.1346 152.717 89.9102 152.545C89.7966 152.457 89.7102 152.348 89.6558 152.241C89.6043 152.139 89.5984 152.073 89.5987 152.076L91.5899 151.888ZM90.1019 150.688L90.0317 148.689C89.1859 148.719 88.3106 149.004 87.6321 149.656C86.9368 150.324 86.6124 151.223 86.6303 152.135L88.6299 152.096L90.6295 152.057C90.6302 152.094 90.6245 152.171 90.586 152.268C90.5468 152.368 90.484 152.463 90.4036 152.54C90.2372 152.7 90.1059 152.689 90.172 152.687L90.1019 150.688ZM88.6299 152.096L86.6303 152.137C86.6477 152.988 86.9638 153.876 87.6831 154.533C88.4042 155.191 89.3293 155.435 90.2212 155.389L90.1179 153.392L90.0146 151.395C89.9785 151.397 90.1675 151.385 90.3807 151.579C90.5919 151.772 90.6281 151.988 90.6295 152.055L88.6299 152.096ZM111.164 157.664L110.446 155.797L110.434 155.802L110.421 155.807L111.164 157.664ZM109.804 157.664L110.66 155.857L110.656 155.854L109.804 157.664ZM109.292 156.848H111.292V156.83L111.292 156.812L109.292 156.848ZM109.244 149.36L111.244 149.39L111.244 149.375V149.36H109.244ZM109.74 148.56L109.038 146.687L109.028 146.691L109.74 148.56ZM111.484 148.576L110.741 150.433L110.757 150.439L110.772 150.445L111.484 148.576ZM111.916 149.344H109.916V149.36L109.916 149.376L111.916 149.344ZM111.82 156.784L113.815 156.922L113.816 156.915L111.82 156.784ZM111.388 162.256L111.198 160.265L111.189 160.266L111.179 160.267L111.388 162.256ZM103.916 162.576L103.873 160.576L103.873 160.576L103.916 162.576ZM102.668 161.488L100.679 161.7L100.68 161.709L102.668 161.488ZM103.02 157.712L103.546 159.642L103.552 159.64L103.02 157.712ZM104.62 157.6L104.796 155.608L104.786 155.607L104.62 157.6ZM105.324 158.416L107.323 158.37L107.323 158.357L105.324 158.416ZM105.372 160.144H107.372V160.122L107.372 160.1L105.372 160.144ZM111.292 160.352V158.352H111.28L111.268 158.352L111.292 160.352ZM111.932 161.184L109.935 161.295L109.936 161.306L109.936 161.317L111.932 161.184ZM108.172 152.688H106.172C106.172 153.324 105.942 153.813 105.592 154.148C105.242 154.483 104.661 154.768 103.788 154.768V156.768V158.768C105.571 158.768 107.182 158.165 108.36 157.036C109.538 155.907 110.172 154.356 110.172 152.688H108.172ZM103.788 156.768V154.768C102.689 154.768 102.166 154.464 101.918 154.218C101.668 153.969 101.436 153.518 101.436 152.704H99.436H97.436C97.436 154.29 97.9078 155.871 99.0977 157.054C100.29 158.24 101.943 158.768 103.788 158.768V156.768ZM99.436 152.704H101.436C101.436 152.063 101.668 151.537 102.046 151.17C102.419 150.808 103.061 150.48 104.092 150.48V148.48V146.48C102.163 146.48 100.477 147.12 99.2617 148.298C98.0524 149.471 97.436 151.057 97.436 152.704H99.436ZM104.092 148.48V150.48C104.953 150.48 105.402 150.767 105.659 151.062C105.952 151.395 106.172 151.945 106.172 152.688H108.172H110.172C110.172 151.191 109.728 149.637 108.669 148.426C107.574 147.177 105.983 146.48 104.092 146.48V148.48ZM103.74 154.592V156.592C104.775 156.592 105.798 156.236 106.559 155.442C107.312 154.658 107.628 153.634 107.628 152.624H105.628H103.628C103.628 152.72 103.613 152.76 103.614 152.758C103.616 152.753 103.631 152.717 103.673 152.674C103.692 152.653 103.714 152.635 103.736 152.62C103.758 152.606 103.777 152.597 103.79 152.592C103.816 152.581 103.806 152.592 103.74 152.592V154.592ZM105.628 152.624H107.628C107.628 151.636 107.339 150.633 106.639 149.851C105.922 149.049 104.928 148.656 103.9 148.656V150.656V152.656C103.909 152.656 103.876 152.657 103.818 152.632C103.758 152.607 103.701 152.566 103.657 152.517C103.565 152.415 103.628 152.396 103.628 152.624H105.628ZM103.9 150.656V148.656C102.812 148.656 101.768 149.043 101.009 149.871C100.272 150.676 99.98 151.705 99.98 152.688H101.98H103.98C103.98 152.582 103.996 152.528 104 152.516C104.003 152.506 103.995 152.533 103.959 152.573C103.941 152.592 103.921 152.61 103.899 152.626C103.876 152.641 103.857 152.651 103.843 152.656C103.813 152.668 103.825 152.656 103.9 152.656V150.656ZM101.98 152.688H99.98C99.98 153.698 100.301 154.699 101.027 155.462C101.758 156.231 102.744 156.592 103.74 156.592V154.592V152.592C103.719 152.592 103.738 152.589 103.782 152.606C103.828 152.625 103.88 152.658 103.925 152.706C103.97 152.753 103.987 152.792 103.991 152.802C103.994 152.81 103.98 152.777 103.98 152.688H101.98ZM111.164 157.664L110.421 155.807C110.481 155.783 110.527 155.769 110.554 155.761C110.583 155.753 110.604 155.748 110.614 155.745C110.634 155.741 110.638 155.741 110.622 155.743C110.589 155.748 110.531 155.753 110.464 155.754C110.394 155.756 110.351 155.753 110.341 155.752C110.337 155.751 110.359 155.753 110.401 155.763C110.422 155.768 110.455 155.777 110.496 155.79C110.536 155.804 110.593 155.825 110.66 155.857L109.804 157.664L108.948 159.471C109.319 159.647 109.683 159.702 109.881 159.725C110.117 159.752 110.35 159.758 110.552 159.754C110.757 159.749 110.967 159.733 111.164 159.706C111.32 159.685 111.613 159.638 111.907 159.521L111.164 157.664ZM109.804 157.664L110.656 155.854C110.802 155.923 110.963 156.041 111.091 156.227C111.23 156.427 111.292 156.652 111.292 156.848H109.292H107.292C107.292 158.159 108.095 159.07 108.952 159.474L109.804 157.664ZM109.292 156.848L111.292 156.812C111.26 155.018 111.212 151.465 111.244 149.39L109.244 149.36L107.244 149.33C107.212 151.479 107.26 155.094 107.292 156.884L109.292 156.848ZM109.244 149.36H111.244C111.244 149.377 111.242 149.62 111.058 149.913C110.856 150.232 110.587 150.378 110.452 150.429L109.74 148.56L109.028 146.691C108.557 146.87 108.04 147.2 107.674 147.779C107.326 148.332 107.244 148.911 107.244 149.36H109.244ZM109.74 148.56L110.442 150.433C110.416 150.443 110.419 150.438 110.458 150.432C110.494 150.427 110.543 150.423 110.598 150.424C110.654 150.425 110.702 150.43 110.737 150.436C110.774 150.442 110.774 150.446 110.741 150.433L111.484 148.576L112.227 146.719C111.703 146.509 111.139 146.43 110.65 146.424C110.159 146.418 109.584 146.483 109.038 146.687L109.74 148.56ZM111.484 148.576L110.772 150.445C110.706 150.42 110.579 150.363 110.435 150.246C110.283 150.123 110.154 149.967 110.061 149.792C109.894 149.478 109.916 149.239 109.916 149.344H111.916H113.916C113.916 149.033 113.89 148.474 113.591 147.912C113.244 147.26 112.696 146.897 112.196 146.707L111.484 148.576ZM111.916 149.344L109.916 149.376C109.948 151.368 109.931 155.028 109.824 156.653L111.82 156.784L113.816 156.915C113.933 155.116 113.948 151.32 113.916 149.312L111.916 149.344ZM111.82 156.784L109.825 156.646C109.828 156.603 109.855 156.376 110.044 156.127C110.228 155.885 110.429 155.804 110.446 155.797L111.164 157.664L111.882 159.531C112.315 159.364 112.828 159.075 113.228 158.549C113.633 158.016 113.78 157.429 113.815 156.922L111.82 156.784ZM111.388 162.256L111.179 160.267C109.76 160.416 106.142 160.528 103.873 160.576L103.916 162.576L103.959 164.576C106.17 164.528 109.976 164.416 111.597 164.245L111.388 162.256ZM103.916 162.576L103.873 160.576C103.857 160.577 104.1 160.573 104.364 160.804C104.627 161.035 104.657 161.277 104.656 161.267L102.668 161.488L100.68 161.709C100.759 162.419 101.045 163.213 101.728 163.812C102.412 164.411 103.239 164.591 103.959 164.576L103.916 162.576ZM102.668 161.488L104.657 161.276C104.579 160.543 104.492 159.603 104.492 158.624H102.492H100.492C100.492 159.821 100.597 160.929 100.679 161.7L102.668 161.488ZM102.492 158.624H104.492C104.492 158.551 104.509 158.745 104.349 159.018C104.262 159.166 104.138 159.311 103.977 159.429C103.819 159.546 103.665 159.609 103.546 159.642L103.02 157.712L102.494 155.782C101.862 155.955 101.276 156.352 100.899 156.994C100.563 157.567 100.492 158.169 100.492 158.624H102.492ZM103.02 157.712L103.552 159.64C103.55 159.641 103.56 159.638 103.584 159.633C103.607 159.629 103.638 159.624 103.677 159.618C103.757 159.608 103.853 159.599 103.959 159.593C104.18 159.581 104.371 159.586 104.454 159.593L104.62 157.6L104.786 155.607C104.283 155.565 103.269 155.569 102.488 155.784L103.02 157.712ZM104.62 157.6L104.444 159.592C104.52 159.599 104.023 159.581 103.62 159.086C103.439 158.864 103.368 158.652 103.342 158.545C103.319 158.45 103.323 158.409 103.325 158.475L105.324 158.416L107.323 158.357C107.313 158.022 107.274 157.237 106.72 156.558C106.105 155.803 105.264 155.649 104.796 155.608L104.62 157.6ZM105.324 158.416L103.325 158.462C103.333 158.815 103.341 159.075 103.349 159.33C103.357 159.585 103.365 159.838 103.372 160.188L105.372 160.144L107.372 160.1C107.363 159.73 107.355 159.463 107.347 159.206C107.339 158.949 107.331 158.705 107.323 158.37L105.324 158.416ZM105.372 160.144H103.372C103.372 160.381 103.395 161.017 103.858 161.601C104.408 162.296 105.164 162.432 105.612 162.432V160.432V158.432C105.884 158.432 106.52 158.52 106.994 159.119C107.381 159.607 107.372 160.099 107.372 160.144H105.372ZM105.612 160.432V162.432C106.936 162.432 110.048 162.367 111.316 162.352L111.292 160.352L111.268 158.352C109.912 158.369 106.912 158.432 105.612 158.432V160.432ZM111.292 160.352V162.352C111.166 162.352 110.971 162.331 110.749 162.234C110.517 162.132 110.321 161.977 110.178 161.796C109.918 161.468 109.93 161.197 109.935 161.295L111.932 161.184L113.929 161.073C113.902 160.595 113.786 159.908 113.31 159.308C112.756 158.61 111.978 158.352 111.292 158.352V160.352ZM111.932 161.184L109.936 161.317C109.946 161.461 109.9 161.277 110.07 160.981C110.163 160.82 110.313 160.641 110.533 160.499C110.753 160.356 110.987 160.285 111.198 160.265L111.388 162.256L111.578 164.247C112.402 164.168 113.12 163.702 113.538 162.975C113.908 162.331 113.966 161.627 113.928 161.051L111.932 161.184Z" fill="#281900" mask="url(#path-6-outside-2_618_3540)"/>
</g>
<defs>
<filter id="filter0_d_618_3540" x="0" y="0" width="198" height="185" filterUnits="userSpaceOnUse" color-interpolation-filters="sRGB">
<feFlood flood-opacity="0" result="BackgroundImageFix"/>
<feColorMatrix in="SourceAlpha" type="matrix" values="0 0 0 0 0 0 0 0 0 0 0 0 0 0 0 0 0 0 127 0" result="hardAlpha"/>
<feOffset dy="4"/>
<feComposite in2="hardAlpha" operator="out"/>
<feColorMatrix type="matrix" values="0 0 0 0 0.219608 0 0 0 0 0.172549 0 0 0 0 0.156863 0 0 0 1 0"/>
<feBlend mode="normal" in2="BackgroundImageFix" result="effect1_dropShadow_618_3540"/>
<feBlend mode="normal" in="SourceGraphic" in2="effect1_dropShadow_618_3540" result="shape"/>
</filter>
<filter id="filter1_d_618_3540" x="83.2051" y="145.349" width="30.7329" height="20.4756" filterUnits="userSpaceOnUse" color-interpolation-filters="sRGB">
<feFlood flood-opacity="0" result="BackgroundImageFix"/>
<feColorMatrix in="SourceAlpha" type="matrix" values="0 0 0 0 0 0 0 0 0 0 0 0 0 0 0 0 0 0 127 0" result="hardAlpha"/>
<feOffset dy="1"/>
<feComposite in2="hardAlpha" operator="out"/>
<feColorMatrix type="matrix" values="0 0 0 0 0.156863 0 0 0 0 0.0980392 0 0 0 0 0 0 0 0 1 0"/>
<feBlend mode="normal" in2="BackgroundImageFix" result="effect1_dropShadow_618_3540"/>
<feBlend mode="normal" in="SourceGraphic" in2="effect1_dropShadow_618_3540" result="shape"/>
</filter>
<linearGradient id="paint0_linear_618_3540" x1="99.5" y1="134" x2="99.5" y2="175.887" gradientUnits="userSpaceOnUse">
<stop stop-color="#5C4D49"/>
<stop offset="1" stop-color="#463733"/>
</linearGradient>
<linearGradient id="paint1_linear_618_3540" x1="99.5" y1="4" x2="99.5" y2="131" gradientUnits="userSpaceOnUse">
<stop stop-color="#FFF8E8"/>
<stop offset="1" stop-color="#FFF8E8"/>
</linearGradient>
<linearGradient id="paint2_linear_618_3540" x1="99" y1="144" x2="99" y2="166" gradientUnits="userSpaceOnUse">
<stop stop-color="#FFE8B3"/>
<stop offset="1" stop-color="#FFC870"/>
</linearGradient>
</defs>
</svg>
