<svg width="121" height="91" viewBox="0 0 121 91" fill="none" xmlns="http://www.w3.org/2000/svg">
<g filter="url(#filter0_d_295_891)">
<path d="M30.2369 38.0527C35.2677 38.0527 39.354 42.1523 39.3541 47.1895V65.7373C39.354 70.4101 35.6315 74.1562 31.0133 74.1562C29.9349 74.1562 28.9395 73.9604 28.0143 73.6123V78.4805C28.0143 78.9881 28.4447 79.455 29.0436 79.4551C29.5633 79.4551 30.0133 79.0074 30.0133 78.4805V74.6689H39.3541V77.6436C39.3541 80.0517 38.4201 82.4116 36.6608 84.1074L36.6598 84.1064C34.97 85.8519 32.6285 86.7803 30.2369 86.7803H27.8502C22.8195 86.7803 18.7332 82.6807 18.733 77.6436V47.1875L18.7438 46.7373C18.8528 44.4876 19.777 42.3146 21.4264 40.7246L21.5065 40.6465C21.6027 40.5497 21.7002 40.4549 21.8004 40.3633L23.1207 39.0918V39.3711C24.5367 38.5052 26.1814 38.0527 27.8502 38.0527H30.2369ZM29.0436 45.3779C28.4449 45.378 28.0145 45.8441 28.0143 46.3516V65.8564C28.0143 66.364 28.4447 66.831 29.0436 66.8311C29.5633 66.8311 30.0133 66.3834 30.0133 65.8564V46.3516C30.0132 46.0824 29.937 45.8511 29.7653 45.6279C29.542 45.4543 29.3116 45.3779 29.0436 45.3779Z" fill="url(#paint0_linear_295_891)" stroke="#382C28" stroke-width="2"/>
<path d="M51.0225 31.74C56.0532 31.74 60.1395 35.8396 60.1396 40.8767V79.8708H52.0645L51.9375 79.4392C50.7361 80.0991 49.3482 80.4695 47.8594 80.4695C43.2464 80.4694 39.5186 76.7284 39.5186 72.1101V52.7849C39.5186 48.112 43.2411 44.3661 47.8594 44.366C48.9156 44.366 49.8971 44.5524 50.7988 44.8914V40.0408C50.7988 39.77 50.7217 39.5376 50.5479 39.3132C50.3255 39.1412 50.096 39.0652 49.8291 39.0652C49.3096 39.0652 48.8596 39.5121 48.8594 40.0388V43.8513H39.5186V40.8767C39.5186 38.6192 40.3394 36.4044 41.8916 34.739L42.2119 34.4128C43.9017 32.6674 46.2442 31.74 48.6357 31.74H51.0225ZM49.8291 51.6892C49.3094 51.6892 48.8594 52.1369 48.8594 52.6638V72.1677C48.8594 72.4375 48.936 72.6697 49.1084 72.8933C49.3313 73.0663 49.5615 73.1423 49.8291 73.1423C50.3488 73.1423 50.7988 72.6947 50.7988 72.1677V52.6638C50.7988 52.1368 50.3488 51.6892 49.8291 51.6892Z" fill="url(#paint1_linear_295_891)" stroke="#382C28" stroke-width="2"/>
<path d="M2 4.07959C11.0543 4.07959 18.3984 11.4474 18.3984 20.5161V76.4224H17.3984C8.34605 76.4224 1 69.0564 1 59.9858V4.07959H2Z" fill="url(#paint2_linear_295_891)" stroke="#382C28" stroke-width="2"/>
<path d="M94.8947 22.9155V77.645C94.8946 82.6917 90.7392 86.7817 85.7179 86.7817H81.2423C76.155 86.7817 72.0637 82.6871 72.0636 77.645V28.6606H73.0636C75.5968 28.6606 77.8931 29.6909 79.5529 31.356L79.8575 31.6753C81.3398 33.3072 82.2423 35.479 82.2423 37.8579V77.645C82.2424 78.1911 82.7112 78.6792 83.2716 78.6792H83.6886C84.249 78.6792 84.7178 78.1911 84.7179 77.645V32.1118C84.718 29.5743 85.7451 27.2734 87.4044 25.6099C89.064 23.9462 91.359 22.9156 93.8947 22.9155H94.8947Z" fill="url(#paint3_linear_295_891)" stroke="#382C28" stroke-width="2"/>
<path d="M119.658 1V48.4297C119.658 51.3406 118.901 54.0802 117.571 56.4551L117.572 56.4561C115.648 59.9009 112.518 62.5813 108.753 63.9219L108.752 63.9209C107.698 64.2981 106.594 64.568 105.453 64.7207V83.8584H96.1124V15.8623H102.337C102.707 11.9528 104.444 8.4402 107.062 5.81641C110.029 2.84201 114.128 1 118.658 1H119.658ZM108.154 15.2695C107.771 15.6498 107.387 16.2178 107.034 16.9697L106.885 17.3037C106.139 19.0537 105.641 21.5069 105.599 24.2754V24.2861C105.596 24.4065 105.596 24.5312 105.596 24.6689V56.1973C106.393 55.4809 107.186 53.9789 107.701 51.8213V51.8203C108.061 50.3194 108.269 48.5692 108.269 46.6963V46.2832L108.271 46.2803V15.1621C108.233 15.1961 108.193 15.231 108.154 15.2695Z" fill="url(#paint4_linear_295_891)" stroke="#382C28" stroke-width="2"/>
<path d="M100.651 4.07959V5.07959C100.651 12.7756 94.4269 19.0188 86.7438 19.019H70.2438V19.5933H84.4381V20.5933C84.4381 25.2152 80.6992 28.9663 76.0826 28.9663H70.2438V47.2856H70.318V62.4409C70.318 62.736 70.3009 63.0308 70.2692 63.3198C70.2591 63.4166 70.2475 63.5107 70.234 63.604L70.235 63.605C70.0315 65.0811 69.4436 66.4314 68.5768 67.5562V67.5571C68.3581 67.8401 68.1205 68.1085 67.8698 68.3599C66.3608 69.8745 64.2699 70.814 61.9625 70.814H60.9625V18.019L60.9674 17.6587C61.0582 14.0724 62.5003 10.8218 64.8024 8.40283L65.0358 8.16357C67.2265 5.96575 70.1481 4.49641 73.4078 4.15674V4.15771C73.8877 4.10667 74.3768 4.0796 74.8698 4.07959H100.651Z" fill="url(#paint5_linear_295_891)" stroke="#382C28" stroke-width="2"/>
</g>
<defs>
<filter id="filter0_d_295_891" x="0" y="0" width="120.658" height="90.7817" filterUnits="userSpaceOnUse" color-interpolation-filters="sRGB">
<feFlood flood-opacity="0" result="BackgroundImageFix"/>
<feColorMatrix in="SourceAlpha" type="matrix" values="0 0 0 0 0 0 0 0 0 0 0 0 0 0 0 0 0 0 127 0" result="hardAlpha"/>
<feOffset dy="3"/>
<feComposite in2="hardAlpha" operator="out"/>
<feColorMatrix type="matrix" values="0 0 0 0 0.219608 0 0 0 0 0.172549 0 0 0 0 0.156863 0 0 0 1 0"/>
<feBlend mode="normal" in2="BackgroundImageFix" result="effect1_dropShadow_295_891"/>
<feBlend mode="normal" in="SourceGraphic" in2="effect1_dropShadow_295_891" result="shape"/>
</filter>
<linearGradient id="paint0_linear_295_891" x1="29.0436" y1="39.0527" x2="29.0436" y2="85.7802" gradientUnits="userSpaceOnUse">
<stop stop-color="#7CB5A9"/>
<stop offset="1" stop-color="#ABD590"/>
</linearGradient>
<linearGradient id="paint1_linear_295_891" x1="49.8292" y1="32.74" x2="49.8292" y2="79.4692" gradientUnits="userSpaceOnUse">
<stop stop-color="#7CB5A9"/>
<stop offset="1" stop-color="#ABD590"/>
</linearGradient>
<linearGradient id="paint2_linear_295_891" x1="9.69915" y1="5.07959" x2="9.69915" y2="75.4224" gradientUnits="userSpaceOnUse">
<stop stop-color="#7CB5A9"/>
<stop offset="1" stop-color="#ABD590"/>
</linearGradient>
<linearGradient id="paint3_linear_295_891" x1="83.4792" y1="23.9155" x2="83.4792" y2="85.7818" gradientUnits="userSpaceOnUse">
<stop stop-color="#7CB5A9"/>
<stop offset="1" stop-color="#ABD590"/>
</linearGradient>
<linearGradient id="paint4_linear_295_891" x1="107.885" y1="2" x2="107.885" y2="82.8589" gradientUnits="userSpaceOnUse">
<stop stop-color="#7CB5A9"/>
<stop offset="1" stop-color="#ABD590"/>
</linearGradient>
<linearGradient id="paint5_linear_295_891" x1="80.8067" y1="5.07959" x2="80.8067" y2="69.8142" gradientUnits="userSpaceOnUse">
<stop stop-color="#7CB5A9"/>
<stop offset="1" stop-color="#ABD590"/>
</linearGradient>
</defs>
</svg>
