<svg width="24" height="26" viewBox="0 0 24 26" fill="none" xmlns="http://www.w3.org/2000/svg">
<g filter="url(#filter0_d_561_1381)">
<circle cx="12" cy="12" r="11" fill="#5C4D49" stroke="#382C28" stroke-width="2"/>
<circle cx="12" cy="11.9999" r="7.82609" fill="#FFECBF"/>
</g>
<g filter="url(#filter1_d_561_1381)">
<mask id="path-3-outside-1_561_1381" maskUnits="userSpaceOnUse" x="9" y="4" width="6" height="15" fill="black">
<rect fill="white" x="9" y="4" width="6" height="15"/>
<path d="M10.9075 16.84C10.8435 15.64 10.6515 11.464 10.6515 10.04C10.6515 9.512 10.8595 9.064 11.9955 9.064C13.0355 9.064 13.3395 9.464 13.3395 10.056C13.3555 11.736 13.2595 15 13.1955 16.792C13.1635 17.544 12.9395 17.864 12.2195 17.896C11.4035 17.944 10.9875 17.496 10.9075 16.84ZM11.9955 8.248C11.1475 8.248 10.4595 7.528 10.4595 6.616C10.4595 5.704 11.1315 5 11.9955 5C12.8595 5 13.5475 5.72 13.5475 6.616C13.5475 7.528 12.8595 8.248 11.9955 8.248Z"/>
</mask>
<path d="M10.9075 16.84C10.8435 15.64 10.6515 11.464 10.6515 10.04C10.6515 9.512 10.8595 9.064 11.9955 9.064C13.0355 9.064 13.3395 9.464 13.3395 10.056C13.3555 11.736 13.2595 15 13.1955 16.792C13.1635 17.544 12.9395 17.864 12.2195 17.896C11.4035 17.944 10.9875 17.496 10.9075 16.84ZM11.9955 8.248C11.1475 8.248 10.4595 7.528 10.4595 6.616C10.4595 5.704 11.1315 5 11.9955 5C12.8595 5 13.5475 5.72 13.5475 6.616C13.5475 7.528 12.8595 8.248 11.9955 8.248Z" fill="url(#paint0_linear_561_1381)"/>
<path d="M10.9075 16.84L9.90892 16.8933L9.91073 16.9273L9.91485 16.9611L10.9075 16.84ZM13.3395 10.056H12.3395L12.3395 10.0655L13.3395 10.056ZM13.1955 16.792L14.1946 16.8345L14.1949 16.8277L13.1955 16.792ZM12.2195 17.896L12.1751 16.897L12.1679 16.8973L12.1608 16.8977L12.2195 17.896ZM10.9075 16.84L11.9061 16.7867C11.8418 15.5806 11.6515 11.4324 11.6515 10.04H10.6515H9.6515C9.6515 11.4956 9.84525 15.6994 9.90892 16.8933L10.9075 16.84ZM10.6515 10.04H11.6515C11.6515 9.96757 11.6595 9.9529 11.6541 9.9699C11.6451 9.9979 11.62 10.0482 11.5736 10.0908C11.5315 10.1294 11.5145 10.1224 11.5762 10.1051C11.6423 10.0866 11.7722 10.064 11.9955 10.064V9.064V8.064C11.3346 8.064 10.69 8.18726 10.2214 8.61716C9.72271 9.07475 9.6515 9.66513 9.6515 10.04H10.6515ZM11.9955 9.064V10.064C12.1957 10.064 12.3183 10.0837 12.3858 10.1018C12.4503 10.119 12.4445 10.1292 12.4122 10.1019C12.3747 10.0702 12.3491 10.0286 12.3381 9.99875C12.3304 9.97809 12.3395 9.98946 12.3395 10.056H13.3395H14.3395C14.3395 9.5928 14.2156 9.00717 13.7028 8.57405C13.2314 8.17591 12.6097 8.064 11.9955 8.064V9.064ZM13.3395 10.056L12.3395 10.0655C12.3553 11.7194 12.2602 14.9613 12.1961 16.7563L13.1955 16.792L14.1949 16.8277C14.2588 15.0387 14.3557 11.7526 14.3395 10.0465L13.3395 10.056ZM13.1955 16.792L12.1964 16.7495C12.1934 16.8209 12.1884 16.8782 12.1824 16.924C12.1764 16.9699 12.1699 16.9996 12.1653 17.0168C12.1561 17.051 12.1587 17.0196 12.2008 16.9696C12.2215 16.945 12.2456 16.9235 12.2703 16.9065C12.2944 16.8899 12.3125 16.8823 12.3187 16.88C12.3262 16.8771 12.2897 16.8919 12.1751 16.897L12.2195 17.896L12.2639 18.895C12.7463 18.8736 13.3193 18.746 13.7302 18.2584C14.1051 17.8135 14.1767 17.2559 14.1946 16.8345L13.1955 16.792ZM12.2195 17.896L12.1608 16.8977C12.052 16.9041 11.9903 16.892 11.9632 16.884C11.9388 16.8768 11.9375 16.872 11.944 16.8777C11.962 16.8934 11.9189 16.8723 11.9001 16.7189L10.9075 16.84L9.91485 16.9611C9.97615 17.4637 10.181 17.9946 10.631 18.3863C11.0887 18.7847 11.6744 18.9298 12.2782 18.8943L12.2195 17.896ZM11.9955 8.248V7.248C11.7518 7.248 11.4595 7.02918 11.4595 6.616H10.4595H9.4595C9.4595 8.02682 10.5432 9.248 11.9955 9.248V8.248ZM10.4595 6.616H11.4595C11.4595 6.20908 11.7298 6 11.9955 6V5V4C10.5332 4 9.4595 5.19892 9.4595 6.616H10.4595ZM11.9955 5V6C12.2681 6 12.5475 6.23232 12.5475 6.616H13.5475H14.5475C14.5475 5.20768 13.4509 4 11.9955 4V5ZM13.5475 6.616H12.5475C12.5475 7.02225 12.2618 7.248 11.9955 7.248V8.248V9.248C13.4572 9.248 14.5475 8.03375 14.5475 6.616H13.5475Z" fill="#281900" mask="url(#path-3-outside-1_561_1381)"/>
</g>
<defs>
<filter id="filter0_d_561_1381" x="0" y="0" width="24" height="26" filterUnits="userSpaceOnUse" color-interpolation-filters="sRGB">
<feFlood flood-opacity="0" result="BackgroundImageFix"/>
<feColorMatrix in="SourceAlpha" type="matrix" values="0 0 0 0 0 0 0 0 0 0 0 0 0 0 0 0 0 0 127 0" result="hardAlpha"/>
<feOffset dy="2"/>
<feComposite in2="hardAlpha" operator="out"/>
<feColorMatrix type="matrix" values="0 0 0 0 0.219608 0 0 0 0 0.172549 0 0 0 0 0.156863 0 0 0 1 0"/>
<feBlend mode="normal" in2="BackgroundImageFix" result="effect1_dropShadow_561_1381"/>
<feBlend mode="normal" in="SourceGraphic" in2="effect1_dropShadow_561_1381" result="shape"/>
</filter>
<filter id="filter1_d_561_1381" x="9.45947" y="4" width="5.08801" height="15.8994" filterUnits="userSpaceOnUse" color-interpolation-filters="sRGB">
<feFlood flood-opacity="0" result="BackgroundImageFix"/>
<feColorMatrix in="SourceAlpha" type="matrix" values="0 0 0 0 0 0 0 0 0 0 0 0 0 0 0 0 0 0 127 0" result="hardAlpha"/>
<feOffset dy="1"/>
<feComposite in2="hardAlpha" operator="out"/>
<feColorMatrix type="matrix" values="0 0 0 0 0.156863 0 0 0 0 0.0980392 0 0 0 0 0 0 0 0 1 0"/>
<feBlend mode="normal" in2="BackgroundImageFix" result="effect1_dropShadow_561_1381"/>
<feBlend mode="normal" in="SourceGraphic" in2="effect1_dropShadow_561_1381" result="shape"/>
</filter>
<linearGradient id="paint0_linear_561_1381" x1="12" y1="1" x2="12" y2="23" gradientUnits="userSpaceOnUse">
<stop stop-color="#FFE8B3"/>
<stop offset="1" stop-color="#FFC870"/>
</linearGradient>
</defs>
</svg>
