<svg width="206" height="189" viewBox="0 0 206 189" fill="none" xmlns="http://www.w3.org/2000/svg">
<g filter="url(#filter0_d_731_656)">
<g filter="url(#filter1_d_731_656)">
<rect x="6" y="2" width="194" height="177" rx="3" fill="#382C28"/>
<rect x="5" y="1" width="196" height="179" rx="4" stroke="#382C28" stroke-width="2"/>
</g>
<path d="M8 137C8 135.343 9.34315 134 11 134H98C99.6569 134 101 135.343 101 137V173C101 174.657 99.6569 176 98 176H11C9.34315 176 8 174.657 8 173V137Z" fill="url(#paint0_linear_731_656)"/>
<path d="M106 137C106 135.343 107.343 134 109 134H196C197.657 134 199 135.343 199 137V173C199 174.657 197.657 176 196 176H109C107.343 176 106 174.657 106 173V137Z" fill="url(#paint1_linear_731_656)"/>
<mask id="path-5-inside-1_731_656" fill="white">
<path d="M8 7C8 5.34314 9.34315 4 11 4H196C197.657 4 199 5.34315 199 7V128C199 129.657 197.657 131 196 131H11C9.34314 131 8 129.657 8 128V7Z"/>
</mask>
<path d="M8 7C8 5.34314 9.34315 4 11 4H196C197.657 4 199 5.34315 199 7V128C199 129.657 197.657 131 196 131H11C9.34314 131 8 129.657 8 128V7Z" fill="url(#paint2_linear_731_656)"/>
<path d="M7 6C7 3.79086 8.79086 2 11 2H196C198.209 2 200 3.79086 200 6L198 7C198 6.44772 197.105 6 196 6H11C9.89543 6 9 6.44772 9 7L7 6ZM200 128C200 130.209 198.209 132 196 132H11C8.79086 132 7 130.209 7 128H9C9 129.105 9.89543 130 11 130H196C197.105 130 198 129.105 198 128H200ZM11 132C8.79086 132 7 130.209 7 128V6C7 3.79086 8.79086 2 11 2V6C9.89543 6 9 6.44772 9 7V128C9 129.105 9.89543 130 11 130V132ZM196 2C198.209 2 200 3.79086 200 6V128C200 130.209 198.209 132 196 132V130C197.105 130 198 129.105 198 128V7C198 6.44772 197.105 6 196 6V2Z" fill="#B29E99" mask="url(#path-5-inside-1_731_656)"/>
<g filter="url(#filter2_d_731_656)">
<mask id="path-7-outside-2_731_656" maskUnits="userSpaceOnUse" x="32" y="145" width="44" height="20" fill="black">
<rect fill="white" x="32" y="145" width="44" height="20"/>
<path d="M37.4962 157.024C39.0642 156.944 40.3922 156.88 41.8802 156.8C42.2802 156.784 42.5682 157.04 42.6162 157.696C42.6642 158.384 42.3442 158.704 41.9442 158.768C40.3282 159.008 37.9442 159.28 35.5762 159.344C34.9522 159.36 34.5362 158.976 34.5042 158.336C34.3922 156.096 34.2802 152.304 34.3282 149.792C34.3442 149.328 34.5042 149.12 34.9842 149.088C37.2082 148.944 39.4482 148.88 41.5762 148.848C41.9602 148.848 42.2322 149.12 42.2642 149.856C42.2962 150.592 42.0562 151.072 41.5922 151.12C40.0722 151.28 38.7602 151.312 37.2082 151.376C37.2082 153.12 37.1762 155.056 37.1762 156.688C37.1762 156.944 37.3042 157.024 37.4962 157.024ZM45.8802 155.28C45.8002 156.944 45.6882 158.608 45.5282 160.224C45.4802 160.688 45.1602 160.976 44.7922 161.104C44.5522 161.184 44.0562 161.168 43.7522 161.056C43.4802 160.96 43.2402 160.704 43.2402 160.288C43.2082 156.576 43.2242 153.312 43.3202 149.44C43.3362 149.008 43.4802 148.736 43.8162 148.592C44.3282 148.368 45.0802 148.384 45.5602 148.608C45.8962 148.768 45.9922 149.008 45.9922 149.424C45.9922 150.608 45.9922 151.808 45.9602 153.008C46.3122 152.992 46.6482 153.008 46.8882 153.024C47.4962 153.088 47.7202 153.44 47.7202 154.096C47.7202 154.88 47.4162 155.136 46.9042 155.216C46.6482 155.264 46.2642 155.28 45.8802 155.28ZM58.9423 156.928C55.8703 157.136 51.2303 157.248 48.0623 157.312C47.5983 157.312 47.5503 156.752 47.5503 156.368C47.5503 155.936 47.5983 155.472 48.0783 155.456C51.4543 155.328 55.8063 155.184 58.9263 155.184C59.3903 155.184 59.4703 155.584 59.4703 156.016C59.4703 156.448 59.3423 156.912 58.9423 156.928ZM57.4703 162.512C55.8543 162.704 51.7263 162.656 50.0143 162.704C49.1983 162.72 48.9423 162.336 48.8783 161.52C48.8143 160.64 48.7503 159.84 48.7343 158.688C48.7343 158.208 49.0063 157.952 49.4063 157.936C50.5423 157.872 56.4463 157.68 57.6783 157.68C58.0143 157.68 58.1903 157.872 58.2063 158.208C58.2383 159.024 58.2223 160.736 58.1583 161.712C58.1263 162.304 57.9183 162.464 57.4703 162.512ZM55.7103 160.608V160.592C55.7103 160.352 55.6943 159.92 55.6783 159.552C54.7823 159.568 52.3183 159.664 51.3743 159.696C51.3903 160.08 51.4383 160.688 51.4543 160.944C52.2863 160.928 54.5743 160.896 55.4063 160.864C55.6303 160.848 55.7103 160.816 55.7103 160.608ZM57.8223 151.232C57.8223 153.312 56.2863 154.88 53.1983 154.88C50.4783 154.88 49.0063 153.392 49.0063 151.488C49.0063 149.6 50.6383 147.792 53.6783 147.792C56.1423 147.792 57.8223 149.232 57.8223 151.232ZM55.1343 151.248C55.1183 150.24 54.4303 149.824 53.4063 149.84C52.3343 149.856 51.6943 150.416 51.6943 151.424C51.6943 152.336 52.3023 152.88 53.4223 152.848C54.5903 152.816 55.1503 152.208 55.1343 151.248ZM69.4569 160.896C68.8009 160.848 68.5449 160.496 68.5289 159.792C68.4649 158.176 68.4329 156.528 68.4169 154.88C68.1609 154.896 67.8729 154.896 67.5689 154.896C67.2329 156.752 65.9529 157.92 63.8569 157.92C61.3289 157.92 60.0649 156.512 60.0649 153.84C60.0649 151.616 61.3449 149.616 64.0809 149.616C66.0809 149.616 67.2009 150.864 67.5529 152.624C67.8569 152.624 68.1609 152.608 68.4009 152.624C68.4009 151.552 68.4169 150.48 68.4329 149.408C68.4329 148.832 68.6889 148.464 69.6169 148.448C70.5449 148.432 70.8649 148.784 70.8649 149.312C70.8809 153.12 70.8969 156.048 70.6729 159.904C70.6249 160.544 70.1609 160.928 69.4569 160.896ZM73.5209 160.192C73.4729 160.816 73.0409 161.216 72.3369 161.168C71.6969 161.12 71.4409 160.784 71.4249 160.08C71.3609 155.952 71.4409 153.296 71.5209 149.328C71.5209 148.784 71.7769 148.416 72.6889 148.416C73.6809 148.416 73.9849 148.832 73.9689 149.328C73.9689 153.136 73.9049 156.32 73.5209 160.192ZM63.8249 155.824C64.7689 155.808 65.2809 154.928 65.2809 153.84C65.2809 152.64 64.7849 151.792 63.9529 151.792C62.9129 151.792 62.4649 152.768 62.4649 153.872C62.4649 155.088 62.9449 155.824 63.8249 155.824Z"/>
</mask>
<path d="M37.4962 157.024C39.0642 156.944 40.3922 156.88 41.8802 156.8C42.2802 156.784 42.5682 157.04 42.6162 157.696C42.6642 158.384 42.3442 158.704 41.9442 158.768C40.3282 159.008 37.9442 159.28 35.5762 159.344C34.9522 159.36 34.5362 158.976 34.5042 158.336C34.3922 156.096 34.2802 152.304 34.3282 149.792C34.3442 149.328 34.5042 149.12 34.9842 149.088C37.2082 148.944 39.4482 148.88 41.5762 148.848C41.9602 148.848 42.2322 149.12 42.2642 149.856C42.2962 150.592 42.0562 151.072 41.5922 151.12C40.0722 151.28 38.7602 151.312 37.2082 151.376C37.2082 153.12 37.1762 155.056 37.1762 156.688C37.1762 156.944 37.3042 157.024 37.4962 157.024ZM45.8802 155.28C45.8002 156.944 45.6882 158.608 45.5282 160.224C45.4802 160.688 45.1602 160.976 44.7922 161.104C44.5522 161.184 44.0562 161.168 43.7522 161.056C43.4802 160.96 43.2402 160.704 43.2402 160.288C43.2082 156.576 43.2242 153.312 43.3202 149.44C43.3362 149.008 43.4802 148.736 43.8162 148.592C44.3282 148.368 45.0802 148.384 45.5602 148.608C45.8962 148.768 45.9922 149.008 45.9922 149.424C45.9922 150.608 45.9922 151.808 45.9602 153.008C46.3122 152.992 46.6482 153.008 46.8882 153.024C47.4962 153.088 47.7202 153.44 47.7202 154.096C47.7202 154.88 47.4162 155.136 46.9042 155.216C46.6482 155.264 46.2642 155.28 45.8802 155.28ZM58.9423 156.928C55.8703 157.136 51.2303 157.248 48.0623 157.312C47.5983 157.312 47.5503 156.752 47.5503 156.368C47.5503 155.936 47.5983 155.472 48.0783 155.456C51.4543 155.328 55.8063 155.184 58.9263 155.184C59.3903 155.184 59.4703 155.584 59.4703 156.016C59.4703 156.448 59.3423 156.912 58.9423 156.928ZM57.4703 162.512C55.8543 162.704 51.7263 162.656 50.0143 162.704C49.1983 162.72 48.9423 162.336 48.8783 161.52C48.8143 160.64 48.7503 159.84 48.7343 158.688C48.7343 158.208 49.0063 157.952 49.4063 157.936C50.5423 157.872 56.4463 157.68 57.6783 157.68C58.0143 157.68 58.1903 157.872 58.2063 158.208C58.2383 159.024 58.2223 160.736 58.1583 161.712C58.1263 162.304 57.9183 162.464 57.4703 162.512ZM55.7103 160.608V160.592C55.7103 160.352 55.6943 159.92 55.6783 159.552C54.7823 159.568 52.3183 159.664 51.3743 159.696C51.3903 160.08 51.4383 160.688 51.4543 160.944C52.2863 160.928 54.5743 160.896 55.4063 160.864C55.6303 160.848 55.7103 160.816 55.7103 160.608ZM57.8223 151.232C57.8223 153.312 56.2863 154.88 53.1983 154.88C50.4783 154.88 49.0063 153.392 49.0063 151.488C49.0063 149.6 50.6383 147.792 53.6783 147.792C56.1423 147.792 57.8223 149.232 57.8223 151.232ZM55.1343 151.248C55.1183 150.24 54.4303 149.824 53.4063 149.84C52.3343 149.856 51.6943 150.416 51.6943 151.424C51.6943 152.336 52.3023 152.88 53.4223 152.848C54.5903 152.816 55.1503 152.208 55.1343 151.248ZM69.4569 160.896C68.8009 160.848 68.5449 160.496 68.5289 159.792C68.4649 158.176 68.4329 156.528 68.4169 154.88C68.1609 154.896 67.8729 154.896 67.5689 154.896C67.2329 156.752 65.9529 157.92 63.8569 157.92C61.3289 157.92 60.0649 156.512 60.0649 153.84C60.0649 151.616 61.3449 149.616 64.0809 149.616C66.0809 149.616 67.2009 150.864 67.5529 152.624C67.8569 152.624 68.1609 152.608 68.4009 152.624C68.4009 151.552 68.4169 150.48 68.4329 149.408C68.4329 148.832 68.6889 148.464 69.6169 148.448C70.5449 148.432 70.8649 148.784 70.8649 149.312C70.8809 153.12 70.8969 156.048 70.6729 159.904C70.6249 160.544 70.1609 160.928 69.4569 160.896ZM73.5209 160.192C73.4729 160.816 73.0409 161.216 72.3369 161.168C71.6969 161.12 71.4409 160.784 71.4249 160.08C71.3609 155.952 71.4409 153.296 71.5209 149.328C71.5209 148.784 71.7769 148.416 72.6889 148.416C73.6809 148.416 73.9849 148.832 73.9689 149.328C73.9689 153.136 73.9049 156.32 73.5209 160.192ZM63.8249 155.824C64.7689 155.808 65.2809 154.928 65.2809 153.84C65.2809 152.64 64.7849 151.792 63.9529 151.792C62.9129 151.792 62.4649 152.768 62.4649 153.872C62.4649 155.088 62.9449 155.824 63.8249 155.824Z" fill="url(#paint3_linear_731_656)"/>
<path d="M37.4962 157.024V159.024H37.5472L37.5981 159.021L37.4962 157.024ZM41.8802 156.8L41.8003 154.802L41.7865 154.802L41.7728 154.803L41.8802 156.8ZM42.6162 157.696L44.6114 157.557L44.6109 157.55L42.6162 157.696ZM41.9442 158.768L42.238 160.746L42.2491 160.745L42.2602 160.743L41.9442 158.768ZM35.5762 159.344L35.6275 161.343L35.6302 161.343L35.5762 159.344ZM34.5042 158.336L36.5017 158.236L36.5017 158.236L34.5042 158.336ZM34.3282 149.792L32.3294 149.723L32.3288 149.738L32.3286 149.754L34.3282 149.792ZM34.9842 149.088L34.855 147.092L34.8511 147.092L34.9842 149.088ZM41.5762 148.848V146.848H41.5612L41.5461 146.848L41.5762 148.848ZM42.2642 149.856L40.2661 149.943L40.2661 149.943L42.2642 149.856ZM41.5922 151.12L41.3864 149.131L41.3828 149.131L41.5922 151.12ZM37.2082 151.376L37.1258 149.378L35.2082 149.457V151.376H37.2082ZM45.8802 155.28V153.28H43.974L43.8825 155.184L45.8802 155.28ZM45.5282 160.224L47.5176 160.43L47.5185 160.421L45.5282 160.224ZM44.7922 161.104L45.4246 163.001L45.437 162.997L45.4492 162.993L44.7922 161.104ZM43.7522 161.056L44.4436 159.179L44.4307 159.175L44.4178 159.17L43.7522 161.056ZM43.2402 160.288H45.2402V160.279L45.2401 160.271L43.2402 160.288ZM43.3202 149.44L41.3216 149.366L41.3211 149.378L41.3208 149.39L43.3202 149.44ZM43.8162 148.592L44.604 150.43L44.6109 150.427L44.6178 150.424L43.8162 148.592ZM45.5602 148.608L46.4201 146.802L46.413 146.799L46.406 146.796L45.5602 148.608ZM45.9602 153.008L43.9609 152.955L43.9036 155.104L46.051 155.006L45.9602 153.008ZM46.8882 153.024L47.0976 151.035L47.0595 151.031L47.0212 151.028L46.8882 153.024ZM46.9042 155.216L46.5954 153.24L46.5654 153.245L46.5356 153.25L46.9042 155.216ZM37.4962 157.024L37.5981 159.021C39.1589 158.942 40.4963 158.877 41.9876 158.797L41.8802 156.8L41.7728 154.803C40.2881 154.883 38.9695 154.946 37.3943 155.027L37.4962 157.024ZM41.8802 156.8L41.9601 158.798C41.8385 158.803 41.6553 158.79 41.4452 158.71C41.2266 158.627 41.0336 158.492 40.8854 158.325C40.6073 158.012 40.6143 157.743 40.6215 157.842L42.6162 157.696L44.6109 157.55C44.5701 156.993 44.4091 156.268 43.875 155.667C43.2772 154.995 42.4822 154.774 41.8003 154.802L41.8802 156.8ZM42.6162 157.696L40.621 157.835C40.6228 157.861 40.6009 157.612 40.8195 157.305C41.052 156.979 41.3823 156.832 41.6282 156.793L41.9442 158.768L42.2602 160.743C42.906 160.64 43.5964 160.301 44.0769 159.627C44.5434 158.972 44.6576 158.219 44.6113 157.557L42.6162 157.696ZM41.9442 158.768L41.6504 156.79C40.0872 157.022 37.7868 157.284 35.5222 157.345L35.5762 159.344L35.6302 161.343C38.1016 161.276 40.5692 160.994 42.238 160.746L41.9442 158.768ZM35.5762 159.344L35.5249 157.345C35.6419 157.342 35.9222 157.38 36.1845 157.625C36.4454 157.87 36.4968 158.139 36.5017 158.236L34.5042 158.336L32.5067 158.436C32.5435 159.173 32.819 159.954 33.4519 160.547C34.0862 161.14 34.8865 161.362 35.6275 161.343L35.5762 159.344ZM34.5042 158.336L36.5017 158.236C36.3908 156.019 36.2811 152.277 36.3278 149.83L34.3282 149.792L32.3286 149.754C32.2793 152.331 32.3936 156.173 32.5067 158.436L34.5042 158.336ZM34.3282 149.792L36.327 149.861C36.3299 149.776 36.3452 150.195 35.9727 150.612C35.7806 150.826 35.5628 150.951 35.388 151.017C35.2304 151.077 35.1227 151.083 35.1172 151.084L34.9842 149.088L34.8511 147.092C34.3856 147.123 33.5997 147.265 32.9917 147.944C32.4152 148.589 32.3425 149.344 32.3294 149.723L34.3282 149.792ZM34.9842 149.088L35.1134 151.084C37.2915 150.943 39.4952 150.88 41.6063 150.848L41.5762 148.848L41.5461 146.848C39.4011 146.88 37.1249 146.945 34.855 147.092L34.9842 149.088ZM41.5762 148.848V150.848C41.4354 150.848 41.2291 150.822 41.0016 150.717C40.7662 150.608 40.5807 150.447 40.4522 150.276C40.2248 149.973 40.2579 149.756 40.2661 149.943L42.2642 149.856L44.2623 149.769C44.2384 149.22 44.1196 148.499 43.6522 147.876C43.1017 147.142 42.3042 146.848 41.5762 146.848V148.848ZM42.2642 149.856L40.2661 149.943C40.2736 150.115 40.233 150.027 40.3419 149.819C40.4042 149.7 40.5218 149.533 40.7236 149.386C40.9325 149.235 41.1674 149.153 41.3864 149.131L41.5922 151.12L41.798 153.109C42.7886 153.007 43.5067 152.399 43.8865 151.673C44.2234 151.029 44.2868 150.333 44.2623 149.769L42.2642 149.856ZM41.5922 151.12L41.3828 149.131C39.9437 149.282 38.7167 149.312 37.1258 149.378L37.2082 151.376L37.2906 153.374C38.8037 153.312 40.2007 153.278 41.8016 153.109L41.5922 151.12ZM37.2082 151.376H35.2082C35.2082 152.238 35.2003 153.149 35.1923 154.056C35.1843 154.96 35.1762 155.861 35.1762 156.688H37.1762H39.1762C39.1762 155.883 39.1841 155 39.1921 154.092C39.2001 153.187 39.2082 152.258 39.2082 151.376H37.2082ZM37.1762 156.688H35.1762C35.1762 157.121 35.2865 157.845 35.9033 158.418C36.4921 158.964 37.1734 159.024 37.4962 159.024V157.024V155.024C37.6269 155.024 38.1482 155.044 38.6251 155.486C39.1299 155.955 39.1762 156.511 39.1762 156.688H37.1762ZM45.8802 155.28L43.8825 155.184C43.8037 156.823 43.6938 158.453 43.5379 160.027L45.5282 160.224L47.5185 160.421C47.6826 158.763 47.7967 157.065 47.8779 155.376L45.8802 155.28ZM45.5282 160.224L43.5388 160.018C43.5598 159.815 43.6523 159.608 43.7966 159.449C43.9264 159.305 44.0579 159.242 44.1351 159.215L44.7922 161.104L45.4492 162.993C46.3449 162.681 47.3695 161.861 47.5176 160.43L45.5282 160.224ZM44.7922 161.104L44.1597 159.207C44.2335 159.182 44.2898 159.17 44.3205 159.164C44.353 159.158 44.3747 159.156 44.3838 159.155C44.4001 159.153 44.3974 159.154 44.3794 159.154C44.3721 159.153 44.3648 159.153 44.3582 159.152C44.3516 159.152 44.3482 159.151 44.3483 159.151C44.3485 159.151 44.3502 159.151 44.3533 159.152C44.3564 159.153 44.3616 159.154 44.3686 159.156C44.3816 159.159 44.4075 159.166 44.4436 159.179L43.7522 161.056L43.0608 162.933C43.4703 163.084 43.892 163.137 44.2129 163.15C44.5068 163.163 44.9703 163.153 45.4246 163.001L44.7922 161.104ZM43.7522 161.056L44.4178 159.17C44.6298 159.245 44.8438 159.387 45.0062 159.608C45.1781 159.842 45.2402 160.094 45.2402 160.288H43.2402H41.2402C41.2402 161.609 42.07 162.583 43.0865 162.942L43.7522 161.056ZM43.2402 160.288L45.2401 160.271C45.2083 156.577 45.2242 153.336 45.3196 149.49L43.3202 149.44L41.3208 149.39C41.2242 153.288 41.2081 156.575 41.2403 160.305L43.2402 160.288ZM43.3202 149.44L45.3188 149.514C45.3199 149.486 45.3207 149.662 45.1847 149.9C45.0249 150.18 44.7891 150.351 44.604 150.43L43.8162 148.592L43.0283 146.754C42.5073 146.977 42.0315 147.356 41.7117 147.916C41.4157 148.434 41.3365 148.962 41.3216 149.366L43.3202 149.44ZM43.8162 148.592L44.6178 150.424C44.5961 150.434 44.5824 150.438 44.5784 150.439C44.5743 150.44 44.5764 150.44 44.5851 150.438C44.6042 150.435 44.6357 150.431 44.6745 150.432C44.7135 150.432 44.7441 150.436 44.7611 150.44C44.7688 150.441 44.7693 150.442 44.7631 150.44C44.7571 150.438 44.7402 150.432 44.7144 150.42L45.5602 148.608L46.406 146.796C45.85 146.536 45.2482 146.439 44.7258 146.432C44.2012 146.425 43.59 146.508 43.0146 146.76L43.8162 148.592ZM45.5602 148.608L44.7003 150.414C44.6433 150.387 44.537 150.328 44.4189 150.22C44.2948 150.106 44.1897 149.967 44.1133 149.814C43.9738 149.535 43.9922 149.332 43.9922 149.424H45.9922H47.9922C47.9922 149.1 47.9626 148.569 47.691 148.026C47.3844 147.412 46.8986 147.03 46.4201 146.802L45.5602 148.608ZM45.9922 149.424H43.9922C43.9922 150.612 43.9921 151.786 43.9609 152.955L45.9602 153.008L47.9595 153.061C47.9923 151.83 47.9922 150.604 47.9922 149.424H45.9922ZM45.9602 153.008L46.051 155.006C46.2942 154.995 46.5452 155.006 46.7552 155.02L46.8882 153.024L47.0212 151.028C46.7512 151.01 46.3301 150.989 45.8694 151.01L45.9602 153.008ZM46.8882 153.024L46.6788 155.013C46.6591 155.011 46.5474 154.997 46.3938 154.922C46.2265 154.84 46.0582 154.708 45.9257 154.529C45.6822 154.201 45.7202 153.938 45.7202 154.096H47.7202H49.7202C49.7202 153.598 49.6462 152.831 49.1387 152.147C48.5722 151.383 47.764 151.105 47.0976 151.035L46.8882 153.024ZM47.7202 154.096H45.7202C45.7202 154.274 45.6781 153.995 45.9531 153.657C46.0925 153.486 46.2553 153.374 46.3931 153.309C46.457 153.279 46.5092 153.262 46.5426 153.252C46.5758 153.243 46.5951 153.24 46.5954 153.24L46.9042 155.216L47.2129 157.192C47.7087 157.115 48.4748 156.896 49.0553 156.183C49.6102 155.501 49.7202 154.702 49.7202 154.096H47.7202ZM46.9042 155.216L46.5356 153.25C46.5376 153.25 46.5205 153.253 46.4798 153.257C46.4407 153.261 46.3898 153.266 46.3267 153.269C46.1994 153.276 46.0471 153.28 45.8802 153.28V155.28V157.28C46.2731 157.28 46.819 157.267 47.2728 157.182L46.9042 155.216ZM58.9423 156.928L58.8624 154.93L58.8348 154.931L58.8072 154.933L58.9423 156.928ZM48.0623 157.312V159.312H48.0825L48.1027 159.312L48.0623 157.312ZM48.0783 155.456L48.1449 157.455L48.1541 157.455L48.0783 155.456ZM57.4703 162.512L57.2572 160.523L57.2458 160.525L57.2343 160.526L57.4703 162.512ZM50.0143 162.704L50.0535 164.704L50.0619 164.703L50.0704 164.703L50.0143 162.704ZM48.8783 161.52L46.8835 161.665L46.8844 161.676L48.8783 161.52ZM48.7343 158.688H46.7343V158.702L46.7345 158.716L48.7343 158.688ZM49.4063 157.936L49.4862 159.934L49.5025 159.934L49.5188 159.933L49.4063 157.936ZM58.2063 158.208L60.2048 158.13L60.2044 158.121L60.2041 158.113L58.2063 158.208ZM58.1583 161.712L56.1626 161.581L56.1618 161.593L56.1612 161.604L58.1583 161.712ZM55.6783 159.552L57.6764 159.465L57.5917 157.518L55.6426 157.552L55.6783 159.552ZM51.3743 159.696L51.3066 157.697L49.2921 157.765L49.376 159.779L51.3743 159.696ZM51.4543 160.944L49.4582 161.069L49.5777 162.98L51.4928 162.944L51.4543 160.944ZM55.4063 160.864L55.4832 162.863L55.516 162.861L55.5488 162.859L55.4063 160.864ZM55.1343 151.248L53.1346 151.28L53.1346 151.281L55.1343 151.248ZM53.4063 149.84L53.4362 151.84L53.4376 151.84L53.4063 149.84ZM53.4223 152.848L53.3675 150.849L53.3652 150.849L53.4223 152.848ZM58.9423 156.928L58.8072 154.933C55.7905 155.137 51.1982 155.248 48.0219 155.312L48.0623 157.312L48.1027 159.312C51.2624 159.248 55.9501 159.135 59.0774 158.923L58.9423 156.928ZM48.0623 157.312V155.312C48.3844 155.312 48.7576 155.423 49.0718 155.686C49.3502 155.92 49.4652 156.175 49.5066 156.286C49.5296 156.348 49.5409 156.395 49.5462 156.419C49.549 156.433 49.5507 156.442 49.5516 156.448C49.5526 156.455 49.553 156.458 49.553 156.458C49.553 156.458 49.5528 156.457 49.5525 156.452C49.5522 156.448 49.5518 156.442 49.5515 156.434C49.5508 156.417 49.5503 156.396 49.5503 156.368H47.5503H45.5503C45.5503 156.578 45.5526 157.13 45.758 157.682C45.8694 157.981 46.0834 158.4 46.5013 158.751C46.955 159.131 47.5082 159.312 48.0623 159.312V157.312ZM47.5503 156.368H49.5503C49.5503 156.289 49.5531 156.267 49.5523 156.274C49.5521 156.275 49.542 156.378 49.4792 156.528C49.4112 156.691 49.2636 156.948 48.9717 157.161C48.6697 157.381 48.3587 157.448 48.1449 157.455L48.0783 155.456L48.0117 153.457C47.5579 153.472 47.0609 153.603 46.615 153.928C46.179 154.246 45.9294 154.649 45.7894 154.984C45.5454 155.567 45.5503 156.162 45.5503 156.368H47.5503ZM48.0783 155.456L48.1541 157.455C51.5322 157.326 55.849 157.184 58.9263 157.184V155.184V153.184C55.7636 153.184 51.3764 153.33 48.0025 153.457L48.0783 155.456ZM58.9263 155.184V157.184C58.7498 157.184 58.4659 157.143 58.1677 156.962C57.867 156.779 57.6858 156.535 57.5881 156.342C57.4992 156.166 57.4774 156.032 57.4727 156.001C57.4672 155.964 57.4703 155.962 57.4703 156.016H59.4703H61.4703C61.4703 155.762 61.4631 155.14 61.1565 154.534C60.9808 154.187 60.6926 153.816 60.2464 153.545C59.8027 153.275 59.3349 153.184 58.9263 153.184V155.184ZM59.4703 156.016H57.4703C57.4703 156.084 57.4529 155.973 57.551 155.767C57.6078 155.648 57.7316 155.441 57.9741 155.254C58.2379 155.051 58.5541 154.942 58.8624 154.93L58.9423 156.928L59.0223 158.926C60.1765 158.88 60.8635 158.114 61.1616 157.489C61.4237 156.939 61.4703 156.38 61.4703 156.016H59.4703ZM57.4703 162.512L57.2343 160.526C56.5524 160.607 55.2299 160.644 53.7535 160.662C52.353 160.68 50.8318 160.68 49.9583 160.705L50.0143 162.704L50.0704 164.703C50.9089 164.68 52.3077 164.68 53.8032 164.662C55.2227 164.644 56.7723 164.609 57.7063 164.498L57.4703 162.512ZM50.0143 162.704L49.9751 160.704C49.9185 160.705 49.9917 160.696 50.133 160.743C50.298 160.798 50.4948 160.91 50.66 161.096C50.8128 161.268 50.8676 161.424 50.8816 161.47C50.8934 161.509 50.882 161.488 50.8722 161.364L48.8783 161.52L46.8844 161.676C46.9233 162.171 47.0378 163.041 47.6687 163.752C48.3916 164.566 49.3547 164.717 50.0535 164.704L50.0143 162.704ZM48.8783 161.52L50.873 161.375C50.8085 160.488 50.7492 159.745 50.7341 158.66L48.7343 158.688L46.7345 158.716C46.7514 159.935 46.8201 160.792 46.8836 161.665L48.8783 161.52ZM48.7343 158.688H50.7343C50.7343 158.825 50.6891 159.175 50.3801 159.505C50.0684 159.838 49.6982 159.926 49.4862 159.934L49.4063 157.936L49.3264 155.938C48.7144 155.962 48.0083 156.186 47.4605 156.771C46.9155 157.353 46.7343 158.071 46.7343 158.688H48.7343ZM49.4063 157.936L49.5188 159.933C50.6271 159.87 56.4925 159.68 57.6783 159.68V157.68V155.68C56.4001 155.68 50.4575 155.874 49.2938 155.939L49.4063 157.936ZM57.6783 157.68V159.68C57.4608 159.68 57.0154 159.608 56.6323 159.216C56.2704 158.846 56.2153 158.445 56.2086 158.303L58.2063 158.208L60.2041 158.113C60.1813 157.635 60.0302 156.97 59.4923 156.42C58.9332 155.848 58.2318 155.68 57.6783 155.68V157.68ZM58.2063 158.208L56.2079 158.286C56.2372 159.035 56.2219 160.677 56.1626 161.581L58.1583 161.712L60.154 161.843C60.2227 160.795 60.2394 159.013 60.2048 158.13L58.2063 158.208ZM58.1583 161.712L56.1612 161.604C56.1534 161.75 56.1347 161.352 56.5082 160.951C56.9 160.532 57.3449 160.514 57.2572 160.523L57.4703 162.512L57.6834 164.501C58.0437 164.462 58.8166 164.34 59.4324 163.681C60.0299 163.04 60.1313 162.266 60.1554 161.82L58.1583 161.712ZM55.7103 160.608H57.7103V160.592H55.7103H53.7103V160.608H55.7103ZM55.7103 160.592H57.7103C57.7103 160.301 57.6921 159.826 57.6764 159.465L55.6783 159.552L53.6802 159.639C53.6965 160.014 53.7103 160.403 53.7103 160.592H55.7103ZM55.6783 159.552L55.6426 157.552C54.7256 157.569 52.2205 157.666 51.3066 157.697L51.3743 159.696L51.4421 161.695C52.4162 161.662 54.839 161.567 55.714 161.552L55.6783 159.552ZM51.3743 159.696L49.376 159.779C49.393 160.186 49.4464 160.88 49.4582 161.069L51.4543 160.944L53.4504 160.819C53.4302 160.496 53.3876 159.974 53.3726 159.613L51.3743 159.696ZM51.4543 160.944L51.4928 162.944C52.2921 162.928 54.6258 162.895 55.4832 162.863L55.4063 160.864L55.3294 158.865C54.5228 158.897 52.2805 158.928 51.4159 158.944L51.4543 160.944ZM55.4063 160.864L55.5488 162.859C55.6238 162.854 55.7888 162.841 55.9742 162.801C56.161 162.76 56.5004 162.664 56.8423 162.408C57.6755 161.783 57.7103 160.877 57.7103 160.608H55.7103H53.7103C53.7103 160.547 53.7052 159.761 54.4423 159.208C54.7362 158.988 55.0136 158.916 55.1224 158.892C55.2298 158.869 55.3008 158.866 55.2638 158.869L55.4063 160.864ZM57.8223 151.232H55.8223C55.8223 151.749 55.6495 152.078 55.3759 152.31C55.0686 152.57 54.4217 152.88 53.1983 152.88V154.88V156.88C55.0629 156.88 56.728 156.406 57.9607 155.362C59.2271 154.29 59.8223 152.795 59.8223 151.232H57.8223ZM53.1983 154.88V152.88C52.1938 152.88 51.6489 152.608 51.3878 152.383C51.1484 152.177 51.0063 151.895 51.0063 151.488H49.0063H47.0063C47.0063 152.985 47.6003 154.399 48.7769 155.413C49.9317 156.408 51.4828 156.88 53.1983 156.88V154.88ZM49.0063 151.488H51.0063C51.0063 151.137 51.1528 150.757 51.5177 150.439C51.8823 150.12 52.5574 149.792 53.6783 149.792V147.792V145.792C49.7973 145.792 47.0063 148.249 47.0063 151.488H49.0063ZM53.6783 147.792V149.792C54.5295 149.792 55.0846 150.039 55.3898 150.295C55.672 150.531 55.8223 150.834 55.8223 151.232H57.8223H59.8223C59.8223 149.63 59.1327 148.213 57.9588 147.229C56.808 146.265 55.2911 145.792 53.6783 145.792V147.792ZM55.1343 151.248L57.1341 151.216C57.1183 150.22 56.7382 149.232 55.8534 148.564C55.0559 147.962 54.1183 147.829 53.3751 147.84L53.4063 149.84L53.4376 151.84C53.4967 151.839 53.5414 151.841 53.5727 151.844C53.6042 151.848 53.6184 151.851 53.6183 151.851C53.618 151.851 53.5999 151.846 53.569 151.832C53.5376 151.818 53.4935 151.794 53.4432 151.756C53.3331 151.673 53.2404 151.558 53.1835 151.434C53.1307 151.319 53.1341 151.252 53.1346 151.28L55.1343 151.248ZM53.4063 149.84L53.3765 147.84C52.518 147.853 51.5618 148.088 50.801 148.782C50.009 149.504 49.6943 150.479 49.6943 151.424H51.6943H53.6943C53.6943 151.383 53.7008 151.413 53.6715 151.488C53.6397 151.568 53.5812 151.66 53.4957 151.738C53.3228 151.896 53.2227 151.843 53.4362 151.84L53.4063 149.84ZM51.6943 151.424H49.6943C49.6943 152.346 50.0196 153.32 50.8497 154.02C51.6376 154.683 52.6122 154.872 53.4794 154.847L53.4223 152.848L53.3652 150.849C53.1124 150.856 53.2231 150.789 53.4269 150.96C53.5302 151.047 53.6076 151.158 53.6529 151.266C53.6953 151.368 53.6943 151.431 53.6943 151.424H51.6943ZM53.4223 152.848L53.4771 154.847C54.3791 154.823 55.3595 154.566 56.1162 153.83C56.8934 153.075 57.1487 152.094 57.134 151.215L55.1343 151.248L53.1346 151.281C53.1353 151.326 53.1281 151.3 53.1536 151.228C53.1817 151.149 53.2379 151.05 53.3284 150.962C53.5171 150.778 53.6336 150.841 53.3675 150.849L53.4223 152.848ZM69.4569 160.896L69.311 162.891L69.3385 162.893L69.3661 162.894L69.4569 160.896ZM68.5289 159.792L70.5284 159.747L70.528 159.73L70.5274 159.713L68.5289 159.792ZM68.4169 154.88L70.4168 154.861L70.3964 152.752L68.2922 152.884L68.4169 154.88ZM67.5689 154.896V152.896H65.8985L65.6009 154.54L67.5689 154.896ZM67.5529 152.624L65.5918 153.016L65.9133 154.624H67.5529V152.624ZM68.4009 152.624L68.2679 154.62L70.4009 154.762V152.624H68.4009ZM68.4329 149.408L70.4327 149.438L70.4329 149.423V149.408H68.4329ZM69.6169 148.448L69.5825 146.448L69.5825 146.448L69.6169 148.448ZM70.8649 149.312L68.8649 149.312L68.865 149.32L70.8649 149.312ZM70.6729 159.904L72.6673 160.054L72.6686 160.037L72.6696 160.02L70.6729 159.904ZM73.5209 160.192L71.5307 159.995L71.5285 160.017L71.5268 160.039L73.5209 160.192ZM72.3369 161.168L72.1874 163.162L72.2009 163.163L72.3369 161.168ZM71.4249 160.08L69.4252 160.111L69.4253 160.118L69.4255 160.125L71.4249 160.08ZM71.5209 149.328L73.5205 149.368L73.5209 149.348V149.328H71.5209ZM73.9689 149.328L71.97 149.264L71.9689 149.296V149.328H73.9689ZM63.8249 155.824V157.824H63.8419L63.8588 157.824L63.8249 155.824ZM69.4569 160.896L69.6029 158.901C69.6063 158.902 69.9877 158.938 70.3046 159.328C70.5682 159.652 70.5324 159.921 70.5284 159.747L68.5289 159.792L66.5295 159.837C66.5415 160.367 66.6416 161.164 67.2012 161.852C67.8142 162.606 68.6516 162.842 69.311 162.891L69.4569 160.896ZM68.5289 159.792L70.5274 159.713C70.4644 158.123 70.4327 156.497 70.4168 154.861L68.4169 154.88L66.417 154.899C66.4332 156.559 66.4655 158.229 66.5305 159.871L68.5289 159.792ZM68.4169 154.88L68.2922 152.884C68.1108 152.895 67.8895 152.896 67.5689 152.896V154.896V156.896C67.8563 156.896 68.2111 156.897 68.5417 156.876L68.4169 154.88ZM67.5689 154.896L65.6009 154.54C65.4999 155.098 65.2895 155.402 65.0868 155.572C64.887 155.74 64.5253 155.92 63.8569 155.92V157.92V159.92C65.2846 159.92 66.6109 159.516 67.6591 158.636C68.7044 157.758 69.302 156.55 69.5369 155.252L67.5689 154.896ZM63.8569 157.92V155.92C62.9592 155.92 62.6239 155.679 62.4839 155.527C62.3164 155.345 62.0649 154.894 62.0649 153.84H60.0649H58.0649C58.0649 155.458 58.4454 157.047 59.542 158.237C60.666 159.457 62.2266 159.92 63.8569 159.92V157.92ZM60.0649 153.84H62.0649C62.0649 153.09 62.2822 152.528 62.5701 152.19C62.8183 151.898 63.245 151.616 64.0809 151.616V149.616V147.616C62.1808 147.616 60.5995 148.334 59.5237 149.598C58.4877 150.816 58.0649 152.366 58.0649 153.84H60.0649ZM64.0809 149.616V151.616C64.6365 151.616 64.9128 151.776 65.0754 151.927C65.2654 152.103 65.4755 152.435 65.5918 153.016L67.5529 152.624L69.5141 152.232C69.2784 151.053 68.7525 149.881 67.7945 148.993C66.8091 148.08 65.5253 147.616 64.0809 147.616V149.616ZM67.5529 152.624V154.624C68.0275 154.624 68.1088 154.609 68.2679 154.62L68.4009 152.624L68.534 150.628C68.2131 150.607 67.6864 150.624 67.5529 150.624V152.624ZM68.4009 152.624H70.4009C70.4009 151.569 70.4167 150.512 70.4327 149.438L68.4329 149.408L66.4332 149.378C66.4172 150.448 66.4009 151.535 66.4009 152.624H68.4009ZM68.4329 149.408H70.4329C70.4329 149.409 70.433 149.431 70.4277 149.47C70.4224 149.509 70.4109 149.571 70.3852 149.648C70.3292 149.817 70.2185 150.017 70.0328 150.188C69.6809 150.513 69.3798 150.452 69.6514 150.448L69.6169 148.448L69.5825 146.448C68.926 146.46 68.033 146.591 67.3211 147.248C66.5548 147.954 66.4329 148.856 66.4329 149.408H68.4329ZM69.6169 148.448L69.6514 150.448C69.9213 150.443 69.6904 150.51 69.3633 150.256C69.1816 150.116 69.0395 149.926 68.9538 149.72C68.8743 149.529 68.8649 149.377 68.8649 149.312H70.8649H72.8649C72.8649 148.624 72.6342 147.731 71.8146 147.096C71.0955 146.538 70.2406 146.437 69.5825 146.448L69.6169 148.448ZM70.8649 149.312L68.865 149.32C68.881 153.132 68.8962 156.002 68.6763 159.788L70.6729 159.904L72.6696 160.02C72.8976 156.094 72.8809 153.108 72.8649 149.304L70.8649 149.312ZM70.6729 159.904L68.6785 159.754C68.6897 159.605 68.7744 159.325 69.0437 159.105C69.2959 158.898 69.5221 158.897 69.5478 158.898L69.4569 160.896L69.3661 162.894C70.0958 162.927 70.906 162.75 71.5782 162.199C72.2675 161.635 72.6081 160.843 72.6673 160.054L70.6729 159.904ZM73.5209 160.192L71.5268 160.039C71.536 159.92 71.6041 159.643 71.8783 159.409C72.1523 159.176 72.4168 159.169 72.473 159.173L72.3369 161.168L72.2009 163.163C72.9611 163.215 73.7936 163.032 74.4715 162.455C75.1498 161.877 75.4579 161.088 75.515 160.345L73.5209 160.192ZM72.3369 161.168L72.4865 159.174C72.4873 159.174 72.5095 159.175 72.548 159.184C72.587 159.193 72.6462 159.209 72.7184 159.24C72.8751 159.308 73.0488 159.425 73.1933 159.602C73.4644 159.932 73.4284 160.21 73.4244 160.035L71.4249 160.08L69.4255 160.125C69.4375 160.654 69.5375 161.452 70.1006 162.138C70.7151 162.888 71.5489 163.115 72.1874 163.162L72.3369 161.168ZM71.4249 160.08L73.4247 160.049C73.3614 155.965 73.4403 153.35 73.5205 149.368L71.5209 149.328L69.5213 149.288C69.4416 153.242 69.3605 155.939 69.4252 160.111L71.4249 160.08ZM71.5209 149.328H73.5209C73.5209 149.343 73.515 149.782 73.0999 150.155C72.741 150.478 72.4368 150.416 72.6889 150.416V148.416V146.416C72.0291 146.416 71.1409 146.538 70.4259 147.181C69.6549 147.874 69.5209 148.769 69.5209 149.328H71.5209ZM72.6889 148.416V150.416C72.9566 150.416 72.7338 150.48 72.422 150.219C72.2548 150.078 72.1251 149.894 72.0481 149.693C71.9756 149.504 71.9672 149.349 71.97 149.264L73.9689 149.328L75.9679 149.392C75.9903 148.699 75.776 147.811 74.9919 147.153C74.2841 146.56 73.4132 146.416 72.6889 146.416V148.416ZM73.9689 149.328H71.9689C71.9689 153.109 71.9052 156.218 71.5307 159.995L73.5209 160.192L75.5112 160.389C75.9047 156.422 75.9689 153.163 75.9689 149.328H73.9689ZM63.8249 155.824L63.8588 157.824C65.036 157.804 65.9774 157.208 66.5553 156.367C67.0907 155.587 67.2809 154.667 67.2809 153.84H65.2809H63.2809C63.2809 153.958 63.2668 154.042 63.2535 154.092C63.2399 154.143 63.2325 154.139 63.2586 154.101C63.2872 154.06 63.3534 153.983 63.4696 153.917C63.5906 153.849 63.7093 153.826 63.791 153.824L63.8249 155.824ZM65.2809 153.84H67.2809C67.2809 153 67.1126 152.08 66.6212 151.3C66.0887 150.455 65.1642 149.792 63.9529 149.792V151.792V153.792C63.8067 153.792 63.6363 153.751 63.4813 153.658C63.3351 153.57 63.2618 153.472 63.2366 153.432C63.2134 153.395 63.2269 153.402 63.2455 153.48C63.2636 153.555 63.2809 153.675 63.2809 153.84H65.2809ZM63.9529 151.792V149.792C62.6856 149.792 61.7036 150.441 61.1294 151.348C60.6161 152.158 60.4649 153.093 60.4649 153.872H62.4649H64.4649C64.4649 153.727 64.48 153.616 64.4977 153.541C64.5159 153.463 64.5299 153.455 64.5084 153.488C64.4833 153.528 64.4139 153.617 64.2821 153.694C64.1442 153.773 64.0178 153.792 63.9529 153.792V151.792ZM62.4649 153.872H60.4649C60.4649 154.699 60.6214 155.64 61.1646 156.434C61.7752 157.326 62.7388 157.824 63.8249 157.824V155.824V153.824C63.8898 153.824 64.0179 153.839 64.166 153.917C64.3149 153.994 64.4127 154.097 64.4653 154.174C64.5126 154.243 64.51 154.27 64.4963 154.214C64.4828 154.159 64.4649 154.049 64.4649 153.872H62.4649Z" fill="#281900" mask="url(#path-7-outside-2_731_656)"/>
</g>
<g filter="url(#filter3_d_731_656)">
<mask id="path-9-outside-3_731_656" maskUnits="userSpaceOnUse" x="124" y="145" width="58" height="21" fill="black">
<rect fill="white" x="124" y="145" width="58" height="21"/>
<path d="M137.6 160.528L131.792 160.736V161.072C133.952 161.072 135.952 161.04 138.096 161.04C138.512 161.04 138.624 161.216 138.624 161.664C138.624 161.904 138.592 162.576 138.064 162.576C135.456 162.608 133.008 162.656 130.416 162.688C129.472 162.688 129.12 162.288 129.088 161.632C129.056 160.976 128.992 160.608 128.992 159.952C128.992 159.68 129.056 159.552 129.312 159.536C131.536 159.456 133.616 159.36 135.856 159.264C135.856 159.072 135.872 159.056 135.872 158.848C133.6 158.896 131.488 158.96 129.216 158.992C128.832 158.992 128.704 158.768 128.704 158.208C128.704 157.872 128.736 157.472 129.2 157.456C132.304 157.36 134.96 157.232 138.064 157.152C138.32 157.152 138.464 157.344 138.464 157.648C138.448 158.464 138.416 158.976 138.352 159.776C138.32 160.272 138.08 160.512 137.6 160.528ZM132.304 148.16V148.688C133.136 148.656 133.968 148.64 134.8 148.608C135.312 148.592 135.552 148.784 135.584 149.456C135.616 150.24 135.312 150.368 134.816 150.416C134.288 150.48 133.376 150.56 132.304 150.64C132.304 150.864 132.32 151.088 132.32 151.2C133.28 151.728 134.4 152.16 135.376 152.608C135.536 152.688 135.6 152.88 135.6 153.136C135.584 153.664 135.392 154.048 134.864 154.272C134.672 154.352 134.464 154.32 134.288 154.256C133.44 153.936 132.128 153.36 131.168 152.96C130.272 153.728 129.216 154.32 128.32 154.864C128.096 155.008 127.92 155.056 127.632 155.04C127.184 155.024 126.688 154.624 126.608 154.16C126.56 153.92 126.608 153.648 126.8 153.488C127.488 152.96 128.592 152.304 129.552 151.392C129.536 151.248 129.52 151.04 129.504 150.8C128.656 150.848 127.84 150.864 127.152 150.864C126.672 150.864 126.368 150.752 126.352 149.952C126.336 149.232 126.56 148.944 127.104 148.912C127.824 148.88 128.608 148.832 129.408 148.8C129.392 148.672 129.376 148.56 129.376 148.48C129.296 147.776 129.712 147.44 130.768 147.36C131.936 147.28 132.304 147.552 132.304 148.16ZM138.672 153.936C138.656 154.672 138.624 155.36 138.592 155.92C138.56 156.384 138.352 156.64 137.936 156.8C137.696 156.896 137.04 156.944 136.736 156.8C136.464 156.672 136.224 156.4 136.224 155.984C136.192 154.192 136.144 151.472 136.176 149.36C136.176 148.928 136.336 148.688 136.672 148.56C137.184 148.368 137.776 148.384 138.256 148.576C138.592 148.704 138.688 148.928 138.688 149.344C138.688 150.048 138.704 150.848 138.704 151.664C139.024 151.664 139.328 151.664 139.536 151.68C140.144 151.744 140.368 152.096 140.368 152.752C140.368 153.536 140.064 153.792 139.552 153.872C139.344 153.904 139.024 153.936 138.672 153.936ZM135.888 155.84C135.856 156.608 135.44 156.608 134.976 156.656C132.64 156.896 130.112 157.088 127.584 157.152C127.008 157.168 126.624 157.056 126.624 156.288C126.624 155.584 126.992 155.392 127.552 155.36C128.416 155.312 129.264 155.28 130.08 155.232C130.064 155.024 130.048 154.848 130.048 154.688C130.016 154.256 130.16 153.984 130.496 153.808C130.992 153.552 131.616 153.504 132.096 153.696C132.448 153.824 132.544 154.064 132.592 154.48C132.608 154.64 132.624 154.848 132.624 155.088C133.488 155.056 134.32 155.024 135.136 154.992C135.584 154.976 135.872 155.296 135.888 155.84ZM150.278 155.392C150.262 155.152 150.262 154.912 150.262 154.656C149.59 154.704 148.694 154.736 148.214 154.736C147.478 155.696 146.262 156.272 144.694 156.272C141.75 156.272 140.422 154.72 140.422 152.32C140.422 150.032 142.038 148.208 144.998 148.208C146.502 148.208 147.558 148.768 148.198 149.648C148.806 149.616 149.638 149.568 150.214 149.568C150.214 149.504 150.23 149.424 150.23 149.36C150.23 148.928 150.39 148.688 150.726 148.56C151.238 148.368 151.99 148.384 152.47 148.576C152.806 148.704 152.902 148.928 152.902 149.344C152.934 151.344 152.918 153.616 152.806 155.328C152.774 155.792 152.566 156.048 152.15 156.208C151.91 156.304 151.094 156.352 150.79 156.208C150.518 156.08 150.278 155.808 150.278 155.392ZM152.598 159.456C152.694 161.36 151.398 163.056 148.502 163.184C145.67 163.296 144.326 161.76 144.326 159.888C144.326 158.144 145.574 156.448 148.342 156.272C151.046 156.112 152.502 157.424 152.598 159.456ZM144.646 154.096C145.798 154.096 146.454 153.44 146.454 152.24C146.454 151.024 145.83 150.384 144.806 150.384C143.59 150.384 142.966 151.104 142.966 152.304C142.966 153.488 143.622 154.096 144.646 154.096ZM148.47 161.264C149.526 161.216 150.102 160.576 150.038 159.552C149.974 158.624 149.35 158.16 148.454 158.192C147.478 158.224 146.854 158.928 146.886 159.792C146.918 160.672 147.51 161.312 148.47 161.264ZM150.214 151.68C149.846 151.696 149.382 151.712 148.966 151.728C148.982 151.92 148.998 152.112 148.998 152.304C148.998 152.416 148.998 152.512 148.982 152.608C149.414 152.592 149.878 152.56 150.23 152.56C150.23 152.272 150.214 151.968 150.214 151.68ZM158.46 159.712C155.9 159.712 154.412 158.608 154.412 156.08C154.412 153.984 155.916 152.336 158.7 152.336C161.116 152.336 162.476 153.856 162.476 156.08C162.476 158.4 160.908 159.648 158.46 159.712ZM166.092 155.488C166.012 157.088 165.884 158.672 165.74 160.224C165.692 160.688 165.372 160.976 165.004 161.104C164.764 161.184 164.268 161.168 163.964 161.056C163.692 160.96 163.452 160.704 163.452 160.288C163.42 156.576 163.436 153.312 163.532 149.44C163.548 149.008 163.692 148.736 164.028 148.592C164.54 148.368 165.292 148.384 165.772 148.608C166.108 148.768 166.204 149.008 166.204 149.424C166.204 150.672 166.204 151.936 166.172 153.216C166.46 153.216 166.732 153.216 166.94 153.232C167.548 153.296 167.772 153.648 167.772 154.304C167.772 155.088 167.468 155.344 166.956 155.424C166.732 155.456 166.412 155.488 166.092 155.488ZM159.74 148.16L159.724 149.52C160.572 149.488 161.42 149.472 162.236 149.44C162.748 149.424 162.988 149.776 163.02 150.448C163.052 151.232 162.748 151.52 162.252 151.568C160.892 151.712 156.876 152.016 154.46 152.016C153.98 152.016 153.676 151.744 153.66 150.944C153.644 150.224 153.868 149.776 154.412 149.744C155.18 149.712 156.012 149.68 156.892 149.632L156.78 148.304C156.764 147.728 157.148 147.408 158.204 147.376C159.436 147.344 159.74 147.696 159.74 148.16ZM158.38 157.744C159.452 157.728 159.996 157.12 159.996 156.08C159.996 154.96 159.468 154.368 158.54 154.368C157.388 154.368 156.908 155.072 156.908 156.112C156.908 157.264 157.42 157.744 158.38 157.744ZM175.554 149.632V150.464C175.554 153.488 175.458 156.176 175.234 158.496C175.17 159.248 174.914 159.616 173.954 159.616C173.058 159.616 172.818 159.264 172.802 158.496C172.754 155.888 172.738 153.968 172.786 151.392C171.25 151.392 169.73 151.392 168.226 151.344C167.858 151.328 167.442 151.008 167.458 150.16C167.474 149.456 167.666 149.104 168.29 149.072C170.402 148.976 172.226 148.912 174.21 148.912C175.154 148.912 175.554 148.912 175.554 149.632ZM178.674 161.104C178.434 161.184 177.938 161.168 177.634 161.056C177.362 160.96 177.122 160.704 177.122 160.288C177.09 156.576 177.106 153.312 177.202 149.44C177.218 149.008 177.362 148.736 177.698 148.592C178.21 148.368 178.962 148.384 179.442 148.608C179.778 148.768 179.874 149.008 179.874 149.424C179.906 152.96 179.762 156.688 179.41 160.224C179.362 160.688 179.042 160.976 178.674 161.104Z"/>
</mask>
<path d="M137.6 160.528L131.792 160.736V161.072C133.952 161.072 135.952 161.04 138.096 161.04C138.512 161.04 138.624 161.216 138.624 161.664C138.624 161.904 138.592 162.576 138.064 162.576C135.456 162.608 133.008 162.656 130.416 162.688C129.472 162.688 129.12 162.288 129.088 161.632C129.056 160.976 128.992 160.608 128.992 159.952C128.992 159.68 129.056 159.552 129.312 159.536C131.536 159.456 133.616 159.36 135.856 159.264C135.856 159.072 135.872 159.056 135.872 158.848C133.6 158.896 131.488 158.96 129.216 158.992C128.832 158.992 128.704 158.768 128.704 158.208C128.704 157.872 128.736 157.472 129.2 157.456C132.304 157.36 134.96 157.232 138.064 157.152C138.32 157.152 138.464 157.344 138.464 157.648C138.448 158.464 138.416 158.976 138.352 159.776C138.32 160.272 138.08 160.512 137.6 160.528ZM132.304 148.16V148.688C133.136 148.656 133.968 148.64 134.8 148.608C135.312 148.592 135.552 148.784 135.584 149.456C135.616 150.24 135.312 150.368 134.816 150.416C134.288 150.48 133.376 150.56 132.304 150.64C132.304 150.864 132.32 151.088 132.32 151.2C133.28 151.728 134.4 152.16 135.376 152.608C135.536 152.688 135.6 152.88 135.6 153.136C135.584 153.664 135.392 154.048 134.864 154.272C134.672 154.352 134.464 154.32 134.288 154.256C133.44 153.936 132.128 153.36 131.168 152.96C130.272 153.728 129.216 154.32 128.32 154.864C128.096 155.008 127.92 155.056 127.632 155.04C127.184 155.024 126.688 154.624 126.608 154.16C126.56 153.92 126.608 153.648 126.8 153.488C127.488 152.96 128.592 152.304 129.552 151.392C129.536 151.248 129.52 151.04 129.504 150.8C128.656 150.848 127.84 150.864 127.152 150.864C126.672 150.864 126.368 150.752 126.352 149.952C126.336 149.232 126.56 148.944 127.104 148.912C127.824 148.88 128.608 148.832 129.408 148.8C129.392 148.672 129.376 148.56 129.376 148.48C129.296 147.776 129.712 147.44 130.768 147.36C131.936 147.28 132.304 147.552 132.304 148.16ZM138.672 153.936C138.656 154.672 138.624 155.36 138.592 155.92C138.56 156.384 138.352 156.64 137.936 156.8C137.696 156.896 137.04 156.944 136.736 156.8C136.464 156.672 136.224 156.4 136.224 155.984C136.192 154.192 136.144 151.472 136.176 149.36C136.176 148.928 136.336 148.688 136.672 148.56C137.184 148.368 137.776 148.384 138.256 148.576C138.592 148.704 138.688 148.928 138.688 149.344C138.688 150.048 138.704 150.848 138.704 151.664C139.024 151.664 139.328 151.664 139.536 151.68C140.144 151.744 140.368 152.096 140.368 152.752C140.368 153.536 140.064 153.792 139.552 153.872C139.344 153.904 139.024 153.936 138.672 153.936ZM135.888 155.84C135.856 156.608 135.44 156.608 134.976 156.656C132.64 156.896 130.112 157.088 127.584 157.152C127.008 157.168 126.624 157.056 126.624 156.288C126.624 155.584 126.992 155.392 127.552 155.36C128.416 155.312 129.264 155.28 130.08 155.232C130.064 155.024 130.048 154.848 130.048 154.688C130.016 154.256 130.16 153.984 130.496 153.808C130.992 153.552 131.616 153.504 132.096 153.696C132.448 153.824 132.544 154.064 132.592 154.48C132.608 154.64 132.624 154.848 132.624 155.088C133.488 155.056 134.32 155.024 135.136 154.992C135.584 154.976 135.872 155.296 135.888 155.84ZM150.278 155.392C150.262 155.152 150.262 154.912 150.262 154.656C149.59 154.704 148.694 154.736 148.214 154.736C147.478 155.696 146.262 156.272 144.694 156.272C141.75 156.272 140.422 154.72 140.422 152.32C140.422 150.032 142.038 148.208 144.998 148.208C146.502 148.208 147.558 148.768 148.198 149.648C148.806 149.616 149.638 149.568 150.214 149.568C150.214 149.504 150.23 149.424 150.23 149.36C150.23 148.928 150.39 148.688 150.726 148.56C151.238 148.368 151.99 148.384 152.47 148.576C152.806 148.704 152.902 148.928 152.902 149.344C152.934 151.344 152.918 153.616 152.806 155.328C152.774 155.792 152.566 156.048 152.15 156.208C151.91 156.304 151.094 156.352 150.79 156.208C150.518 156.08 150.278 155.808 150.278 155.392ZM152.598 159.456C152.694 161.36 151.398 163.056 148.502 163.184C145.67 163.296 144.326 161.76 144.326 159.888C144.326 158.144 145.574 156.448 148.342 156.272C151.046 156.112 152.502 157.424 152.598 159.456ZM144.646 154.096C145.798 154.096 146.454 153.44 146.454 152.24C146.454 151.024 145.83 150.384 144.806 150.384C143.59 150.384 142.966 151.104 142.966 152.304C142.966 153.488 143.622 154.096 144.646 154.096ZM148.47 161.264C149.526 161.216 150.102 160.576 150.038 159.552C149.974 158.624 149.35 158.16 148.454 158.192C147.478 158.224 146.854 158.928 146.886 159.792C146.918 160.672 147.51 161.312 148.47 161.264ZM150.214 151.68C149.846 151.696 149.382 151.712 148.966 151.728C148.982 151.92 148.998 152.112 148.998 152.304C148.998 152.416 148.998 152.512 148.982 152.608C149.414 152.592 149.878 152.56 150.23 152.56C150.23 152.272 150.214 151.968 150.214 151.68ZM158.46 159.712C155.9 159.712 154.412 158.608 154.412 156.08C154.412 153.984 155.916 152.336 158.7 152.336C161.116 152.336 162.476 153.856 162.476 156.08C162.476 158.4 160.908 159.648 158.46 159.712ZM166.092 155.488C166.012 157.088 165.884 158.672 165.74 160.224C165.692 160.688 165.372 160.976 165.004 161.104C164.764 161.184 164.268 161.168 163.964 161.056C163.692 160.96 163.452 160.704 163.452 160.288C163.42 156.576 163.436 153.312 163.532 149.44C163.548 149.008 163.692 148.736 164.028 148.592C164.54 148.368 165.292 148.384 165.772 148.608C166.108 148.768 166.204 149.008 166.204 149.424C166.204 150.672 166.204 151.936 166.172 153.216C166.46 153.216 166.732 153.216 166.94 153.232C167.548 153.296 167.772 153.648 167.772 154.304C167.772 155.088 167.468 155.344 166.956 155.424C166.732 155.456 166.412 155.488 166.092 155.488ZM159.74 148.16L159.724 149.52C160.572 149.488 161.42 149.472 162.236 149.44C162.748 149.424 162.988 149.776 163.02 150.448C163.052 151.232 162.748 151.52 162.252 151.568C160.892 151.712 156.876 152.016 154.46 152.016C153.98 152.016 153.676 151.744 153.66 150.944C153.644 150.224 153.868 149.776 154.412 149.744C155.18 149.712 156.012 149.68 156.892 149.632L156.78 148.304C156.764 147.728 157.148 147.408 158.204 147.376C159.436 147.344 159.74 147.696 159.74 148.16ZM158.38 157.744C159.452 157.728 159.996 157.12 159.996 156.08C159.996 154.96 159.468 154.368 158.54 154.368C157.388 154.368 156.908 155.072 156.908 156.112C156.908 157.264 157.42 157.744 158.38 157.744ZM175.554 149.632V150.464C175.554 153.488 175.458 156.176 175.234 158.496C175.17 159.248 174.914 159.616 173.954 159.616C173.058 159.616 172.818 159.264 172.802 158.496C172.754 155.888 172.738 153.968 172.786 151.392C171.25 151.392 169.73 151.392 168.226 151.344C167.858 151.328 167.442 151.008 167.458 150.16C167.474 149.456 167.666 149.104 168.29 149.072C170.402 148.976 172.226 148.912 174.21 148.912C175.154 148.912 175.554 148.912 175.554 149.632ZM178.674 161.104C178.434 161.184 177.938 161.168 177.634 161.056C177.362 160.96 177.122 160.704 177.122 160.288C177.09 156.576 177.106 153.312 177.202 149.44C177.218 149.008 177.362 148.736 177.698 148.592C178.21 148.368 178.962 148.384 179.442 148.608C179.778 148.768 179.874 149.008 179.874 149.424C179.906 152.96 179.762 156.688 179.41 160.224C179.362 160.688 179.042 160.976 178.674 161.104Z" fill="url(#paint4_linear_731_656)"/>
<path d="M137.6 160.528L137.533 158.529L137.528 158.529L137.6 160.528ZM131.792 160.736L131.72 158.737L129.792 158.806V160.736H131.792ZM131.792 161.072H129.792V163.072H131.792V161.072ZM138.064 162.576V160.576H138.052L138.039 160.576L138.064 162.576ZM130.416 162.688V164.688H130.428L130.441 164.688L130.416 162.688ZM129.088 161.632L127.09 161.729L127.09 161.729L129.088 161.632ZM129.312 159.536L129.24 157.537L129.214 157.538L129.187 157.54L129.312 159.536ZM135.856 159.264L135.942 161.262L137.856 161.18V159.264H135.856ZM135.872 158.848H137.872V156.805L135.83 156.848L135.872 158.848ZM129.216 158.992V160.992H129.23L129.244 160.992L129.216 158.992ZM129.2 157.456L129.138 155.457L129.131 155.457L129.2 157.456ZM138.064 157.152V155.152H138.038L138.012 155.153L138.064 157.152ZM138.464 157.648L140.464 157.687L140.464 157.668V157.648H138.464ZM138.352 159.776L136.358 159.617L136.357 159.632L136.356 159.647L138.352 159.776ZM132.304 148.688H130.304V150.766L132.381 150.687L132.304 148.688ZM134.8 148.608L134.738 146.609L134.73 146.609L134.723 146.609L134.8 148.608ZM135.584 149.456L137.582 149.374L137.582 149.361L135.584 149.456ZM134.816 150.416L134.623 148.425L134.599 148.428L134.575 148.431L134.816 150.416ZM132.304 150.64L132.155 148.646L130.304 148.784V150.64H132.304ZM132.32 151.2H130.32V152.383L131.356 152.952L132.32 151.2ZM135.376 152.608L136.27 150.819L136.241 150.804L136.21 150.79L135.376 152.608ZM135.6 153.136L137.599 153.197L137.6 153.166V153.136H135.6ZM134.864 154.272L135.633 156.118L135.645 156.113L134.864 154.272ZM134.288 154.256L133.582 156.127L133.593 156.131L133.605 156.136L134.288 154.256ZM131.168 152.96L131.937 151.114L130.801 150.64L129.866 151.441L131.168 152.96ZM128.32 154.864L127.282 153.154L127.26 153.168L127.238 153.182L128.32 154.864ZM127.632 155.04L127.743 153.043L127.723 153.042L127.703 153.041L127.632 155.04ZM126.608 154.16L128.579 153.82L128.574 153.794L128.569 153.768L126.608 154.16ZM126.8 153.488L125.582 151.901L125.55 151.926L125.52 151.952L126.8 153.488ZM129.552 151.392L130.929 152.842L131.649 152.158L131.54 151.171L129.552 151.392ZM129.504 150.8L131.5 150.667L131.368 148.691L129.391 148.803L129.504 150.8ZM126.352 149.952L128.352 149.912L128.352 149.908L126.352 149.952ZM127.104 148.912L127.015 146.914L127.001 146.915L126.987 146.915L127.104 148.912ZM129.408 148.8L129.488 150.798L131.662 150.711L131.393 148.552L129.408 148.8ZM129.376 148.48H131.376V148.367L131.363 148.254L129.376 148.48ZM130.768 147.36L130.631 145.365L130.624 145.365L130.617 145.366L130.768 147.36ZM138.672 153.936V151.936H136.715L136.672 153.893L138.672 153.936ZM138.592 155.92L140.587 156.058L140.588 156.046L140.589 156.034L138.592 155.92ZM137.936 156.8L137.218 154.933L137.206 154.938L137.193 154.943L137.936 156.8ZM136.736 156.8L137.592 154.993L137.588 154.99L136.736 156.8ZM136.224 155.984H138.224V155.966L138.224 155.948L136.224 155.984ZM136.176 149.36L138.176 149.39L138.176 149.375V149.36H136.176ZM136.672 148.56L135.97 146.687L135.96 146.691L136.672 148.56ZM138.256 148.576L137.513 150.433L137.529 150.439L137.544 150.445L138.256 148.576ZM138.704 151.664H136.704V153.664H138.704V151.664ZM139.536 151.68L139.745 149.691L139.717 149.688L139.689 149.686L139.536 151.68ZM139.552 153.872L139.856 155.849L139.861 155.848L139.552 153.872ZM135.888 155.84L137.886 155.923L137.889 155.852L137.887 155.781L135.888 155.84ZM134.976 156.656L135.18 158.646L135.182 158.645L134.976 156.656ZM127.584 157.152L127.533 155.153L127.528 155.153L127.584 157.152ZM127.552 155.36L127.441 153.363L127.438 153.363L127.552 155.36ZM130.08 155.232L130.197 157.229L132.23 157.109L132.074 155.079L130.08 155.232ZM130.048 154.688H132.048V154.614L132.043 154.54L130.048 154.688ZM130.496 153.808L129.579 152.031L129.568 152.036L130.496 153.808ZM132.096 153.696L131.353 155.553L131.383 155.565L131.413 155.576L132.096 153.696ZM132.592 154.48L134.582 154.281L134.581 154.266L134.579 154.251L132.592 154.48ZM132.624 155.088H130.624V157.163L132.698 157.087L132.624 155.088ZM135.136 154.992L135.065 152.993L135.058 152.994L135.136 154.992ZM137.6 160.528L137.528 158.529L131.72 158.737L131.792 160.736L131.864 162.735L137.672 162.527L137.6 160.528ZM131.792 160.736H129.792V161.072H131.792H133.792V160.736H131.792ZM131.792 161.072V163.072C132.881 163.072 133.928 163.064 134.965 163.056C136.005 163.048 137.033 163.04 138.096 163.04V161.04V159.04C137.015 159.04 135.971 159.048 134.935 159.056C133.896 159.064 132.863 159.072 131.792 159.072V161.072ZM138.096 161.04V163.04C138.094 163.04 137.447 163.049 136.954 162.433C136.744 162.17 136.67 161.917 136.644 161.796C136.62 161.681 136.624 161.62 136.624 161.664H138.624H140.624C140.624 161.408 140.624 160.618 140.078 159.935C139.425 159.119 138.514 159.04 138.096 159.04V161.04ZM138.624 161.664H136.624C136.624 161.746 136.61 161.668 136.669 161.51C136.705 161.414 136.809 161.177 137.067 160.954C137.363 160.698 137.73 160.576 138.064 160.576V162.576V164.576C138.662 164.576 139.231 164.37 139.682 163.981C140.094 163.624 140.305 163.204 140.415 162.91C140.622 162.356 140.624 161.822 140.624 161.664H138.624ZM138.064 162.576L138.039 160.576C136.731 160.592 135.464 160.612 134.202 160.632C132.94 160.652 131.683 160.672 130.391 160.688L130.416 162.688L130.441 164.688C131.741 164.672 133.004 164.652 134.266 164.632C135.528 164.612 136.789 164.592 138.089 164.576L138.064 162.576ZM130.416 162.688V160.688C130.182 160.688 130.417 160.632 130.72 160.895C130.874 161.028 130.975 161.187 131.031 161.327C131.058 161.391 131.071 161.444 131.078 161.479C131.085 161.513 131.086 161.533 131.086 161.535L129.088 161.632L127.09 161.729C127.122 162.384 127.337 163.256 128.1 163.917C128.823 164.544 129.706 164.688 130.416 164.688V162.688ZM129.088 161.632L131.086 161.535C131.041 160.611 130.992 160.59 130.992 159.952H128.992H126.992C126.992 160.626 127.071 161.341 127.09 161.729L129.088 161.632ZM128.992 159.952H130.992C130.992 159.956 130.992 159.976 130.989 160.008C130.987 160.04 130.982 160.094 130.968 160.163C130.941 160.296 130.874 160.541 130.69 160.801C130.244 161.434 129.608 161.521 129.437 161.532L129.312 159.536L129.187 157.54C128.76 157.567 127.964 157.726 127.422 158.495C126.988 159.11 126.992 159.77 126.992 159.952H128.992ZM129.312 159.536L129.384 161.535C131.617 161.454 133.71 161.358 135.942 161.262L135.856 159.264L135.77 157.266C133.522 157.362 131.455 157.458 129.24 157.537L129.312 159.536ZM135.856 159.264H137.856C137.856 159.254 137.856 159.248 137.856 159.245C137.856 159.244 137.856 159.243 137.856 159.242C137.856 159.242 137.856 159.242 137.856 159.242C137.856 159.241 137.856 159.24 137.859 159.21C137.861 159.181 137.865 159.128 137.868 159.063C137.87 158.996 137.872 158.927 137.872 158.848H135.872H133.872C133.872 158.873 133.872 158.884 133.871 158.885C133.871 158.887 133.871 158.889 133.869 158.914C133.868 158.938 133.864 158.99 133.861 159.053C133.858 159.118 133.856 159.187 133.856 159.264H135.856ZM135.872 158.848L135.83 156.848C133.532 156.897 131.453 156.96 129.188 156.992L129.216 158.992L129.244 160.992C131.523 160.96 133.668 160.895 135.914 160.848L135.872 158.848ZM129.216 158.992V156.992C129.302 156.992 129.525 157.003 129.796 157.125C130.097 157.261 130.342 157.482 130.504 157.738C130.648 157.964 130.688 158.154 130.698 158.212C130.709 158.272 130.704 158.283 130.704 158.208H128.704H126.704C126.704 158.527 126.717 159.235 127.128 159.882C127.694 160.774 128.597 160.992 129.216 160.992V158.992ZM128.704 158.208H130.704C130.704 158.146 130.706 158.154 130.702 158.19C130.698 158.223 130.68 158.363 130.596 158.545C130.504 158.747 130.328 159.004 130.028 159.203C129.73 159.399 129.444 159.449 129.269 159.455L129.2 157.456L129.131 155.457C128.724 155.471 128.26 155.577 127.826 155.863C127.389 156.152 127.118 156.533 126.96 156.879C126.69 157.468 126.704 158.067 126.704 158.208H128.704ZM129.2 157.456L129.262 159.455C132.43 159.357 134.996 159.232 138.116 159.151L138.064 157.152L138.012 155.153C134.924 155.232 132.178 155.363 129.138 155.457L129.2 157.456ZM138.064 157.152V159.152C137.641 159.152 137.139 158.966 136.791 158.526C136.493 158.149 136.464 157.782 136.464 157.648H138.464H140.464C140.464 157.21 140.363 156.595 139.929 156.046C139.445 155.434 138.743 155.152 138.064 155.152V157.152ZM138.464 157.648L136.464 157.609C136.449 158.373 136.42 158.843 136.358 159.617L138.352 159.776L140.346 159.935C140.412 159.109 140.447 158.555 140.464 157.687L138.464 157.648ZM138.352 159.776L136.356 159.647C136.358 159.621 136.386 159.262 136.73 158.918C137.085 158.563 137.466 158.531 137.533 158.529L137.6 160.528L137.667 162.527C138.214 162.509 138.955 162.349 139.558 161.746C140.15 161.154 140.314 160.427 140.348 159.905L138.352 159.776ZM132.304 148.16H130.304V148.688H132.304H134.304V148.16H132.304ZM132.304 148.688L132.381 150.687C132.786 150.671 133.192 150.659 133.61 150.647C134.024 150.635 134.45 150.623 134.877 150.607L134.8 148.608L134.723 146.609C134.318 146.625 133.912 146.637 133.494 146.649C133.08 146.661 132.654 146.673 132.227 146.689L132.304 148.688ZM134.8 148.608L134.862 150.607C134.862 150.607 134.857 150.607 134.847 150.607C134.836 150.607 134.82 150.606 134.799 150.604C134.758 150.6 134.689 150.591 134.601 150.567C134.411 150.514 134.165 150.399 133.947 150.177C133.541 149.765 133.577 149.347 133.586 149.551L135.584 149.456L137.582 149.361C137.559 148.893 137.459 148.043 136.797 147.371C136.08 146.642 135.186 146.595 134.738 146.609L134.8 148.608ZM135.584 149.456L133.586 149.538C133.595 149.758 133.514 149.274 133.973 148.808C134.193 148.586 134.422 148.489 134.545 148.45C134.649 148.417 134.701 148.418 134.623 148.425L134.816 150.416L135.009 152.407C135.263 152.382 136.138 152.31 136.823 151.616C137.55 150.878 137.605 149.938 137.582 149.374L135.584 149.456ZM134.816 150.416L134.575 148.431C134.097 148.489 133.225 148.566 132.155 148.646L132.304 150.64L132.453 152.634C133.527 152.554 134.479 152.471 135.057 152.401L134.816 150.416ZM132.304 150.64H130.304C130.304 150.795 130.309 150.941 130.314 151.044C130.316 151.102 130.318 151.135 130.319 151.171C130.32 151.208 130.32 151.211 130.32 151.2H132.32H134.32C134.32 151.133 134.318 151.066 134.316 151.022C134.314 150.978 134.312 150.92 134.31 150.88C134.307 150.787 134.304 150.709 134.304 150.64H132.304ZM132.32 151.2L131.356 152.952C132.393 153.523 133.736 154.056 134.542 154.426L135.376 152.608L136.21 150.79C135.064 150.264 134.167 149.933 133.284 149.448L132.32 151.2ZM135.376 152.608L134.482 154.397C134.038 154.175 133.798 153.816 133.691 153.549C133.598 153.317 133.6 153.15 133.6 153.136H135.6H137.6C137.6 152.738 137.523 151.445 136.27 150.819L135.376 152.608ZM135.6 153.136L133.601 153.075C133.599 153.123 133.594 152.977 133.717 152.776C133.855 152.55 134.032 152.453 134.083 152.431L134.864 154.272L135.645 156.113C136.224 155.867 136.761 155.466 137.131 154.86C137.486 154.279 137.585 153.677 137.599 153.197L135.6 153.136ZM134.864 154.272L134.095 152.426C134.564 152.23 134.927 152.36 134.971 152.376L134.288 154.256L133.605 156.136C134.001 156.28 134.78 156.474 135.633 156.118L134.864 154.272ZM134.288 154.256L134.994 152.385C134.187 152.08 132.965 151.542 131.937 151.114L131.168 152.96L130.399 154.806C131.291 155.178 132.693 155.792 133.582 156.127L134.288 154.256ZM131.168 152.96L129.866 151.441C129.129 152.074 128.266 152.557 127.282 153.154L128.32 154.864L129.358 156.574C130.166 156.083 131.415 155.382 132.47 154.479L131.168 152.96ZM128.32 154.864L127.238 153.182C127.246 153.177 127.342 153.116 127.498 153.076C127.65 153.037 127.753 153.044 127.743 153.043L127.632 155.04L127.521 157.037C127.799 157.052 128.134 157.043 128.502 156.948C128.874 156.852 129.17 156.695 129.402 156.546L128.32 154.864ZM127.632 155.04L127.703 153.041C128.016 153.052 128.194 153.174 128.27 153.238C128.348 153.304 128.52 153.481 128.579 153.82L126.608 154.16L124.637 154.5C124.776 155.303 125.236 155.912 125.694 156.298C126.15 156.682 126.8 157.012 127.561 157.039L127.632 155.04ZM126.608 154.16L128.569 153.768C128.596 153.903 128.605 154.08 128.552 154.287C128.497 154.503 128.363 154.789 128.08 155.024L126.8 153.488L125.52 151.952C124.565 152.747 124.514 153.889 124.647 154.552L126.608 154.16ZM126.8 153.488L128.018 155.075C128.333 154.833 128.659 154.623 129.236 154.212C129.748 153.846 130.351 153.392 130.929 152.842L129.552 151.392L128.175 149.942C127.793 150.304 127.364 150.634 126.912 150.956C126.525 151.233 125.955 151.615 125.582 151.901L126.8 153.488ZM129.552 151.392L131.54 151.171C131.529 151.075 131.515 150.906 131.5 150.667L129.504 150.8L127.508 150.933C127.525 151.174 127.543 151.421 127.564 151.613L129.552 151.392ZM129.504 150.8L129.391 148.803C128.588 148.849 127.811 148.864 127.152 148.864V150.864V152.864C127.869 152.864 128.724 152.847 129.617 152.797L129.504 150.8ZM127.152 150.864V148.864C127.09 148.864 127.163 148.858 127.292 148.889C127.444 148.925 127.697 149.018 127.938 149.242C128.416 149.685 128.357 150.165 128.352 149.912L126.352 149.952L124.352 149.992C124.363 150.539 124.464 151.475 125.218 152.174C125.966 152.868 126.876 152.864 127.152 152.864V150.864ZM126.352 149.952L128.352 149.908C128.35 149.824 128.358 149.835 128.343 149.904C128.327 149.979 128.277 150.157 128.13 150.358C127.971 150.574 127.764 150.728 127.56 150.818C127.377 150.898 127.243 150.907 127.221 150.909L127.104 148.912L126.987 146.915C126.388 146.951 125.514 147.163 124.906 147.99C124.384 148.7 124.342 149.508 124.352 149.996L126.352 149.952ZM127.104 148.912L127.193 150.91C127.99 150.875 128.661 150.831 129.488 150.798L129.408 148.8L129.328 146.802C128.555 146.833 127.658 146.885 127.015 146.914L127.104 148.912ZM129.408 148.8L131.393 148.552C131.39 148.534 131.388 148.516 131.386 148.5C131.384 148.484 131.382 148.47 131.381 148.457C131.377 148.43 131.375 148.413 131.374 148.401C131.372 148.389 131.373 148.39 131.373 148.399C131.374 148.407 131.376 148.436 131.376 148.48H129.376H127.376C127.376 148.722 127.419 149.016 127.423 149.048L129.408 148.8ZM129.376 148.48L131.363 148.254C131.366 148.281 131.381 148.437 131.307 148.656C131.226 148.899 131.074 149.104 130.9 149.244C130.748 149.366 130.633 149.396 130.648 149.391C130.662 149.387 130.741 149.368 130.919 149.354L130.768 147.36L130.617 145.366C129.993 145.413 129.109 145.551 128.392 146.128C127.485 146.858 127.295 147.884 127.389 148.706L129.376 148.48ZM130.768 147.36L130.905 149.355C131.123 149.34 131.231 149.348 131.263 149.352C131.302 149.356 131.178 149.349 130.993 149.245C130.774 149.121 130.56 148.913 130.426 148.634C130.308 148.388 130.304 148.196 130.304 148.16H132.304H134.304C134.304 147.82 134.254 147.366 134.031 146.901C133.791 146.402 133.412 146.017 132.955 145.759C132.17 145.317 131.269 145.321 130.631 145.365L130.768 147.36ZM138.672 153.936L136.672 153.893C136.657 154.599 136.626 155.262 136.595 155.806L138.592 155.92L140.589 156.034C140.622 155.458 140.655 154.745 140.672 153.979L138.672 153.936ZM138.592 155.92L136.597 155.782C136.6 155.739 136.627 155.512 136.816 155.263C137 155.021 137.201 154.94 137.218 154.933L137.936 156.8L138.654 158.667C139.087 158.5 139.6 158.211 140 157.685C140.405 157.152 140.552 156.565 140.587 156.058L138.592 155.92ZM137.936 156.8L137.193 154.943C137.274 154.911 137.332 154.896 137.35 154.891C137.373 154.886 137.383 154.884 137.379 154.885C137.369 154.887 137.342 154.89 137.308 154.891C137.273 154.892 137.262 154.889 137.28 154.891C137.29 154.893 137.32 154.897 137.366 154.909C137.409 154.92 137.49 154.944 137.592 154.993L136.736 156.8L135.88 158.607C136.475 158.889 137.111 158.897 137.412 158.889C137.737 158.881 138.236 158.834 138.679 158.657L137.936 156.8ZM136.736 156.8L137.588 154.99C137.734 155.059 137.895 155.177 138.023 155.363C138.162 155.563 138.224 155.788 138.224 155.984H136.224H134.224C134.224 157.295 135.027 158.206 135.884 158.61L136.736 156.8ZM136.224 155.984L138.224 155.948C138.192 154.148 138.144 151.463 138.176 149.39L136.176 149.36L134.176 149.33C134.144 151.481 134.192 154.236 134.224 156.02L136.224 155.984ZM136.176 149.36H138.176C138.176 149.377 138.174 149.62 137.99 149.913C137.788 150.232 137.519 150.378 137.384 150.429L136.672 148.56L135.96 146.691C135.489 146.87 134.972 147.2 134.606 147.779C134.258 148.332 134.176 148.911 134.176 149.36H136.176ZM136.672 148.56L137.374 150.433C137.379 150.431 137.405 150.423 137.447 150.424C137.465 150.424 137.482 150.426 137.496 150.429C137.509 150.431 137.515 150.434 137.513 150.433L138.256 148.576L138.999 146.719C138.066 146.346 136.959 146.316 135.97 146.687L136.672 148.56ZM138.256 148.576L137.544 150.445C137.478 150.42 137.351 150.363 137.207 150.246C137.055 150.123 136.926 149.967 136.833 149.792C136.666 149.478 136.688 149.239 136.688 149.344H138.688H140.688C140.688 149.033 140.662 148.474 140.363 147.912C140.016 147.26 139.468 146.897 138.968 146.707L138.256 148.576ZM138.688 149.344H136.688C136.688 149.708 136.692 150.096 136.696 150.483C136.7 150.873 136.704 151.268 136.704 151.664H138.704H140.704C140.704 151.244 140.7 150.831 140.696 150.441C140.692 150.048 140.688 149.684 140.688 149.344H138.688ZM138.704 151.664V153.664C139.058 153.664 139.27 153.665 139.383 153.674L139.536 151.68L139.689 149.686C139.386 149.663 138.99 149.664 138.704 149.664V151.664ZM139.536 151.68L139.327 153.669C139.307 153.667 139.195 153.653 139.042 153.578C138.874 153.496 138.706 153.364 138.574 153.185C138.33 152.857 138.368 152.594 138.368 152.752H140.368H142.368C142.368 152.254 142.294 151.487 141.786 150.803C141.22 150.039 140.412 149.761 139.745 149.691L139.536 151.68ZM140.368 152.752H138.368C138.368 152.93 138.326 152.651 138.601 152.313C138.74 152.142 138.903 152.03 139.041 151.965C139.105 151.935 139.157 151.918 139.19 151.908C139.224 151.899 139.243 151.896 139.243 151.896L139.552 153.872L139.861 155.848C140.356 155.771 141.123 155.552 141.703 154.839C142.258 154.157 142.368 153.358 142.368 152.752H140.368ZM139.552 153.872L139.248 151.895C139.131 151.913 138.913 151.936 138.672 151.936V153.936V155.936C139.135 155.936 139.557 155.895 139.856 155.849L139.552 153.872ZM135.888 155.84L133.89 155.757C133.889 155.784 133.889 155.645 133.985 155.439C134.098 155.197 134.293 154.97 134.547 154.814C134.764 154.68 134.943 154.65 134.957 154.648C134.97 154.645 134.966 154.647 134.93 154.65C134.872 154.657 134.869 154.656 134.77 154.667L134.976 156.656L135.182 158.645C135.228 158.641 135.461 158.621 135.662 158.585C135.886 158.545 136.258 158.458 136.641 158.222C137.594 157.636 137.855 156.663 137.886 155.923L135.888 155.84ZM134.976 156.656L134.772 154.666C132.471 154.903 129.997 155.09 127.533 155.153L127.584 157.152L127.635 159.151C130.227 159.086 132.809 158.889 135.18 158.646L134.976 156.656ZM127.584 157.152L127.528 155.153C127.44 155.155 127.459 155.148 127.532 155.161C127.612 155.175 127.827 155.224 128.063 155.396C128.322 155.584 128.482 155.827 128.562 156.038C128.631 156.219 128.624 156.328 128.624 156.288H126.624H124.624C124.624 156.957 124.794 157.965 125.713 158.632C126.475 159.186 127.341 159.16 127.64 159.151L127.584 157.152ZM126.624 156.288H128.624C128.624 156.275 128.618 156.711 128.186 157.085C127.837 157.387 127.514 157.365 127.666 157.357L127.552 155.36L127.438 153.363C127.03 153.387 126.243 153.477 125.57 154.059C124.814 154.713 124.624 155.597 124.624 156.288H126.624ZM127.552 155.36L127.663 157.357C128.425 157.315 129.431 157.274 130.197 157.229L130.08 155.232L129.963 153.235C129.097 153.286 128.407 153.309 127.441 153.363L127.552 155.36ZM130.08 155.232L132.074 155.079C132.054 154.819 132.048 154.749 132.048 154.688H130.048H128.048C128.048 154.947 128.074 155.229 128.086 155.385L130.08 155.232ZM130.048 154.688L132.043 154.54C132.045 154.568 132.056 154.788 131.913 155.066C131.76 155.364 131.539 155.519 131.424 155.58L130.496 153.808L129.568 152.036C129.117 152.273 128.656 152.652 128.355 153.238C128.064 153.804 128.019 154.376 128.053 154.836L130.048 154.688ZM130.496 153.808L131.413 155.585C131.409 155.587 131.411 155.586 131.42 155.583C131.429 155.581 131.438 155.579 131.446 155.579C131.453 155.578 131.451 155.579 131.439 155.578C131.428 155.576 131.398 155.571 131.353 155.553L132.096 153.696L132.839 151.839C131.757 151.406 130.527 151.542 129.579 152.031L130.496 153.808ZM132.096 153.696L131.413 155.576C131.339 155.549 131.212 155.492 131.072 155.381C130.926 155.265 130.81 155.125 130.727 154.981C130.585 154.737 130.588 154.556 130.605 154.709L132.592 154.48L134.579 154.251C134.548 153.988 134.479 153.479 134.189 152.979C133.843 152.38 133.322 152.014 132.779 151.816L132.096 153.696ZM132.592 154.48L130.602 154.679C130.614 154.799 130.624 154.936 130.624 155.088H132.624H134.624C134.624 154.76 134.602 154.481 134.582 154.281L132.592 154.48ZM132.624 155.088L132.698 157.087C133.564 157.055 134.397 157.023 135.214 156.99L135.136 154.992L135.058 152.994C134.243 153.025 133.412 153.057 132.55 153.089L132.624 155.088ZM135.136 154.992L135.207 156.991C134.902 157.002 134.488 156.882 134.18 156.536C133.91 156.233 133.89 155.946 133.889 155.899L135.888 155.84L137.887 155.781C137.87 155.19 137.698 154.471 137.168 153.876C136.6 153.238 135.818 152.966 135.065 152.993L135.136 154.992ZM150.278 155.392H152.278V155.325L152.274 155.259L150.278 155.392ZM150.262 154.656H152.262V152.508L150.12 152.661L150.262 154.656ZM148.214 154.736V152.736H147.227L146.627 153.519L148.214 154.736ZM148.198 149.648L146.581 150.824L147.219 151.702L148.303 151.645L148.198 149.648ZM150.214 149.568V151.568H152.214V149.568H150.214ZM150.726 148.56L150.024 146.687L150.014 146.691L150.726 148.56ZM152.47 148.576L151.727 150.433L151.743 150.439L151.758 150.445L152.47 148.576ZM152.902 149.344H150.902V149.36L150.902 149.376L152.902 149.344ZM152.806 155.328L154.801 155.466L154.802 155.459L152.806 155.328ZM152.15 156.208L151.432 154.341L151.42 154.346L151.407 154.351L152.15 156.208ZM150.79 156.208L151.646 154.401L151.642 154.398L150.79 156.208ZM152.598 159.456L150.6 159.55L150.601 159.557L152.598 159.456ZM148.502 163.184L148.581 165.182L148.59 165.182L148.502 163.184ZM148.342 156.272L148.224 154.275L148.215 154.276L148.342 156.272ZM148.47 161.264L148.379 159.266L148.37 159.266L148.47 161.264ZM150.038 159.552L152.034 159.427L152.033 159.414L150.038 159.552ZM148.454 158.192L148.52 160.191L148.526 160.191L148.454 158.192ZM146.886 159.792L148.885 159.719L148.885 159.718L146.886 159.792ZM150.214 151.68H152.214V149.591L150.127 149.682L150.214 151.68ZM148.966 151.728L148.889 149.729L146.799 149.81L146.973 151.894L148.966 151.728ZM148.982 152.608L147.009 152.279L146.606 154.697L149.056 154.607L148.982 152.608ZM150.23 152.56V154.56H152.23V152.56H150.23ZM150.278 155.392L152.274 155.259C152.263 155.097 152.262 154.924 152.262 154.656H150.262H148.262C148.262 154.9 148.261 155.207 148.283 155.525L150.278 155.392ZM150.262 154.656L150.12 152.661C149.489 152.706 148.64 152.736 148.214 152.736V154.736V156.736C148.748 156.736 149.692 156.702 150.405 156.651L150.262 154.656ZM148.214 154.736L146.627 153.519C146.337 153.897 145.76 154.272 144.694 154.272V156.272V158.272C146.764 158.272 148.619 157.495 149.801 155.953L148.214 154.736ZM144.694 156.272V154.272C143.559 154.272 143.066 153.976 142.856 153.77C142.649 153.566 142.422 153.162 142.422 152.32H140.422H138.422C138.422 153.878 138.859 155.45 140.052 156.622C141.242 157.792 142.886 158.272 144.694 158.272V156.272ZM140.422 152.32H142.422C142.422 151.657 142.648 151.172 142.984 150.85C143.32 150.527 143.935 150.208 144.998 150.208V148.208V146.208C143.101 146.208 141.428 146.801 140.216 147.962C139.005 149.124 138.422 150.695 138.422 152.32H140.422ZM144.998 148.208V150.208C145.96 150.208 146.371 150.536 146.581 150.824L148.198 149.648L149.816 148.472C148.745 147 147.044 146.208 144.998 146.208V148.208ZM148.198 149.648L148.303 151.645C148.943 151.612 149.705 151.568 150.214 151.568V149.568V147.568C149.571 147.568 148.669 147.62 148.093 147.651L148.198 149.648ZM150.214 149.568H152.214C152.214 149.631 152.21 149.676 152.209 149.688C152.208 149.7 152.207 149.708 152.21 149.685C152.211 149.672 152.216 149.628 152.22 149.581C152.224 149.534 152.23 149.455 152.23 149.36H150.23H148.23C148.23 149.297 148.234 149.252 148.235 149.24C148.236 149.228 148.237 149.22 148.234 149.243C148.233 149.256 148.228 149.3 148.224 149.347C148.22 149.394 148.214 149.473 148.214 149.568H150.214ZM150.23 149.36H152.23C152.23 149.377 152.229 149.62 152.044 149.913C151.843 150.232 151.573 150.378 151.438 150.429L150.726 148.56L150.014 146.691C149.543 146.87 149.026 147.2 148.661 147.779C148.312 148.332 148.23 148.911 148.23 149.36H150.23ZM150.726 148.56L151.428 150.433C151.402 150.443 151.405 150.438 151.444 150.432C151.48 150.427 151.529 150.423 151.584 150.424C151.64 150.425 151.689 150.43 151.723 150.436C151.76 150.442 151.76 150.446 151.727 150.433L152.47 148.576L153.213 146.719C152.689 146.509 152.125 146.43 151.636 146.424C151.145 146.418 150.57 146.483 150.024 146.687L150.726 148.56ZM152.47 148.576L151.758 150.445C151.693 150.42 151.565 150.363 151.422 150.246C151.269 150.123 151.14 149.967 151.047 149.792C150.88 149.478 150.902 149.239 150.902 149.344H152.902H154.902C154.902 149.033 154.877 148.474 154.578 147.912C154.231 147.26 153.682 146.897 153.182 146.707L152.47 148.576ZM152.902 149.344L150.902 149.376C150.934 151.355 150.917 153.565 150.81 155.197L152.806 155.328L154.802 155.459C154.919 153.667 154.934 151.333 154.902 149.312L152.902 149.344ZM152.806 155.328L150.811 155.19C150.814 155.147 150.841 154.92 151.03 154.671C151.214 154.429 151.415 154.348 151.432 154.341L152.15 156.208L152.868 158.075C153.302 157.908 153.814 157.619 154.214 157.093C154.619 156.56 154.766 155.973 154.801 155.466L152.806 155.328ZM152.15 156.208L151.407 154.351C151.467 154.327 151.513 154.313 151.54 154.305C151.569 154.297 151.59 154.292 151.6 154.289C151.62 154.285 151.624 154.285 151.608 154.287C151.575 154.292 151.517 154.297 151.45 154.298C151.381 154.3 151.337 154.297 151.327 154.296C151.323 154.295 151.345 154.297 151.387 154.307C151.409 154.312 151.441 154.321 151.482 154.334C151.522 154.348 151.579 154.369 151.646 154.401L150.79 156.208L149.934 158.015C150.305 158.191 150.669 158.246 150.867 158.269C151.103 158.296 151.336 158.302 151.538 158.298C151.743 158.293 151.953 158.277 152.151 158.25C152.306 158.229 152.599 158.182 152.893 158.065L152.15 156.208ZM150.79 156.208L151.642 154.398C151.788 154.467 151.949 154.585 152.077 154.771C152.216 154.971 152.278 155.196 152.278 155.392H150.278H148.278C148.278 156.703 149.081 157.614 149.939 158.018L150.79 156.208ZM152.598 159.456L150.601 159.557C150.624 160.014 150.485 160.343 150.254 160.576C150.015 160.816 149.489 161.138 148.414 161.186L148.502 163.184L148.59 165.182C150.412 165.102 151.981 164.512 153.091 163.396C154.207 162.273 154.669 160.802 154.596 159.355L152.598 159.456ZM148.502 163.184L148.423 161.186C147.373 161.227 146.877 160.957 146.669 160.775C146.474 160.604 146.326 160.333 146.326 159.888H144.326H142.326C142.326 161.315 142.85 162.748 144.035 163.785C145.207 164.811 146.799 165.253 148.581 165.182L148.502 163.184ZM144.326 159.888H146.326C146.326 159.498 146.46 159.158 146.717 158.9C146.969 158.645 147.479 158.331 148.469 158.268L148.342 156.272L148.215 154.276C146.437 154.389 144.939 155.011 143.876 156.084C142.816 157.154 142.326 158.534 142.326 159.888H144.326ZM148.342 156.272L148.46 158.269C149.488 158.208 149.994 158.443 150.211 158.614C150.395 158.758 150.575 159.012 150.6 159.55L152.598 159.456L154.596 159.362C154.525 157.868 153.929 156.45 152.685 155.47C151.474 154.517 149.9 154.176 148.224 154.275L148.342 156.272ZM144.646 154.096V156.096C145.597 156.096 146.626 155.818 147.41 155.019C148.189 154.224 148.454 153.193 148.454 152.24H146.454H144.454C144.454 152.361 144.437 152.401 144.443 152.384C144.451 152.36 144.482 152.292 144.554 152.217C144.628 152.143 144.701 152.106 144.739 152.092C144.77 152.081 144.747 152.096 144.646 152.096V154.096ZM146.454 152.24H148.454C148.454 151.31 148.214 150.302 147.493 149.51C146.748 148.691 145.746 148.384 144.806 148.384V150.384V152.384C144.856 152.384 144.834 152.392 144.769 152.366C144.697 152.338 144.61 152.284 144.535 152.202C144.382 152.034 144.454 151.954 144.454 152.24H146.454ZM144.806 150.384V148.384C143.799 148.384 142.748 148.693 141.968 149.529C141.209 150.343 140.966 151.377 140.966 152.304H142.966H144.966C144.966 152.173 144.984 152.12 144.983 152.121C144.981 152.128 144.959 152.188 144.892 152.259C144.861 152.292 144.826 152.321 144.791 152.345C144.756 152.368 144.727 152.381 144.709 152.387C144.675 152.4 144.697 152.384 144.806 152.384V150.384ZM142.966 152.304H140.966C140.966 153.257 141.236 154.265 141.989 155.039C142.748 155.818 143.739 156.096 144.646 156.096V154.096V152.096C144.586 152.096 144.591 152.087 144.641 152.105C144.697 152.126 144.779 152.17 144.855 152.249C144.932 152.327 144.964 152.4 144.974 152.428C144.982 152.451 144.966 152.418 144.966 152.304H142.966ZM148.47 161.264L148.561 163.262C149.47 163.221 150.437 162.906 151.152 162.121C151.871 161.333 152.091 160.338 152.034 159.427L150.038 159.552L148.042 159.677C148.046 159.736 148.036 159.726 148.053 159.669C148.072 159.607 148.115 159.516 148.196 159.427C148.375 159.23 148.526 159.259 148.379 159.266L148.47 161.264ZM150.038 159.552L152.033 159.414C151.971 158.51 151.607 157.61 150.832 156.97C150.082 156.351 149.179 156.165 148.383 156.193L148.454 158.192L148.526 160.191C148.625 160.187 148.482 160.217 148.284 160.054C148.188 159.974 148.12 159.88 148.079 159.794C148.041 159.713 148.041 159.668 148.043 159.69L150.038 159.552ZM148.454 158.192L148.389 156.193C146.343 156.26 144.813 157.857 144.887 159.866L146.886 159.792L148.885 159.718C148.888 159.799 148.856 159.938 148.741 160.059C148.624 160.182 148.512 160.191 148.52 160.191L148.454 158.192ZM146.886 159.792L144.887 159.865C144.919 160.732 145.237 161.631 145.937 162.311C146.654 163.007 147.604 163.31 148.57 163.262L148.47 161.264L148.37 159.266C148.363 159.267 148.408 159.264 148.484 159.291C148.563 159.318 148.648 159.368 148.723 159.441C148.879 159.593 148.885 159.732 148.885 159.719L146.886 159.792ZM150.214 151.68L150.127 149.682C149.765 149.698 149.318 149.713 148.889 149.729L148.966 151.728L149.043 153.727C149.446 153.711 149.927 153.694 150.301 153.678L150.214 151.68ZM148.966 151.728L146.973 151.894C146.99 152.1 146.998 152.209 146.998 152.304H148.998H150.998C150.998 152.015 150.974 151.74 150.959 151.562L148.966 151.728ZM148.998 152.304H146.998C146.998 152.318 146.998 152.33 146.998 152.341C146.998 152.351 146.998 152.359 146.998 152.366C146.998 152.38 146.998 152.384 146.998 152.382C146.998 152.378 147 152.338 147.009 152.279L148.982 152.608L150.955 152.937C151.003 152.649 150.998 152.383 150.998 152.304H148.998ZM148.982 152.608L149.056 154.607C149.596 154.587 149.921 154.56 150.23 154.56V152.56V150.56C149.836 150.56 149.232 150.597 148.908 150.609L148.982 152.608ZM150.23 152.56H152.23C152.23 152.384 152.225 152.209 152.221 152.066C152.217 151.913 152.214 151.792 152.214 151.68H150.214H148.214C148.214 151.856 148.219 152.031 148.223 152.174C148.227 152.327 148.23 152.448 148.23 152.56H150.23ZM158.46 159.712V161.712H158.486L158.513 161.711L158.46 159.712ZM166.092 155.488V153.488H164.19L164.095 155.388L166.092 155.488ZM165.74 160.224L167.73 160.43L167.731 160.419L167.732 160.409L165.74 160.224ZM165.004 161.104L165.637 163.001L165.649 162.997L165.661 162.993L165.004 161.104ZM163.964 161.056L164.656 159.179L164.643 159.175L164.63 159.17L163.964 161.056ZM163.452 160.288H165.452V160.279L165.452 160.271L163.452 160.288ZM163.532 149.44L161.534 149.366L161.533 149.378L161.533 149.39L163.532 149.44ZM164.028 148.592L164.816 150.43L164.823 150.427L164.83 150.424L164.028 148.592ZM165.772 148.608L166.632 146.802L166.625 146.799L166.618 146.796L165.772 148.608ZM166.172 153.216L164.173 153.166L164.122 155.216H166.172V153.216ZM166.94 153.232L167.15 151.243L167.122 151.24L167.094 151.238L166.94 153.232ZM166.956 155.424L167.239 157.404L167.252 157.402L167.265 157.4L166.956 155.424ZM159.74 148.16L161.74 148.184L161.74 148.172V148.16H159.74ZM159.724 149.52L157.724 149.496L157.7 151.598L159.8 151.519L159.724 149.52ZM162.236 149.44L162.174 147.441L162.166 147.441L162.158 147.442L162.236 149.44ZM163.02 150.448L165.019 150.366L165.018 150.353L163.02 150.448ZM162.252 151.568L162.06 149.577L162.051 149.578L162.042 149.579L162.252 151.568ZM153.66 150.944L155.66 150.904L155.66 150.9L153.66 150.944ZM154.412 149.744L154.329 147.746L154.312 147.746L154.295 147.747L154.412 149.744ZM156.892 149.632L157.001 151.629L159.058 151.517L158.885 149.464L156.892 149.632ZM156.78 148.304L154.781 148.36L154.783 148.416L154.787 148.472L156.78 148.304ZM158.204 147.376L158.152 145.377L158.144 145.377L158.204 147.376ZM158.38 157.744V159.744H158.395L158.41 159.744L158.38 157.744ZM158.46 159.712V157.712C157.422 157.712 156.961 157.482 156.776 157.324C156.651 157.217 156.412 156.943 156.412 156.08H154.412H152.412C152.412 157.745 152.917 159.287 154.176 160.364C155.376 161.39 156.938 161.712 158.46 161.712V159.712ZM154.412 156.08H156.412C156.412 155.525 156.601 155.141 156.875 154.886C157.156 154.625 157.704 154.336 158.7 154.336V152.336V150.336C156.913 150.336 155.317 150.871 154.149 151.958C152.976 153.051 152.412 154.539 152.412 156.08H154.412ZM158.7 152.336V154.336C159.479 154.336 159.867 154.57 160.063 154.771C160.267 154.98 160.476 155.374 160.476 156.08H162.476H164.476C164.476 154.562 164.006 153.084 162.926 151.977C161.837 150.862 160.338 150.336 158.7 150.336V152.336ZM162.476 156.08H160.476C160.476 156.757 160.267 157.064 160.07 157.236C159.828 157.448 159.328 157.689 158.408 157.713L158.46 159.712L158.513 161.711C160.041 161.671 161.548 161.256 162.702 160.248C163.901 159.2 164.476 157.723 164.476 156.08H162.476ZM166.092 155.488L164.095 155.388C164.017 156.949 163.891 158.502 163.749 160.039L165.74 160.224L167.732 160.409C167.877 158.842 168.008 157.227 168.09 155.588L166.092 155.488ZM165.74 160.224L163.751 160.018C163.772 159.815 163.864 159.608 164.009 159.449C164.138 159.305 164.27 159.242 164.347 159.215L165.004 161.104L165.661 162.993C166.557 162.681 167.582 161.861 167.73 160.43L165.74 160.224ZM165.004 161.104L164.372 159.207C164.446 159.182 164.502 159.17 164.533 159.164C164.565 159.158 164.587 159.156 164.596 159.155C164.612 159.153 164.609 159.154 164.592 159.154C164.584 159.153 164.577 159.153 164.57 159.152C164.564 159.152 164.56 159.151 164.56 159.151C164.561 159.151 164.562 159.151 164.565 159.152C164.569 159.153 164.574 159.154 164.581 159.156C164.594 159.159 164.62 159.166 164.656 159.179L163.964 161.056L163.273 162.933C163.682 163.084 164.104 163.137 164.425 163.15C164.719 163.163 165.182 163.153 165.637 163.001L165.004 161.104ZM163.964 161.056L164.63 159.17C164.842 159.245 165.056 159.387 165.218 159.608C165.39 159.842 165.452 160.094 165.452 160.288H163.452H161.452C161.452 161.609 162.282 162.583 163.299 162.942L163.964 161.056ZM163.452 160.288L165.452 160.271C165.42 156.577 165.436 153.336 165.532 149.49L163.532 149.44L161.533 149.39C161.436 153.288 161.42 156.575 161.452 160.305L163.452 160.288ZM163.532 149.44L165.531 149.514C165.532 149.486 165.533 149.662 165.397 149.9C165.237 150.18 165.001 150.351 164.816 150.43L164.028 148.592L163.24 146.754C162.719 146.977 162.244 147.356 161.924 147.916C161.628 148.434 161.549 148.962 161.534 149.366L163.532 149.44ZM164.028 148.592L164.83 150.424C164.808 150.434 164.794 150.438 164.79 150.439C164.786 150.44 164.789 150.44 164.797 150.438C164.816 150.435 164.848 150.431 164.887 150.432C164.926 150.432 164.956 150.436 164.973 150.44C164.981 150.441 164.981 150.442 164.975 150.44C164.969 150.438 164.952 150.432 164.926 150.42L165.772 148.608L166.618 146.796C166.062 146.536 165.46 146.439 164.938 146.432C164.413 146.425 163.802 146.508 163.227 146.76L164.028 148.592ZM165.772 148.608L164.912 150.414C164.855 150.387 164.749 150.328 164.631 150.22C164.507 150.106 164.402 149.967 164.325 149.814C164.186 149.535 164.204 149.332 164.204 149.424H166.204H168.204C168.204 149.1 168.175 148.569 167.903 148.026C167.596 147.412 167.111 147.03 166.632 146.802L165.772 148.608ZM166.204 149.424H164.204C164.204 150.676 164.204 151.915 164.173 153.166L166.172 153.216L168.172 153.266C168.204 151.957 168.204 150.668 168.204 149.424H166.204ZM166.172 153.216V155.216C166.489 155.216 166.673 155.217 166.787 155.226L166.94 153.232L167.094 151.238C166.792 151.215 166.432 151.216 166.172 151.216V153.216ZM166.94 153.232L166.731 155.221C166.711 155.219 166.599 155.205 166.446 155.13C166.279 155.048 166.11 154.916 165.978 154.737C165.734 154.409 165.772 154.146 165.772 154.304H167.772H169.772C169.772 153.806 169.698 153.039 169.191 152.355C168.624 151.591 167.816 151.313 167.15 151.243L166.94 153.232ZM167.772 154.304H165.772C165.772 154.482 165.73 154.203 166.005 153.865C166.145 153.694 166.307 153.582 166.445 153.517C166.509 153.487 166.561 153.47 166.595 153.46C166.628 153.451 166.647 153.448 166.647 153.448L166.956 155.424L167.265 157.4C167.761 157.323 168.527 157.104 169.107 156.391C169.662 155.709 169.772 154.91 169.772 154.304H167.772ZM166.956 155.424L166.673 153.444C166.515 153.467 166.293 153.488 166.092 153.488V155.488V157.488C166.532 157.488 166.95 157.445 167.239 157.404L166.956 155.424ZM159.74 148.16L157.74 148.136L157.724 149.496L159.724 149.52L161.724 149.544L161.74 148.184L159.74 148.16ZM159.724 149.52L159.8 151.519C160.213 151.503 160.627 151.491 161.049 151.479C161.468 151.467 161.894 151.455 162.315 151.438L162.236 149.44L162.158 147.442C161.762 147.457 161.357 147.469 160.935 147.481C160.517 147.493 160.084 147.505 159.649 147.521L159.724 149.52ZM162.236 149.44L162.299 151.439C162.194 151.442 162.001 151.43 161.774 151.331C161.535 151.227 161.344 151.066 161.211 150.889C160.983 150.586 161.014 150.363 161.023 150.543L163.02 150.448L165.018 150.353C164.995 149.861 164.89 149.126 164.406 148.483C163.822 147.707 162.963 147.416 162.174 147.441L162.236 149.44ZM163.02 150.448L161.022 150.53C161.029 150.704 160.974 150.425 161.243 150.072C161.557 149.659 161.967 149.586 162.06 149.577L162.252 151.568L162.445 153.559C163.034 153.502 163.843 153.261 164.426 152.496C164.962 151.791 165.043 150.976 165.019 150.366L163.02 150.448ZM162.252 151.568L162.042 149.579C160.72 149.719 156.78 150.016 154.46 150.016V152.016V154.016C156.973 154.016 161.065 153.705 162.463 153.557L162.252 151.568ZM154.46 152.016V150.016C154.523 150.016 154.676 150.024 154.869 150.101C155.079 150.183 155.278 150.323 155.432 150.511C155.71 150.85 155.664 151.118 155.66 150.904L153.66 150.944L151.661 150.984C151.672 151.57 151.786 152.374 152.341 153.049C152.973 153.819 153.828 154.016 154.46 154.016V152.016ZM153.66 150.944L155.66 150.9C155.655 150.699 155.701 150.845 155.547 151.105C155.456 151.26 155.305 151.433 155.084 151.563C154.867 151.692 154.663 151.733 154.53 151.741L154.412 149.744L154.295 147.747C153.394 147.8 152.584 148.259 152.105 149.067C151.707 149.739 151.649 150.469 151.661 150.988L153.66 150.944ZM154.412 149.744L154.496 151.742C155.255 151.711 156.105 151.678 157.001 151.629L156.892 149.632L156.783 147.635C155.92 147.682 155.105 147.713 154.329 147.746L154.412 149.744ZM156.892 149.632L158.885 149.464L158.773 148.136L156.78 148.304L154.787 148.472L154.899 149.8L156.892 149.632ZM156.78 148.304L158.779 148.248C158.782 148.328 158.773 148.515 158.671 148.742C158.561 148.985 158.393 149.167 158.226 149.282C158.079 149.384 157.976 149.404 157.994 149.4C158.009 149.396 158.09 149.38 158.265 149.375L158.204 147.376L158.144 145.377C157.502 145.396 156.664 145.5 155.954 145.99C155.061 146.607 154.758 147.54 154.781 148.36L156.78 148.304ZM158.204 147.376L158.256 149.375C158.475 149.37 158.584 149.383 158.615 149.389C158.65 149.395 158.544 149.383 158.384 149.284C158.201 149.171 158.006 148.981 157.876 148.715C157.756 148.468 157.74 148.257 157.74 148.16H159.74H161.74C161.74 147.409 161.439 146.47 160.485 145.88C159.746 145.424 158.876 145.358 158.152 145.377L158.204 147.376ZM158.38 157.744L158.41 159.744C159.315 159.73 160.297 159.455 161.04 158.674C161.771 157.905 161.996 156.932 161.996 156.08H159.996H157.996C157.996 156.268 157.95 156.119 158.141 155.918C158.23 155.824 158.324 155.773 158.384 155.75C158.436 155.731 158.435 155.743 158.35 155.744L158.38 157.744ZM159.996 156.08H161.996C161.996 155.237 161.8 154.275 161.132 153.499C160.423 152.675 159.449 152.368 158.54 152.368V154.368V156.368C158.561 156.368 158.506 156.371 158.408 156.331C158.301 156.288 158.19 156.212 158.101 156.109C157.928 155.909 157.996 155.803 157.996 156.08H159.996ZM158.54 154.368V152.368C157.541 152.368 156.515 152.69 155.778 153.544C155.087 154.345 154.908 155.321 154.908 156.112H156.908H158.908C158.908 156.001 158.922 155.959 158.919 155.97C158.914 155.985 158.887 156.063 158.807 156.156C158.721 156.256 158.619 156.32 158.538 156.353C158.466 156.382 158.453 156.368 158.54 156.368V154.368ZM156.908 156.112H154.908C154.908 156.939 155.087 157.942 155.827 158.729C156.592 159.544 157.591 159.744 158.38 159.744V157.744V155.744C158.3 155.744 158.318 155.733 158.396 155.76C158.487 155.791 158.621 155.862 158.742 155.991C158.986 156.25 158.908 156.437 158.908 156.112H156.908ZM175.234 158.496L173.244 158.304L173.243 158.315L173.242 158.326L175.234 158.496ZM172.802 158.496L170.803 158.533L170.803 158.538L172.802 158.496ZM172.786 151.392L174.786 151.429L174.824 149.392H172.786V151.392ZM168.226 151.344L168.139 153.342L168.151 153.343L168.163 153.343L168.226 151.344ZM167.458 150.16L165.459 150.115L165.459 150.122L167.458 150.16ZM168.29 149.072L168.2 147.074L168.188 147.075L168.29 149.072ZM178.674 161.104L179.307 163.001L179.319 162.997L179.331 162.993L178.674 161.104ZM177.634 161.056L178.326 159.179L178.313 159.175L178.3 159.17L177.634 161.056ZM177.122 160.288H179.122V160.279L179.122 160.271L177.122 160.288ZM177.202 149.44L175.204 149.366L175.203 149.378L175.203 149.39L177.202 149.44ZM177.698 148.592L178.486 150.43L178.493 150.427L178.5 150.424L177.698 148.592ZM179.442 148.608L180.302 146.802L180.295 146.799L180.288 146.796L179.442 148.608ZM179.874 149.424H177.874V149.433L177.874 149.442L179.874 149.424ZM179.41 160.224L181.4 160.43L181.401 160.422L179.41 160.224ZM175.554 149.632H173.554V150.464H175.554H177.554V149.632H175.554ZM175.554 150.464H173.554C173.554 153.451 173.459 156.07 173.244 158.304L175.234 158.496L177.225 158.688C177.457 156.282 177.554 153.525 177.554 150.464H175.554ZM175.234 158.496L173.242 158.326C173.233 158.43 173.225 158.415 173.25 158.341C173.281 158.249 173.362 158.073 173.539 157.902C173.906 157.546 174.25 157.616 173.954 157.616V159.616V161.616C174.619 161.616 175.571 161.502 176.322 160.774C177.057 160.062 177.186 159.153 177.227 158.666L175.234 158.496ZM173.954 159.616V157.616C173.686 157.616 174.103 157.548 174.502 157.97C174.69 158.169 174.765 158.369 174.792 158.465C174.814 158.545 174.804 158.56 174.802 158.454L172.802 158.496L170.803 158.538C170.813 159.019 170.88 159.962 171.595 160.718C172.342 161.508 173.327 161.616 173.954 161.616V159.616ZM172.802 158.496L174.802 158.459C174.754 155.865 174.739 153.972 174.786 151.429L172.786 151.392L170.787 151.355C170.738 153.964 170.754 155.911 170.803 158.533L172.802 158.496ZM172.786 151.392V149.392C171.245 149.392 169.757 149.392 168.29 149.345L168.226 151.344L168.163 153.343C169.704 153.392 171.256 153.392 172.786 153.392V151.392ZM168.226 151.344L168.313 149.346C168.688 149.362 169.043 149.539 169.27 149.827C169.484 150.099 169.456 150.302 169.458 150.198L167.458 150.16L165.459 150.122C165.445 150.866 165.616 151.653 166.127 152.301C166.649 152.965 167.397 153.31 168.139 153.342L168.226 151.344ZM167.458 150.16L169.458 150.205C169.46 150.106 169.468 150.096 169.458 150.139C169.448 150.185 169.407 150.34 169.276 150.523C169.133 150.724 168.939 150.88 168.732 150.975C168.546 151.06 168.41 151.068 168.393 151.069L168.29 149.072L168.188 147.075C167.497 147.11 166.614 147.364 166.016 148.205C165.524 148.897 165.469 149.678 165.459 150.115L167.458 150.16ZM168.29 149.072L168.381 151.07C170.482 150.974 172.271 150.912 174.21 150.912V148.912V146.912C172.182 146.912 170.323 146.978 168.2 147.074L168.29 149.072ZM174.21 148.912V150.912C174.468 150.912 174.597 150.913 174.687 150.919C174.791 150.926 174.669 150.931 174.473 150.851C174.359 150.803 174.209 150.723 174.058 150.591C173.904 150.455 173.784 150.296 173.7 150.133C173.619 149.977 173.584 149.842 173.569 149.759C173.561 149.717 173.558 149.685 173.556 149.665C173.554 149.644 173.554 149.633 173.554 149.632H175.554H177.554C177.554 149.3 177.514 148.802 177.254 148.299C176.957 147.722 176.486 147.354 176 147.153C175.586 146.983 175.187 146.943 174.95 146.928C174.7 146.911 174.425 146.912 174.21 146.912V148.912ZM178.674 161.104L178.042 159.207C178.116 159.182 178.172 159.17 178.203 159.164C178.235 159.158 178.257 159.156 178.266 159.155C178.282 159.153 178.28 159.154 178.262 159.154C178.254 159.153 178.247 159.153 178.24 159.152C178.234 159.152 178.23 159.151 178.23 159.151C178.231 159.151 178.232 159.151 178.236 159.152C178.239 159.153 178.244 159.154 178.251 159.156C178.264 159.159 178.29 159.166 178.326 159.179L177.634 161.056L176.943 162.933C177.353 163.084 177.774 163.137 178.095 163.15C178.389 163.163 178.852 163.153 179.307 163.001L178.674 161.104ZM177.634 161.056L178.3 159.17C178.512 159.245 178.726 159.387 178.888 159.608C179.06 159.842 179.122 160.094 179.122 160.288H177.122H175.122C175.122 161.609 175.952 162.583 176.969 162.942L177.634 161.056ZM177.122 160.288L179.122 160.271C179.09 156.577 179.106 153.336 179.202 149.49L177.202 149.44L175.203 149.39C175.106 153.288 175.09 156.575 175.122 160.305L177.122 160.288ZM177.202 149.44L179.201 149.514C179.202 149.486 179.203 149.662 179.067 149.9C178.907 150.18 178.671 150.351 178.486 150.43L177.698 148.592L176.911 146.754C176.389 146.977 175.914 147.356 175.594 147.916C175.298 148.434 175.219 148.962 175.204 149.366L177.202 149.44ZM177.698 148.592L178.5 150.424C178.478 150.434 178.465 150.438 178.461 150.439C178.456 150.44 178.459 150.44 178.467 150.438C178.486 150.435 178.518 150.431 178.557 150.432C178.596 150.432 178.626 150.436 178.643 150.44C178.651 150.441 178.651 150.442 178.645 150.44C178.639 150.438 178.622 150.432 178.597 150.42L179.442 148.608L180.288 146.796C179.732 146.536 179.13 146.439 178.608 146.432C178.083 146.425 177.472 146.508 176.897 146.76L177.698 148.592ZM179.442 148.608L178.583 150.414C178.526 150.387 178.419 150.328 178.301 150.22C178.177 150.106 178.072 149.967 177.996 149.814C177.856 149.535 177.874 149.332 177.874 149.424H179.874H181.874C181.874 149.1 181.845 148.569 181.573 148.026C181.267 147.412 180.781 147.03 180.302 146.802L179.442 148.608ZM179.874 149.424L177.874 149.442C177.906 152.915 177.764 156.57 177.42 160.026L179.41 160.224L181.401 160.422C181.761 156.806 181.907 153.005 181.874 149.406L179.874 149.424ZM179.41 160.224L177.421 160.018C177.442 159.815 177.534 159.608 177.679 159.449C177.809 159.305 177.94 159.242 178.017 159.215L178.674 161.104L179.331 162.993C180.227 162.681 181.252 161.861 181.4 160.43L179.41 160.224Z" fill="#281900" mask="url(#path-9-outside-3_731_656)"/>
</g>
</g>
<defs>
<filter id="filter0_d_731_656" x="0" y="0" width="206" height="189" filterUnits="userSpaceOnUse" color-interpolation-filters="sRGB">
<feFlood flood-opacity="0" result="BackgroundImageFix"/>
<feColorMatrix in="SourceAlpha" type="matrix" values="0 0 0 0 0 0 0 0 0 0 0 0 0 0 0 0 0 0 127 0" result="hardAlpha"/>
<feOffset dy="4"/>
<feGaussianBlur stdDeviation="2"/>
<feComposite in2="hardAlpha" operator="out"/>
<feColorMatrix type="matrix" values="0 0 0 0 0 0 0 0 0 0 0 0 0 0 0 0 0 0 1 0"/>
<feBlend mode="normal" in2="BackgroundImageFix" result="effect1_dropShadow_731_656"/>
<feBlend mode="normal" in="SourceGraphic" in2="effect1_dropShadow_731_656" result="shape"/>
</filter>
<filter id="filter1_d_731_656" x="4" y="0" width="198" height="185" filterUnits="userSpaceOnUse" color-interpolation-filters="sRGB">
<feFlood flood-opacity="0" result="BackgroundImageFix"/>
<feColorMatrix in="SourceAlpha" type="matrix" values="0 0 0 0 0 0 0 0 0 0 0 0 0 0 0 0 0 0 127 0" result="hardAlpha"/>
<feOffset dy="4"/>
<feComposite in2="hardAlpha" operator="out"/>
<feColorMatrix type="matrix" values="0 0 0 0 0.219608 0 0 0 0 0.172549 0 0 0 0 0.156863 0 0 0 1 0"/>
<feBlend mode="normal" in2="BackgroundImageFix" result="effect1_dropShadow_731_656"/>
<feBlend mode="normal" in="SourceGraphic" in2="effect1_dropShadow_731_656" result="shape"/>
</filter>
<filter id="filter2_d_731_656" x="32.3169" y="145.792" width="43.6523" height="19.9126" filterUnits="userSpaceOnUse" color-interpolation-filters="sRGB">
<feFlood flood-opacity="0" result="BackgroundImageFix"/>
<feColorMatrix in="SourceAlpha" type="matrix" values="0 0 0 0 0 0 0 0 0 0 0 0 0 0 0 0 0 0 127 0" result="hardAlpha"/>
<feOffset dy="1"/>
<feComposite in2="hardAlpha" operator="out"/>
<feColorMatrix type="matrix" values="0 0 0 0 0.156863 0 0 0 0 0.0980392 0 0 0 0 0 0 0 0 1 0"/>
<feBlend mode="normal" in2="BackgroundImageFix" result="effect1_dropShadow_731_656"/>
<feBlend mode="normal" in="SourceGraphic" in2="effect1_dropShadow_731_656" result="shape"/>
</filter>
<filter id="filter3_d_731_656" x="124.351" y="145.346" width="57.5278" height="20.8438" filterUnits="userSpaceOnUse" color-interpolation-filters="sRGB">
<feFlood flood-opacity="0" result="BackgroundImageFix"/>
<feColorMatrix in="SourceAlpha" type="matrix" values="0 0 0 0 0 0 0 0 0 0 0 0 0 0 0 0 0 0 127 0" result="hardAlpha"/>
<feOffset dy="1"/>
<feComposite in2="hardAlpha" operator="out"/>
<feColorMatrix type="matrix" values="0 0 0 0 0.156863 0 0 0 0 0.0980392 0 0 0 0 0 0 0 0 1 0"/>
<feBlend mode="normal" in2="BackgroundImageFix" result="effect1_dropShadow_731_656"/>
<feBlend mode="normal" in="SourceGraphic" in2="effect1_dropShadow_731_656" result="shape"/>
</filter>
<linearGradient id="paint0_linear_731_656" x1="54.5" y1="134" x2="54.5" y2="176" gradientUnits="userSpaceOnUse">
<stop stop-color="#5C4D49"/>
<stop offset="1" stop-color="#463733"/>
</linearGradient>
<linearGradient id="paint1_linear_731_656" x1="152.5" y1="134" x2="152.5" y2="176" gradientUnits="userSpaceOnUse">
<stop stop-color="#5C4D49"/>
<stop offset="1" stop-color="#463733"/>
</linearGradient>
<linearGradient id="paint2_linear_731_656" x1="103.5" y1="4" x2="103.5" y2="131" gradientUnits="userSpaceOnUse">
<stop stop-color="#FFF8E8"/>
<stop offset="1" stop-color="#FFF8E8"/>
</linearGradient>
<linearGradient id="paint3_linear_731_656" x1="54" y1="144" x2="54" y2="166" gradientUnits="userSpaceOnUse">
<stop stop-color="#FFE8B3"/>
<stop offset="1" stop-color="#FFC870"/>
</linearGradient>
<linearGradient id="paint4_linear_731_656" x1="153.5" y1="144" x2="153.5" y2="166" gradientUnits="userSpaceOnUse">
<stop stop-color="#FFE8B3"/>
<stop offset="1" stop-color="#FFC870"/>
</linearGradient>
</defs>
</svg>
