<svg width="94" height="36" viewBox="0 0 94 36" fill="none" xmlns="http://www.w3.org/2000/svg">
<g filter="url(#filter0_d_295_789)">
<path d="M0 5C0 2.23858 2.23858 0 5 0H88.5385C91.2999 0 93.5385 2.23858 93.5385 5V27C93.5385 29.7614 91.2999 32 88.5385 32H4.99999C2.23857 32 0 29.7614 0 27V5Z" fill="#382C28"/>
</g>
<path d="M0.271851 5.61523C0.271851 2.85381 2.51043 0.615234 5.27185 0.615234H88.2665C91.0279 0.615234 93.2665 2.85381 93.2665 5.61523V25.0016C93.2665 27.763 91.0279 30.0016 88.2665 30.0016H5.27185C2.51043 30.0016 0.271851 27.763 0.271851 25.0016V5.61523Z" fill="#8D726B"/>
<path d="M0.271851 8.69189C0.271851 5.93047 2.51043 3.69189 5.27185 3.69189H88.2665C91.0279 3.69189 93.2665 5.93047 93.2665 8.69189V26.3842C93.2665 29.1456 91.0279 31.3842 88.2665 31.3842H5.27185C2.51043 31.3842 0.271851 29.1456 0.271851 26.3842V8.69189Z" fill="url(#paint0_linear_295_789)"/>
<g filter="url(#filter1_d_295_789)">
<mask id="path-4-outside-1_295_789" maskUnits="userSpaceOnUse" x="23" y="9" width="47" height="17" fill="black">
<rect fill="white" x="23" y="9" width="47" height="17"/>
<path d="M26.3921 22.344C25.9761 21.8 25.9281 21.112 26.3601 20.568C26.7281 20.12 27.2241 20.104 27.6721 20.44C28.6161 21.096 29.8481 21.528 31.0001 21.592C31.8961 21.64 32.4081 21.48 32.5201 21.032C32.6641 20.472 32.2321 20.056 31.8321 19.88C31.2881 19.64 29.8001 19.176 28.6001 18.792C26.9201 18.264 25.7201 17.144 25.8161 15.304C25.9281 13.256 27.5761 11.944 30.5841 11.88C32.2161 11.848 33.8321 12.456 34.5841 13.08C35.1601 13.528 35.4481 14.392 34.9841 15.032C34.5841 15.608 33.9441 15.72 33.4481 15.352C32.6481 14.776 31.5441 14.328 30.4881 14.296C29.3521 14.264 28.7281 14.424 28.5361 15.048C28.3601 15.64 28.6321 16.168 29.2881 16.456C30.0241 16.776 31.6081 17.272 32.6321 17.656C34.4561 18.296 35.3201 19.352 35.2401 21C35.1281 22.968 33.2721 23.896 30.8721 23.896C29.2081 23.896 26.9841 23.16 26.3921 22.344ZM37.1756 17.384H35.9116C35.3196 17.384 34.9516 17.112 34.9356 16.296C34.9196 15.56 35.3196 15.192 35.8316 15.144C36.2156 15.128 36.6476 15.112 37.1596 15.096V12.936C37.1596 12.408 37.3996 11.96 38.5196 11.96C39.5596 11.96 39.7836 12.36 39.7836 12.952V15.064C40.6316 15.048 41.4636 15.048 42.0876 15.048C42.5036 15.048 42.8076 15.4 42.8076 15.976C42.8076 16.84 42.3756 17.016 41.9116 17.08C41.3356 17.16 40.5676 17.208 39.7676 17.256C39.7356 18.504 39.7196 19.8 39.7196 21.048C39.7196 21.4 39.8316 21.608 40.2476 21.576C40.6636 21.56 41.2396 21.528 41.6396 21.496C41.9276 21.48 42.2476 21.688 42.2956 22.36C42.3596 23.192 42.0076 23.384 41.6876 23.496C41.1596 23.704 40.3756 23.928 39.6396 23.928C38.1516 23.928 37.3836 23.24 37.3036 21.848C37.2396 20.712 37.1916 19.032 37.1756 17.384ZM51.1267 23.736H50.0387C49.8947 23.736 49.7827 23.656 49.7507 23.56C49.6387 23.192 49.5427 22.888 49.3987 22.424C48.9027 23.24 47.7347 23.816 46.6947 23.88C44.4227 24.008 42.3907 22.248 42.4387 19.528C42.4867 16.6 44.5667 14.936 46.8227 15.064C48.0387 15.128 48.9027 15.608 49.1907 16.344L49.2707 15.592C49.3027 15.32 49.3667 15.176 49.5427 15.144C50.2147 15.048 50.7267 15.032 51.3827 15.144C51.6067 15.192 51.7507 15.4 51.7667 15.784C51.7827 16.536 51.7987 17.352 51.7987 18.136C51.7987 20.12 51.7507 22.04 51.6867 23.192C51.6707 23.544 51.4467 23.736 51.1267 23.736ZM47.4467 21.624C48.4707 21.464 49.3187 20.648 49.3027 19.432C49.2867 18.232 48.5187 17.416 47.2547 17.336C45.9107 17.256 44.8547 18.168 44.8547 19.496C44.8547 21.032 45.9587 21.864 47.4467 21.624ZM55.0494 19.288H55.0334C55.0014 20.552 54.9694 21.816 54.9214 22.712C54.8734 23.432 54.4894 23.864 53.7694 23.896C52.9534 23.944 52.6334 23.496 52.5694 22.84C52.4574 21.64 52.3454 17.464 52.3454 16.04C52.3454 15.512 52.5694 15.064 53.6894 15.064C54.6974 15.064 55.0174 15.496 55.0334 16.056C55.0334 16.76 55.0494 16.568 55.0494 16.776C55.5614 15.992 56.7774 15.224 57.9134 15.08C58.5054 15 59.1454 15.16 59.2894 15.896C59.4174 16.568 59.3694 17.704 58.5214 17.704C57.1454 17.784 55.8974 18.248 55.0494 19.288ZM61.5922 17.384H60.3282C59.7362 17.384 59.3682 17.112 59.3522 16.296C59.3362 15.56 59.7362 15.192 60.2482 15.144C60.6322 15.128 61.0642 15.112 61.5762 15.096V12.936C61.5762 12.408 61.8162 11.96 62.9362 11.96C63.9762 11.96 64.2002 12.36 64.2002 12.952V15.064C65.0482 15.048 65.8802 15.048 66.5042 15.048C66.9202 15.048 67.2242 15.4 67.2242 15.976C67.2242 16.84 66.7922 17.016 66.3282 17.08C65.7522 17.16 64.9842 17.208 64.1842 17.256C64.1522 18.504 64.1362 19.8 64.1362 21.048C64.1362 21.4 64.2482 21.608 64.6642 21.576C65.0802 21.56 65.6562 21.528 66.0562 21.496C66.3442 21.48 66.6642 21.688 66.7122 22.36C66.7762 23.192 66.4242 23.384 66.1042 23.496C65.5762 23.704 64.7922 23.928 64.0562 23.928C62.5682 23.928 61.8002 23.24 61.7202 21.848C61.6562 20.712 61.6082 19.032 61.5922 17.384Z"/>
</mask>
<path d="M26.3921 22.344C25.9761 21.8 25.9281 21.112 26.3601 20.568C26.7281 20.12 27.2241 20.104 27.6721 20.44C28.6161 21.096 29.8481 21.528 31.0001 21.592C31.8961 21.64 32.4081 21.48 32.5201 21.032C32.6641 20.472 32.2321 20.056 31.8321 19.88C31.2881 19.64 29.8001 19.176 28.6001 18.792C26.9201 18.264 25.7201 17.144 25.8161 15.304C25.9281 13.256 27.5761 11.944 30.5841 11.88C32.2161 11.848 33.8321 12.456 34.5841 13.08C35.1601 13.528 35.4481 14.392 34.9841 15.032C34.5841 15.608 33.9441 15.72 33.4481 15.352C32.6481 14.776 31.5441 14.328 30.4881 14.296C29.3521 14.264 28.7281 14.424 28.5361 15.048C28.3601 15.64 28.6321 16.168 29.2881 16.456C30.0241 16.776 31.6081 17.272 32.6321 17.656C34.4561 18.296 35.3201 19.352 35.2401 21C35.1281 22.968 33.2721 23.896 30.8721 23.896C29.2081 23.896 26.9841 23.16 26.3921 22.344ZM37.1756 17.384H35.9116C35.3196 17.384 34.9516 17.112 34.9356 16.296C34.9196 15.56 35.3196 15.192 35.8316 15.144C36.2156 15.128 36.6476 15.112 37.1596 15.096V12.936C37.1596 12.408 37.3996 11.96 38.5196 11.96C39.5596 11.96 39.7836 12.36 39.7836 12.952V15.064C40.6316 15.048 41.4636 15.048 42.0876 15.048C42.5036 15.048 42.8076 15.4 42.8076 15.976C42.8076 16.84 42.3756 17.016 41.9116 17.08C41.3356 17.16 40.5676 17.208 39.7676 17.256C39.7356 18.504 39.7196 19.8 39.7196 21.048C39.7196 21.4 39.8316 21.608 40.2476 21.576C40.6636 21.56 41.2396 21.528 41.6396 21.496C41.9276 21.48 42.2476 21.688 42.2956 22.36C42.3596 23.192 42.0076 23.384 41.6876 23.496C41.1596 23.704 40.3756 23.928 39.6396 23.928C38.1516 23.928 37.3836 23.24 37.3036 21.848C37.2396 20.712 37.1916 19.032 37.1756 17.384ZM51.1267 23.736H50.0387C49.8947 23.736 49.7827 23.656 49.7507 23.56C49.6387 23.192 49.5427 22.888 49.3987 22.424C48.9027 23.24 47.7347 23.816 46.6947 23.88C44.4227 24.008 42.3907 22.248 42.4387 19.528C42.4867 16.6 44.5667 14.936 46.8227 15.064C48.0387 15.128 48.9027 15.608 49.1907 16.344L49.2707 15.592C49.3027 15.32 49.3667 15.176 49.5427 15.144C50.2147 15.048 50.7267 15.032 51.3827 15.144C51.6067 15.192 51.7507 15.4 51.7667 15.784C51.7827 16.536 51.7987 17.352 51.7987 18.136C51.7987 20.12 51.7507 22.04 51.6867 23.192C51.6707 23.544 51.4467 23.736 51.1267 23.736ZM47.4467 21.624C48.4707 21.464 49.3187 20.648 49.3027 19.432C49.2867 18.232 48.5187 17.416 47.2547 17.336C45.9107 17.256 44.8547 18.168 44.8547 19.496C44.8547 21.032 45.9587 21.864 47.4467 21.624ZM55.0494 19.288H55.0334C55.0014 20.552 54.9694 21.816 54.9214 22.712C54.8734 23.432 54.4894 23.864 53.7694 23.896C52.9534 23.944 52.6334 23.496 52.5694 22.84C52.4574 21.64 52.3454 17.464 52.3454 16.04C52.3454 15.512 52.5694 15.064 53.6894 15.064C54.6974 15.064 55.0174 15.496 55.0334 16.056C55.0334 16.76 55.0494 16.568 55.0494 16.776C55.5614 15.992 56.7774 15.224 57.9134 15.08C58.5054 15 59.1454 15.16 59.2894 15.896C59.4174 16.568 59.3694 17.704 58.5214 17.704C57.1454 17.784 55.8974 18.248 55.0494 19.288ZM61.5922 17.384H60.3282C59.7362 17.384 59.3682 17.112 59.3522 16.296C59.3362 15.56 59.7362 15.192 60.2482 15.144C60.6322 15.128 61.0642 15.112 61.5762 15.096V12.936C61.5762 12.408 61.8162 11.96 62.9362 11.96C63.9762 11.96 64.2002 12.36 64.2002 12.952V15.064C65.0482 15.048 65.8802 15.048 66.5042 15.048C66.9202 15.048 67.2242 15.4 67.2242 15.976C67.2242 16.84 66.7922 17.016 66.3282 17.08C65.7522 17.16 64.9842 17.208 64.1842 17.256C64.1522 18.504 64.1362 19.8 64.1362 21.048C64.1362 21.4 64.2482 21.608 64.6642 21.576C65.0802 21.56 65.6562 21.528 66.0562 21.496C66.3442 21.48 66.6642 21.688 66.7122 22.36C66.7762 23.192 66.4242 23.384 66.1042 23.496C65.5762 23.704 64.7922 23.928 64.0562 23.928C62.5682 23.928 61.8002 23.24 61.7202 21.848C61.6562 20.712 61.6082 19.032 61.5922 17.384Z" fill="url(#paint1_linear_295_789)"/>
<path d="M26.3921 22.344L28.0109 21.1695L27.9961 21.1491L27.9808 21.1291L26.3921 22.344ZM26.3601 20.568L24.8146 19.2985L24.8041 19.3113L24.7938 19.3242L26.3601 20.568ZM27.6721 20.44L26.4721 22.04L26.501 22.0617L26.5307 22.0824L27.6721 20.44ZM31.0001 21.592L30.8891 23.5889L30.8931 23.5891L31.0001 21.592ZM32.5201 21.032L30.583 20.5339L30.5798 20.5469L32.5201 21.032ZM31.8321 19.88L31.0248 21.7098L31.0266 21.7106L31.8321 19.88ZM28.6001 18.792L29.2096 16.8871L29.1997 16.884L28.6001 18.792ZM25.8161 15.304L23.819 15.1948L23.8188 15.1998L25.8161 15.304ZM30.5841 11.88L30.5449 9.88038L30.5415 9.88045L30.5841 11.88ZM34.5841 13.08L33.3069 14.6191L33.3312 14.6393L33.3562 14.6587L34.5841 13.08ZM34.9841 15.032L33.3648 13.8581L33.3529 13.8745L33.3413 13.8912L34.9841 15.032ZM33.4481 15.352L34.6398 13.7458L34.6283 13.7373L34.6167 13.7289L33.4481 15.352ZM30.4881 14.296L30.5486 12.2969L30.5444 12.2968L30.4881 14.296ZM28.5361 15.048L26.6245 14.4598L26.6217 14.4689L26.619 14.4781L28.5361 15.048ZM29.2881 16.456L28.4841 18.2873L28.4906 18.2901L29.2881 16.456ZM32.6321 17.656L31.9298 19.5287L31.9498 19.5361L31.9699 19.5432L32.6321 17.656ZM35.2401 21L37.2368 21.1136L37.2373 21.1053L37.2377 21.097L35.2401 21ZM26.3921 22.344L27.9808 21.1291C27.996 21.149 28.052 21.2355 28.057 21.3911C28.0626 21.5622 28.0017 21.7168 27.9263 21.8118L26.3601 20.568L24.7938 19.3242C23.7069 20.693 23.9184 22.4017 24.8033 23.5589L26.3921 22.344ZM26.3601 20.568L27.9055 21.8375C27.8047 21.9602 27.5476 22.1716 27.1449 22.2037C26.7715 22.2334 26.536 22.0879 26.4721 22.04L27.6721 20.44L28.8721 18.84C28.3602 18.4561 27.6526 18.1506 26.8273 18.2163C25.9725 18.2844 25.2834 18.7278 24.8146 19.2985L26.3601 20.568ZM27.6721 20.44L26.5307 22.0824C27.7721 22.945 29.3594 23.5039 30.8891 23.5889L31.0001 21.592L31.111 19.5951C30.3367 19.5521 29.46 19.247 28.8134 18.7976L27.6721 20.44ZM31.0001 21.592L30.8931 23.5891C31.4276 23.6178 32.0945 23.6055 32.722 23.3832C33.4557 23.1232 34.2061 22.5341 34.4603 21.5171L32.5201 21.032L30.5798 20.5469C30.6366 20.3196 30.7604 20.0866 30.9517 19.8965C31.1304 19.7189 31.3042 19.6419 31.3861 19.6128C31.4638 19.5853 31.4889 19.5899 31.4269 19.5952C31.3689 19.6003 31.2662 19.6034 31.1071 19.5949L31.0001 21.592ZM32.5201 21.032L34.457 21.5301C34.6989 20.5895 34.4339 19.7465 34.0075 19.1495C33.6157 18.601 33.0918 18.2493 32.6375 18.0494L31.8321 19.88L31.0266 21.7106C30.9723 21.6867 30.8644 21.631 30.7526 21.4745C30.689 21.3854 30.6158 21.25 30.5762 21.0701C30.5351 20.8828 30.5414 20.6961 30.5831 20.5339L32.5201 21.032ZM31.8321 19.88L32.6393 18.0502C31.9676 17.7538 30.3141 17.2406 29.2096 16.8872L28.6001 18.792L27.9905 20.6968C29.286 21.1114 30.6085 21.5262 31.0248 21.7098L31.8321 19.88ZM28.6001 18.792L29.1997 16.884C28.5961 16.6943 28.2404 16.4464 28.055 16.2319C27.9052 16.0587 27.7914 15.8288 27.8133 15.4082L25.8161 15.304L23.8188 15.1998C23.7447 16.6192 24.1829 17.8693 25.0291 18.8481C25.8397 19.7856 26.924 20.3617 28.0004 20.7L28.6001 18.792ZM25.8161 15.304L27.8131 15.4132C27.8381 14.9565 28.0021 14.6783 28.3018 14.4571C28.6629 14.1906 29.376 13.9062 30.6266 13.8795L30.5841 11.88L30.5415 9.88045C28.7841 9.91784 27.1692 10.3214 25.9263 11.2389C24.622 12.2017 23.9061 13.6035 23.819 15.1948L25.8161 15.304ZM30.5841 11.88L30.6233 13.8796C31.1887 13.8685 31.7798 13.9699 32.3012 14.1378C32.845 14.3129 33.1854 14.5183 33.3069 14.6191L34.5841 13.08L35.8612 11.5409C34.6869 10.5664 32.583 9.84042 30.5449 9.88038L30.5841 11.88ZM34.5841 13.08L33.3562 14.6587C33.2986 14.6139 33.2553 14.5574 33.2312 14.4587C33.2002 14.3316 33.2006 14.0847 33.3648 13.8581L34.9841 15.032L36.6033 16.2059C37.9032 14.4129 36.9368 12.3762 35.8119 11.5013L34.5841 13.08ZM34.9841 15.032L33.3413 13.8912C33.3944 13.8147 33.5576 13.6448 33.8626 13.5843C34.1771 13.5218 34.4622 13.614 34.6398 13.7458L33.4481 15.352L32.2564 16.9582C32.93 17.458 33.783 17.6782 34.6415 17.5077C35.4905 17.3392 36.1737 16.8253 36.6268 16.1728L34.9841 15.032ZM33.4481 15.352L34.6167 13.7289C33.5576 12.9664 32.0759 12.3432 30.5486 12.2969L30.4881 14.296L30.4275 16.2951C31.0122 16.3128 31.7385 16.5856 32.2795 16.9751L33.4481 15.352ZM30.4881 14.296L30.5444 12.2968C29.9362 12.2797 29.1815 12.2961 28.4906 12.5407C27.6463 12.8396 26.9286 13.4714 26.6245 14.4598L28.5361 15.048L30.4476 15.6362C30.4093 15.7607 30.3248 15.9302 30.1696 16.0838C30.0213 16.2307 29.8803 16.2919 29.8255 16.3113C29.7803 16.3274 29.7952 16.3147 29.9131 16.3039C30.0274 16.2935 30.1937 16.2885 30.4317 16.2952L30.4881 14.296ZM28.5361 15.048L26.619 14.4781C26.3976 15.2228 26.4346 16.0495 26.8321 16.8011C27.2173 17.5294 27.8435 18.0061 28.4841 18.2873L29.2881 16.456L30.092 14.6247C30.0766 14.6179 30.2388 14.6866 30.368 14.9309C30.5095 15.1985 30.4986 15.4652 30.4531 15.6179L28.5361 15.048ZM29.2881 16.456L28.4906 18.2901C28.9454 18.4879 29.6061 18.7183 30.2012 18.9231C30.8393 19.1427 31.4513 19.3492 31.9298 19.5287L32.6321 17.656L33.3343 15.7833C32.7888 15.5788 32.0969 15.3453 31.5029 15.1409C30.866 14.9217 30.3668 14.7441 30.0855 14.6219L29.2881 16.456ZM32.6321 17.656L31.9699 19.5432C32.6715 19.7894 32.962 20.0394 33.08 20.1889C33.1656 20.2974 33.2632 20.4755 33.2424 20.903L35.2401 21L37.2377 21.097C37.297 19.8765 37.0025 18.7026 36.2201 17.7111C35.4701 16.7606 34.4167 16.1626 33.2942 15.7688L32.6321 17.656ZM35.2401 21L33.2433 20.8864C33.2279 21.1576 33.1397 21.3145 32.8671 21.4819C32.5115 21.7004 31.853 21.896 30.8721 21.896V23.896V25.896C32.2911 25.896 33.7606 25.6276 34.961 24.8901C36.2445 24.1015 37.1403 22.8104 37.2368 21.1136L35.2401 21ZM30.8721 23.896V21.896C30.2975 21.896 29.545 21.7615 28.8761 21.5332C28.5484 21.4214 28.288 21.3029 28.109 21.1994C27.8999 21.0785 27.9228 21.0481 28.0109 21.1695L26.3921 22.344L24.7732 23.5185C25.1573 24.0479 25.6802 24.4155 26.1066 24.6621C26.5631 24.9261 27.0737 25.1446 27.5841 25.3188C28.5911 25.6625 29.7826 25.896 30.8721 25.896V23.896ZM37.1756 17.384L39.1755 17.3646L39.1562 15.384H37.1756V17.384ZM34.9356 16.296L36.9352 16.2568L36.9351 16.2525L34.9356 16.296ZM35.8316 15.144L35.7483 13.1457L35.6965 13.1479L35.6449 13.1527L35.8316 15.144ZM37.1596 15.096L37.222 17.095L39.1596 17.0345V15.096H37.1596ZM39.7836 15.064H37.7836V17.1021L39.8213 17.0636L39.7836 15.064ZM41.9116 17.08L41.6383 15.0988L41.6364 15.099L41.9116 17.08ZM39.7676 17.256L39.6478 15.2596L37.8153 15.3695L37.7682 17.2047L39.7676 17.256ZM40.2476 21.576L40.1707 19.5775L40.1324 19.579L40.0942 19.5819L40.2476 21.576ZM41.6396 21.496L41.5286 19.4991L41.5043 19.5004L41.4801 19.5024L41.6396 21.496ZM42.2956 22.36L40.3006 22.5025L40.3015 22.5134L42.2956 22.36ZM41.6876 23.496L41.0269 21.6083L40.9904 21.621L40.9545 21.6352L41.6876 23.496ZM37.3036 21.848L35.3067 21.9605L35.3069 21.9628L37.3036 21.848ZM37.1756 17.384V15.384H35.9116V17.384V19.384H37.1756V17.384ZM35.9116 17.384V15.384C35.9131 15.384 35.9333 15.384 35.9685 15.3888C36.0038 15.3936 36.0591 15.4038 36.1283 15.4262C36.276 15.4741 36.4621 15.5702 36.6301 15.7402C36.9719 16.086 36.9383 16.4135 36.9352 16.2568L34.9356 16.296L32.9359 16.3352C32.9489 16.9945 33.1073 17.866 33.785 18.5518C34.4791 19.2542 35.3416 19.384 35.9116 19.384V17.384ZM34.9356 16.296L36.9351 16.2525C36.9351 16.255 36.9339 16.4941 36.7075 16.7596C36.4789 17.0277 36.1937 17.1188 36.0182 17.1353L35.8316 15.144L35.6449 13.1527C34.9575 13.2172 34.2162 13.5163 33.6637 14.1644C33.1133 14.8099 32.92 15.601 32.936 16.3395L34.9356 16.296ZM35.8316 15.144L35.9148 17.1423C36.2916 17.1266 36.7167 17.1108 37.222 17.095L37.1596 15.096L37.0971 13.097C36.5784 13.1132 36.1395 13.1294 35.7483 13.1457L35.8316 15.144ZM37.1596 15.096H39.1596V12.936H37.1596H35.1596V15.096H37.1596ZM37.1596 12.936H39.1596C39.1596 12.9525 39.1528 13.3848 38.7492 13.744C38.4118 14.0443 38.1581 13.96 38.5196 13.96V11.96V9.96C37.761 9.96 36.8273 10.0997 36.0899 10.756C35.2863 11.4712 35.1596 12.3915 35.1596 12.936H37.1596ZM38.5196 11.96V13.96C38.6625 13.96 38.6786 13.975 38.6174 13.9579C38.5456 13.9378 38.3649 13.8719 38.1752 13.6945C37.7533 13.2998 37.7836 12.8495 37.7836 12.952H39.7836H41.7836C41.7836 12.4625 41.7018 11.5162 40.9079 10.7735C40.1635 10.0771 39.212 9.96 38.5196 9.96V11.96ZM39.7836 12.952H37.7836V15.064H39.7836H41.7836V12.952H39.7836ZM39.7836 15.064L39.8213 17.0636C40.6478 17.048 41.4619 17.048 42.0876 17.048V15.048V13.048C41.4652 13.048 40.6153 13.048 39.7458 13.0644L39.7836 15.064ZM42.0876 15.048V17.048C41.6829 17.048 41.2902 16.8558 41.0418 16.5454C40.8204 16.2686 40.8076 16.0243 40.8076 15.976H42.8076H44.8076C44.8076 15.3517 44.6428 14.6434 44.1653 14.0466C43.661 13.4162 42.9082 13.048 42.0876 13.048V15.048ZM42.8076 15.976H40.8076C40.8076 16.0875 40.7849 15.7357 41.1456 15.388C41.4533 15.0914 41.7661 15.0811 41.6383 15.0988L41.9116 17.08L42.1848 19.0612C42.521 19.0149 43.2818 18.8846 43.9215 18.268C44.6143 17.6003 44.8076 16.7285 44.8076 15.976H42.8076ZM41.9116 17.08L41.6364 15.099C41.154 15.166 40.4717 15.2102 39.6478 15.2596L39.7676 17.256L39.8873 19.2524C40.6634 19.2058 41.5171 19.154 42.1867 19.061L41.9116 17.08ZM39.7676 17.256L37.7682 17.2047C37.7358 18.4705 37.7196 19.7836 37.7196 21.048H39.7196H41.7196C41.7196 19.8164 41.7354 18.5375 41.7669 17.3073L39.7676 17.256ZM39.7196 21.048H37.7196C37.7196 21.3308 37.741 22.1044 38.3184 22.7684C38.9901 23.5409 39.89 23.6094 40.401 23.5701L40.2476 21.576L40.0942 19.5819C40.1891 19.5746 40.825 19.5551 41.3368 20.1436C41.5562 20.396 41.647 20.6501 41.6847 20.8018C41.7205 20.946 41.7196 21.0424 41.7196 21.048H39.7196ZM40.2476 21.576L40.3244 23.5745C40.7616 23.5577 41.3658 23.5243 41.7991 23.4896L41.6396 21.496L41.4801 19.5024C41.1133 19.5317 40.5656 19.5623 40.1707 19.5775L40.2476 21.576ZM41.6396 21.496L41.7505 23.4929C41.3446 23.5155 40.8949 23.3638 40.5787 23.0164C40.299 22.7092 40.2962 22.4406 40.3006 22.5025L42.2956 22.36L44.2905 22.2175C44.2469 21.6074 44.0601 20.8988 43.5364 20.3236C42.9762 19.7082 42.2225 19.4605 41.5286 19.4991L41.6396 21.496ZM42.2956 22.36L40.3015 22.5134C40.3127 22.6597 40.2581 22.3813 40.5147 22.0263C40.766 21.6787 41.0897 21.5863 41.0269 21.6083L41.6876 23.496L42.3483 25.3837C42.6054 25.2937 43.2651 25.0493 43.7564 24.3697C44.253 23.6827 44.3424 22.8923 44.2897 22.2066L42.2956 22.36ZM41.6876 23.496L40.9545 21.6352C40.7714 21.7073 40.5377 21.7843 40.2902 21.8416C40.0384 21.8999 39.8149 21.928 39.6396 21.928V23.928V25.928C40.7236 25.928 41.7708 25.6128 42.4206 25.3568L41.6876 23.496ZM39.6396 23.928V21.928C39.4162 21.928 39.2933 21.9016 39.2421 21.8859C39.1984 21.8726 39.2253 21.8733 39.2747 21.9173C39.3263 21.9633 39.3453 22.0057 39.3441 22.0028C39.339 21.9903 39.3106 21.9123 39.3003 21.7332L37.3036 21.848L35.3069 21.9628C35.3663 22.9977 35.706 24.0944 36.6124 24.9027C37.4983 25.6927 38.6152 25.928 39.6396 25.928V23.928ZM37.3036 21.848L39.3004 21.7355C39.2387 20.641 39.1913 18.9942 39.1755 17.3646L37.1756 17.384L35.1757 17.4034C35.1918 19.0698 35.2404 20.783 35.3067 21.9605L37.3036 21.848ZM49.7507 23.56L47.8373 24.1423L47.845 24.1675L47.8533 24.1924L49.7507 23.56ZM49.3987 22.424L51.3088 21.8312L49.9939 17.5943L47.6896 21.3852L49.3987 22.424ZM46.6947 23.88L46.8072 25.8769L46.8175 25.8762L46.6947 23.88ZM42.4387 19.528L44.4384 19.5633L44.4384 19.5608L42.4387 19.528ZM46.8227 15.064L46.7094 17.0608L46.7176 17.0612L46.8227 15.064ZM49.1907 16.344L47.3282 17.0728L51.1795 16.5556L49.1907 16.344ZM49.2707 15.592L47.2844 15.3583L47.2831 15.3694L47.2819 15.3804L49.2707 15.592ZM49.5427 15.144L49.2598 13.1641L49.2223 13.1695L49.1849 13.1763L49.5427 15.144ZM51.3827 15.144L51.8017 13.1884L51.7607 13.1796L51.7193 13.1725L51.3827 15.144ZM51.7667 15.784L53.7662 15.7415L53.7658 15.7211L53.765 15.7007L51.7667 15.784ZM51.6867 23.192L49.6898 23.0811L49.6892 23.0911L49.6888 23.1012L51.6867 23.192ZM47.4467 21.624L47.1379 19.648L47.1282 19.6495L47.4467 21.624ZM49.3027 19.432L51.3025 19.4057L51.3025 19.4053L49.3027 19.432ZM47.2547 17.336L47.381 15.34L47.3735 15.3395L47.2547 17.336ZM51.1267 23.736V21.736H50.0387V23.736V25.736H51.1267V23.736ZM50.0387 23.736V21.736C50.5672 21.736 51.3527 22.0414 51.6481 22.9276L49.7507 23.56L47.8533 24.1924C48.2127 25.2706 49.2222 25.736 50.0387 25.736V23.736ZM49.7507 23.56L51.664 22.9777C51.55 22.6029 51.4495 22.2844 51.3088 21.8312L49.3987 22.424L47.4886 23.0168C47.6359 23.4916 47.7274 23.7811 47.8373 24.1423L49.7507 23.56ZM49.3987 22.424L47.6896 21.3852C47.6907 21.3835 47.6691 21.4183 47.6019 21.4766C47.5359 21.534 47.442 21.5997 47.3213 21.6631C47.0687 21.7956 46.7899 21.8704 46.5718 21.8838L46.6947 23.88L46.8175 25.8762C47.6395 25.8256 48.4647 25.5804 49.1801 25.2049C49.8835 24.8358 50.6191 24.2667 51.1077 23.4628L49.3987 22.424ZM46.6947 23.88L46.5822 21.8832C45.4911 21.9446 44.4105 21.1408 44.4384 19.5633L42.4387 19.528L40.439 19.4927C40.3708 23.3552 43.3543 26.0714 46.8072 25.8768L46.6947 23.88ZM42.4387 19.528L44.4384 19.5608C44.4684 17.7307 45.6254 16.9993 46.7094 17.0608L46.8227 15.064L46.936 13.0672C43.5079 12.8727 40.505 15.4693 40.439 19.4952L42.4387 19.528ZM46.8227 15.064L46.7176 17.0612C47.1012 17.0814 47.3145 17.1629 47.3982 17.2085C47.4714 17.2483 47.3873 17.2237 47.3282 17.0728L49.1907 16.344L51.0532 15.6152C50.3475 13.8119 48.4886 13.1489 46.9278 13.0668L46.8227 15.064ZM49.1907 16.344L51.1795 16.5556L51.2595 15.8036L49.2707 15.592L47.2819 15.3804L47.2019 16.1324L49.1907 16.344ZM49.2707 15.592L51.257 15.8257C51.2672 15.7392 51.258 15.9728 51.0921 16.2652C50.9919 16.4416 50.8319 16.6466 50.5904 16.8185C50.3489 16.9905 50.102 17.0751 49.9005 17.1117L49.5427 15.144L49.1849 13.1763C48.5094 13.2991 47.9456 13.7053 47.6133 14.2908C47.3634 14.7312 47.3062 15.1728 47.2844 15.3583L49.2707 15.592ZM49.5427 15.144L49.8255 17.1239C50.3499 17.049 50.6456 17.0471 51.0461 17.1155L51.3827 15.144L51.7193 13.1725C50.8077 13.0169 50.0794 13.047 49.2598 13.1641L49.5427 15.144ZM51.3827 15.144L50.9636 17.0996C50.5263 17.0059 50.1653 16.733 49.9549 16.3951C49.7776 16.1104 49.7691 15.8839 49.7684 15.8673L51.7667 15.784L53.765 15.7007C53.7483 15.3001 53.6597 14.7776 53.3505 14.2809C53.0081 13.731 52.4631 13.3301 51.8017 13.1884L51.3827 15.144ZM51.7667 15.784L49.7671 15.8265C49.7831 16.579 49.7987 17.3757 49.7987 18.136H51.7987H53.7987C53.7987 17.3283 53.7822 16.493 53.7662 15.7415L51.7667 15.784ZM51.7987 18.136H49.7987C49.7987 20.097 49.7511 21.9777 49.6898 23.0811L51.6867 23.192L53.6836 23.3029C53.7503 22.1023 53.7987 20.143 53.7987 18.136H51.7987ZM51.6867 23.192L49.6888 23.1012C49.6997 22.8613 49.8002 22.468 50.1518 22.1379C50.4965 21.8142 50.8862 21.736 51.1267 21.736V23.736V25.736C51.6872 25.736 52.3488 25.5618 52.8896 25.0541C53.4372 24.54 53.6577 23.8747 53.6846 23.2828L51.6867 23.192ZM47.4467 21.624L47.7554 23.6C49.6532 23.3035 51.333 21.7241 51.3025 19.4057L49.3027 19.432L47.3029 19.4583C47.3037 19.524 47.2932 19.5564 47.2896 19.566C47.2857 19.5763 47.2819 19.5818 47.2773 19.5869C47.2666 19.5988 47.2252 19.6343 47.1379 19.648L47.4467 21.624ZM49.3027 19.432L51.3025 19.4053C51.2888 18.3748 50.9421 17.3572 50.1844 16.5737C49.4287 15.7923 48.4215 15.4058 47.381 15.34L47.2547 17.336L47.1284 19.332C47.2435 19.3393 47.3029 19.3604 47.3218 19.3685C47.3385 19.3756 47.3279 19.3739 47.309 19.3543C47.2899 19.3346 47.2836 19.3187 47.285 19.3221C47.2871 19.3279 47.3017 19.369 47.3029 19.4587L49.3027 19.432ZM47.2547 17.336L47.3735 15.3395C44.9945 15.1979 42.8547 16.9054 42.8547 19.496H44.8547H46.8547C46.8547 19.4321 46.8666 19.4031 46.8694 19.3968C46.8724 19.3899 46.8749 19.3868 46.8794 19.3828C46.8829 19.3797 46.9499 19.3214 47.1358 19.3325L47.2547 17.336ZM44.8547 19.496H42.8547C42.8547 20.7606 43.3265 21.9734 44.3425 22.7871C45.3383 23.5846 46.5926 23.7876 47.7652 23.5985L47.4467 21.624L47.1282 19.6495C46.9723 19.6747 46.8791 19.6632 46.8404 19.6547C46.8048 19.647 46.8148 19.6424 46.8429 19.6649C46.8729 19.6889 46.8845 19.7126 46.8833 19.7099C46.8803 19.703 46.8547 19.6405 46.8547 19.496H44.8547ZM55.0494 19.288V21.288H55.9993L56.5995 20.5519L55.0494 19.288ZM55.0334 19.288V17.288H53.0834L53.0341 19.2374L55.0334 19.288ZM54.9214 22.712L56.917 22.845L56.9179 22.832L56.9186 22.819L54.9214 22.712ZM53.7694 23.896L53.6806 21.898L53.6663 21.8986L53.652 21.8995L53.7694 23.896ZM52.5694 22.84L50.5781 23.0259L50.5789 23.0342L52.5694 22.84ZM55.0334 16.056H57.0334V16.0274L57.0326 15.9989L55.0334 16.056ZM55.0494 16.776H53.0494V23.4962L56.724 17.8696L55.0494 16.776ZM57.9134 15.08L58.1649 17.0641L58.1731 17.0631L58.1813 17.062L57.9134 15.08ZM59.2894 15.896L61.2541 15.5218L61.2522 15.512L59.2894 15.896ZM58.5214 17.704V15.704H58.4633L58.4054 15.7074L58.5214 17.704ZM55.0494 19.288V17.288H55.0334V19.288V21.288H55.0494V19.288ZM55.0334 19.288L53.0341 19.2374C53.0018 20.513 52.9704 21.7438 52.9243 22.605L54.9214 22.712L56.9186 22.819C56.9684 21.8882 57.0011 20.591 57.0328 19.3386L55.0334 19.288ZM54.9214 22.712L52.9259 22.579C52.9227 22.6258 52.9264 22.4171 53.1478 22.1841C53.3884 21.931 53.6462 21.8995 53.6806 21.898L53.7694 23.896L53.8582 25.894C54.6127 25.8605 55.4225 25.597 56.0471 24.9399C56.6525 24.3029 56.8721 23.5182 56.917 22.845L54.9214 22.712ZM53.7694 23.896L53.652 21.8995C53.6335 21.9005 53.7101 21.893 53.8427 21.9344C53.9869 21.9794 54.1506 22.0683 54.2941 22.2103C54.5701 22.4834 54.5691 22.7396 54.56 22.6458L52.5694 22.84L50.5789 23.0342C50.6337 23.5964 50.8248 24.4046 51.4807 25.0537C52.1868 25.7523 53.0925 25.9393 53.8869 25.8925L53.7694 23.896ZM52.5694 22.84L54.5608 22.6541C54.4578 21.551 54.3454 17.4517 54.3454 16.04H52.3454H50.3454C50.3454 17.4763 50.4571 21.729 50.5781 23.0259L52.5694 22.84ZM52.3454 16.04H54.3454C54.3454 16.0433 54.3454 16.0681 54.3399 16.109C54.3345 16.1503 54.3227 16.2144 54.2965 16.2935C54.2392 16.4665 54.1268 16.6668 53.942 16.8346C53.5951 17.1496 53.3248 17.064 53.6894 17.064V15.064V13.064C52.9341 13.064 51.9917 13.2024 51.2528 13.8734C50.4534 14.5995 50.3454 15.5253 50.3454 16.04H52.3454ZM53.6894 15.064V17.064C53.9513 17.064 53.7329 17.1261 53.4331 16.8695C53.278 16.7368 53.1678 16.5723 53.1031 16.4116C53.0432 16.2627 53.0353 16.1511 53.0343 16.1131L55.0334 16.056L57.0326 15.9989C57.0141 15.3515 56.8005 14.4865 56.0338 13.8305C55.318 13.2179 54.4355 13.064 53.6894 13.064V15.064ZM55.0334 16.056H53.0334C53.0334 16.4083 53.0371 16.5903 53.0451 16.723C53.0473 16.7601 53.0497 16.7889 53.0512 16.808C53.0532 16.8311 53.0521 16.8184 53.0515 16.8093C53.0489 16.7714 53.0494 16.7503 53.0494 16.776H55.0494H57.0494C57.0494 16.6977 57.048 16.6226 57.0424 16.5402C57.0412 16.5224 57.04 16.5073 57.0392 16.4966C57.0387 16.4914 57.0383 16.4867 57.0381 16.4836C57.0378 16.4799 57.0377 16.4787 57.0375 16.4768C57.0372 16.4733 57.0375 16.4769 57.0378 16.481C57.0378 16.4817 57.0334 16.4077 57.0334 16.056H55.0334ZM55.0494 16.776L56.724 17.8696C56.7712 17.7972 56.9487 17.6009 57.2814 17.4C57.6025 17.2061 57.9266 17.0943 58.1649 17.0641L57.9134 15.08L57.6619 13.0959C56.7643 13.2097 55.9124 13.5539 55.2135 13.976C54.5262 14.3911 53.8397 14.9708 53.3749 15.6824L55.0494 16.776ZM57.9134 15.08L58.1813 17.062C58.2497 17.0527 58.1225 17.0908 57.8979 16.9821C57.7686 16.9195 57.625 16.8147 57.5072 16.6603C57.3897 16.5064 57.3428 16.3624 57.3267 16.28L59.2894 15.896L61.2522 15.512C61.0621 14.5401 60.4714 13.7839 59.6409 13.3819C58.9124 13.0292 58.1692 13.0273 57.6456 13.098L57.9134 15.08ZM59.2894 15.896L57.3248 16.2702C57.3346 16.3217 57.3426 16.3942 57.3427 16.4645C57.3428 16.5409 57.3335 16.5559 57.3441 16.5178C57.3519 16.4895 57.4101 16.2865 57.6314 16.0739C57.7485 15.9614 57.8967 15.8613 58.0704 15.7929C58.2428 15.7251 58.4005 15.704 58.5214 15.704V17.704V19.704C59.228 19.704 59.893 19.4481 60.403 18.9581C60.8677 18.5115 61.0889 17.9825 61.1988 17.5862C61.4109 16.8207 61.3519 16.0353 61.2541 15.5218L59.2894 15.896ZM58.5214 17.704L58.4054 15.7074C56.6661 15.8085 54.8092 16.4177 53.4994 18.0241L55.0494 19.288L56.5995 20.5519C56.9856 20.0783 57.6248 19.7595 58.6375 19.7006L58.5214 17.704ZM61.5922 17.384L63.5921 17.3646L63.5729 15.384H61.5922V17.384ZM59.3522 16.296L61.3518 16.2568L61.3517 16.2525L59.3522 16.296ZM60.2482 15.144L60.1649 13.1457L60.1131 13.1479L60.0615 13.1527L60.2482 15.144ZM61.5762 15.096L61.6387 17.095L63.5762 17.0345V15.096H61.5762ZM64.2002 15.064H62.2002V17.1021L64.2379 17.0636L64.2002 15.064ZM66.3282 17.08L66.0549 15.0988L66.0531 15.099L66.3282 17.08ZM64.1842 17.256L64.0644 15.2596L62.2319 15.3695L62.1848 17.2047L64.1842 17.256ZM64.6642 21.576L64.5873 19.5775L64.549 19.579L64.5108 19.5819L64.6642 21.576ZM66.0562 21.496L65.9452 19.4991L65.921 19.5004L65.8967 19.5024L66.0562 21.496ZM66.7122 22.36L64.7172 22.5025L64.7181 22.5134L66.7122 22.36ZM66.1042 23.496L65.4435 21.6083L65.4071 21.621L65.3711 21.6352L66.1042 23.496ZM61.7202 21.848L59.7234 21.9605L59.7235 21.9628L61.7202 21.848ZM61.5922 17.384V15.384H60.3282V17.384V19.384H61.5922V17.384ZM60.3282 17.384V15.384C60.3297 15.384 60.35 15.384 60.3851 15.3888C60.4204 15.3936 60.4757 15.4038 60.5449 15.4262C60.6926 15.4741 60.8788 15.5702 61.0467 15.7402C61.3885 16.086 61.3549 16.4135 61.3518 16.2568L59.3522 16.296L57.3526 16.3352C57.3655 16.9945 57.5239 17.866 58.2016 18.5518C58.8957 19.2542 59.7583 19.384 60.3282 19.384V17.384ZM59.3522 16.296L61.3517 16.2525C61.3518 16.255 61.3505 16.4941 61.1241 16.7596C60.8955 17.0277 60.6103 17.1188 60.4349 17.1353L60.2482 15.144L60.0615 13.1527C59.3741 13.2172 58.6328 13.5163 58.0803 14.1644C57.5299 14.8099 57.3366 15.601 57.3527 16.3395L59.3522 16.296ZM60.2482 15.144L60.3314 17.1423C60.7083 17.1266 61.1333 17.1108 61.6387 17.095L61.5762 15.096L61.5137 13.097C60.995 13.1132 60.5561 13.1294 60.1649 13.1457L60.2482 15.144ZM61.5762 15.096H63.5762V12.936H61.5762H59.5762V15.096H61.5762ZM61.5762 12.936H63.5762C63.5762 12.9525 63.5694 13.3848 63.1658 13.744C62.8285 14.0443 62.5747 13.96 62.9362 13.96V11.96V9.96C62.1776 9.96 61.2439 10.0997 60.5065 10.756C59.7029 11.4712 59.5762 12.3915 59.5762 12.936H61.5762ZM62.9362 11.96V13.96C63.0791 13.96 63.0952 13.975 63.034 13.9579C62.9622 13.9378 62.7815 13.8719 62.5919 13.6945C62.1699 13.2998 62.2002 12.8495 62.2002 12.952H64.2002H66.2002C66.2002 12.4625 66.1184 11.5162 65.3245 10.7735C64.5801 10.0771 63.6286 9.96 62.9362 9.96V11.96ZM64.2002 12.952H62.2002V15.064H64.2002H66.2002V12.952H64.2002ZM64.2002 15.064L64.2379 17.0636C65.0644 17.048 65.8786 17.048 66.5042 17.048V15.048V13.048C65.8818 13.048 65.0319 13.048 64.1625 13.0644L64.2002 15.064ZM66.5042 15.048V17.048C66.0995 17.048 65.7068 16.8558 65.4584 16.5454C65.237 16.2686 65.2242 16.0243 65.2242 15.976H67.2242H69.2242C69.2242 15.3517 69.0594 14.6434 68.5819 14.0466C68.0776 13.4162 67.3249 13.048 66.5042 13.048V15.048ZM67.2242 15.976H65.2242C65.2242 16.0875 65.2015 15.7357 65.5622 15.388C65.87 15.0914 66.1827 15.0811 66.0549 15.0988L66.3282 17.08L66.6015 19.0612C66.9376 19.0149 67.6984 18.8846 68.3381 18.268C69.0309 17.6003 69.2242 16.7285 69.2242 15.976H67.2242ZM66.3282 17.08L66.0531 15.099C65.5706 15.166 64.8884 15.2102 64.0644 15.2596L64.1842 17.256L64.304 19.2524C65.08 19.2058 65.9338 19.154 66.6033 19.061L66.3282 17.08ZM64.1842 17.256L62.1848 17.2047C62.1524 18.4705 62.1362 19.7836 62.1362 21.048H64.1362H66.1362C66.1362 19.8164 66.152 18.5375 66.1835 17.3073L64.1842 17.256ZM64.1362 21.048H62.1362C62.1362 21.3308 62.1576 22.1044 62.735 22.7684C63.4067 23.5409 64.3066 23.6094 64.8176 23.5701L64.6642 21.576L64.5108 19.5819C64.6057 19.5746 65.2416 19.5551 65.7534 20.1436C65.9728 20.396 66.0637 20.6501 66.1013 20.8018C66.1371 20.946 66.1362 21.0424 66.1362 21.048H64.1362ZM64.6642 21.576L64.7411 23.5745C65.1782 23.5577 65.7824 23.5243 66.2157 23.4896L66.0562 21.496L65.8967 19.5024C65.5299 19.5317 64.9822 19.5623 64.5873 19.5775L64.6642 21.576ZM66.0562 21.496L66.1671 23.4929C65.7612 23.5155 65.3115 23.3638 64.9953 23.0164C64.7156 22.7092 64.7129 22.4406 64.7173 22.5025L66.7122 22.36L68.7071 22.2175C68.6635 21.6074 68.4768 20.8988 67.9531 20.3236C67.3928 19.7082 66.6391 19.4605 65.9452 19.4991L66.0562 21.496ZM66.7122 22.36L64.7181 22.5134C64.7293 22.6597 64.6747 22.3813 64.9313 22.0263C65.1827 21.6787 65.5063 21.5863 65.4435 21.6083L66.1042 23.496L66.7649 25.3837C67.022 25.2937 67.6817 25.0493 68.173 24.3697C68.6697 23.6827 68.759 22.8923 68.7063 22.2066L66.7122 22.36ZM66.1042 23.496L65.3711 21.6352C65.188 21.7073 64.9543 21.7843 64.7069 21.8416C64.455 21.8999 64.2315 21.928 64.0562 21.928V23.928V25.928C65.1402 25.928 66.1874 25.6128 66.8372 25.3568L66.1042 23.496ZM64.0562 23.928V21.928C63.8328 21.928 63.7099 21.9016 63.6587 21.8859C63.615 21.8726 63.642 21.8733 63.6913 21.9173C63.7429 21.9633 63.7619 22.0057 63.7607 22.0028C63.7556 21.9903 63.7272 21.9123 63.7169 21.7332L61.7202 21.848L59.7235 21.9628C59.783 22.9977 60.1227 24.0944 61.0291 24.9027C61.9149 25.6927 63.0318 25.928 64.0562 25.928V23.928ZM61.7202 21.848L63.717 21.7355C63.6554 20.641 63.6079 18.9942 63.5921 17.3646L61.5922 17.384L59.5923 17.4034C59.6085 19.0698 59.657 20.783 59.7234 21.9605L61.7202 21.848Z" fill="#281900" mask="url(#path-4-outside-1_295_789)"/>
</g>
<defs>
<filter id="filter0_d_295_789" x="0" y="0" width="93.5385" height="36" filterUnits="userSpaceOnUse" color-interpolation-filters="sRGB">
<feFlood flood-opacity="0" result="BackgroundImageFix"/>
<feColorMatrix in="SourceAlpha" type="matrix" values="0 0 0 0 0 0 0 0 0 0 0 0 0 0 0 0 0 0 127 0" result="hardAlpha"/>
<feOffset dy="4"/>
<feComposite in2="hardAlpha" operator="out"/>
<feColorMatrix type="matrix" values="0 0 0 0 0.219608 0 0 0 0 0.172549 0 0 0 0 0.156863 0 0 0 1 0"/>
<feBlend mode="normal" in2="BackgroundImageFix" result="effect1_dropShadow_295_789"/>
<feBlend mode="normal" in="SourceGraphic" in2="effect1_dropShadow_295_789" result="shape"/>
</filter>
<filter id="filter1_d_295_789" x="23.8107" y="9.87891" width="45.4136" height="17.0493" filterUnits="userSpaceOnUse" color-interpolation-filters="sRGB">
<feFlood flood-opacity="0" result="BackgroundImageFix"/>
<feColorMatrix in="SourceAlpha" type="matrix" values="0 0 0 0 0 0 0 0 0 0 0 0 0 0 0 0 0 0 127 0" result="hardAlpha"/>
<feOffset dy="1"/>
<feComposite in2="hardAlpha" operator="out"/>
<feColorMatrix type="matrix" values="0 0 0 0 0.156863 0 0 0 0 0.0980392 0 0 0 0 0 0 0 0 1 0"/>
<feBlend mode="normal" in2="BackgroundImageFix" result="effect1_dropShadow_295_789"/>
<feBlend mode="normal" in="SourceGraphic" in2="effect1_dropShadow_295_789" result="shape"/>
</filter>
<linearGradient id="paint0_linear_295_789" x1="46.7692" y1="3.69189" x2="46.7692" y2="31.3842" gradientUnits="userSpaceOnUse">
<stop stop-color="#5C4D49"/>
<stop offset="1" stop-color="#463733"/>
</linearGradient>
<linearGradient id="paint1_linear_295_789" x1="46.5" y1="7" x2="46.5" y2="29" gradientUnits="userSpaceOnUse">
<stop stop-color="#FFE8B3"/>
<stop offset="1" stop-color="#FFC870"/>
</linearGradient>
</defs>
</svg>
